<!--?xml version="1.0" encoding="utf-8"?-->
<!-- Generator: Adobe Illustrator 14.0.0, SVG Export Plug-In . SVG Version: 6.00 Build 43363)  -->

<svg version="1.1" id="レイヤー_1" xmlns="http://www.w3.org/2000/svg" xmlns:xlink="http://www.w3.org/1999/xlink" x="0px" y="0px" width="647px" height="400px" viewBox="0 0 647 400" enable-background="new 0 0 647 400" xml:space="preserve" style="">
<path fill="none" stroke="#000000" d="M375.502,60.801c0.185,0.125,18.258,12.549,33.017,16.931
	c6.63,1.97,12.155,2.572,16.425,1.793c7.093-1.299,11.005-6.242,11.949-15.114c1.24-11.53-11.316-16.516-13.459-17.278
	c0.824-1.575,4.593-9.406,2.349-16.105c-1.192-3.538-3.84-6.214-7.89-7.961c-1.874-0.808-3.695-1.035-5.565-0.697l0.003,0.002
	c-5.497,1.004-10.634,6.762-17.749,14.723c-0.781,0.873-1.584,1.773-2.409,2.694c-10.537,11.698-16.679,20.55-16.739,20.644
	l-0.152,0.215L375.502,60.801z" class="DOwcKPUU_0"></path>
<path fill="none" stroke="#000000" d="M421.325,127.876c0.082,0.143,8.197,14.17,16.65,21.778c3.805,3.423,7.295,5.579,10.399,6.411
	c5.142,1.387,9.319-0.669,12.77-6.291c4.487-7.302-2.313-14.613-3.5-15.801c1.051-0.791,6.053-4.82,6.676-10.003
	c0.336-2.737-0.585-5.367-2.73-7.814c-0.997-1.134-2.14-1.867-3.495-2.231l0,0c-3.983-1.077-9.24,1.135-16.515,4.19
	c-0.797,0.333-1.618,0.678-2.462,1.032c-10.745,4.462-17.655,8.419-17.723,8.465l-0.173,0.095L421.325,127.876z" class="DOwcKPUU_1"></path>
<path fill="none" stroke="#000000" d="M478.068,168.509c-0.532-4.33-2.62-7.976-7.841-7.976c-4.396,0-7.956,3.565-7.956,7.961
	c0,4.221,3.288,7.668,7.447,7.934c-2.981,12.103-13.896,38.55-53.24,49.45c-4.348,1.203-9.095,1.824-13.579,2.293
	c-4.2,0.439-8.434,0.48-12.635-0.014c-7.69-0.908-15.217-3.418-22.265-6.572c-6.314-2.824-12.163-6.453-17.614-10.693
	c-4.329-3.371-8.493-7-12.223-11.028c-2.119-2.292-4.2-4.622-6.339-6.894c-1.128-1.198-2.166-3.063-3.833-3.562
	c-1.941-0.581-3.2,1.459-3.749,3.277c-0.392,1.309,0.622,2.358,0.622,2.358c0.376,0.535,37.853,52.944,93.482,37.542
	c1.877-0.525,3.701-1.074,5.462-1.66c23.936-7.971,46.231-26.893,53.278-51.985C477.888,176.098,478.502,172.073,478.068,168.509z" class="DOwcKPUU_2"></path>
<path fill="none" stroke="#000000" d="M362.256,138.812c5.523,1.204,10.668,4.687,13.613,9.104
	c2.206,3.479,3.306,7.897,3.306,13.518c0,9.771-3.063,16.998-9.44,22.219c-5.512,4.549-13.36,7.225-20.84,7.225
	c-12.016,0-26.113-6.556-42.055-19.673c-10.49-8.587-13.218-11.237-33.176-32.393H362.256z" class="DOwcKPUU_3"></path>
<path fill="none" stroke="#000000" d="M271.581,229.492c1.205,5.518,4.686,10.664,9.104,13.607
	c3.479,2.205,7.898,3.309,13.518,3.309c9.771,0,16.998-3.064,22.219-9.439c4.552-5.52,7.229-13.367,7.229-20.844
	c0-12.018-6.561-26.115-19.677-42.056c-8.584-10.487-11.238-13.218-32.393-33.176V229.492z" class="DOwcKPUU_4"></path>
<path fill="none" stroke="#000000" d="M267.833,229.488c-1.203,5.521-4.683,10.668-9.101,13.611
	c-3.48,2.205-7.895,3.309-13.518,3.309c-9.769,0-16.998-3.064-22.219-9.439c-4.552-5.521-7.227-13.367-7.227-20.844
	c0-12.018,6.558-26.115,19.678-42.056c8.582-10.487,11.233-13.218,32.387-33.174V229.488z" class="DOwcKPUU_5"></path>
<path fill="none" stroke="#000000" d="M362.256,135.065c5.523-1.205,10.668-4.683,13.613-9.099c2.204-3.483,3.306-7.899,3.306-13.52
	c0-9.771-3.063-16.998-9.44-22.219c-5.518-4.552-13.36-7.227-20.84-7.227c-12.016,0-26.117,6.556-42.055,19.676
	c-10.49,8.584-13.218,11.233-33.176,32.389H362.256z" class="DOwcKPUU_6"></path>
<path fill="none" stroke="#000000" d="M271.583,39.103c1.202-5.517,4.683-10.668,9.101-13.611c3.481-2.206,7.898-3.309,13.518-3.309
	c9.771,0,17.001,3.069,22.219,9.443c4.552,5.516,7.229,13.363,7.229,20.843c0,12.014-6.561,26.114-19.677,42.052
	c-8.584,10.488-11.238,13.218-32.39,33.178V39.103z" class="DOwcKPUU_7"></path>
<path fill="none" stroke="#000000" d="M267.833,39.103c-1.203-5.517-4.683-10.665-9.101-13.609
	c-3.48-2.208-7.895-3.311-13.518-3.311c-9.769,0-16.998,3.069-22.219,9.443c-4.552,5.516-7.227,13.363-7.227,20.843
	c0,12.014,6.558,26.114,19.678,42.054c8.582,10.488,11.233,13.216,32.387,33.176V39.103z" class="DOwcKPUU_8"></path>
<path fill="none" stroke="#000000" d="M175.224,135.065c-5.518-1.205-10.667-4.683-13.611-9.099
	c-2.207-3.483-3.308-7.899-3.308-13.52c0-9.771,3.066-16.998,9.44-22.219C173.263,85.676,181.111,83,188.591,83
	c12.013,0,26.111,6.556,42.049,19.676c10.49,8.584,13.218,11.233,33.179,32.389H175.224z" class="DOwcKPUU_9"></path>
<path fill="none" stroke="#000000" d="M175.224,138.812c-5.518,1.204-10.667,4.687-13.608,9.104
	c-2.208,3.479-3.311,7.897-3.311,13.518c0,9.771,3.066,16.998,9.44,22.219c5.519,4.549,13.366,7.225,20.846,7.225
	c12.013,0,26.111-6.556,42.049-19.673c10.49-8.587,13.218-11.237,33.179-32.393H175.224z" class="DOwcKPUU_10"></path>
<path fill="none" stroke="#000000" d="M145.43,319.873c0.947,0,1.906-0.023,2.875-0.068c0.971-0.047,1.953-0.072,2.948-0.072
	c1.609,0,3.099,0.025,4.473,0.072c1.37,0.045,2.569,0.295,3.585,0.744c1.017,0.451,1.812,1.207,2.378,2.273
	c0.57,1.064,0.854,2.615,0.854,4.65c0,1.041-0.331,1.869-0.992,2.484c-0.667,0.615-1.47,1.078-2.417,1.385
	c-0.946,0.311-1.941,0.496-2.982,0.568c-1.042,0.072-1.942,0.105-2.699,0.105c-1.232,0-2.426-0.033-3.586-0.105
	c-1.161-0.072-2.354-0.107-3.586-0.107c-0.472,0-1.218-0.021-2.233-0.07c-1.022-0.045-2.072-0.07-3.163-0.07
	c-1.09,0-2.095,0.07-3.018,0.211c-0.922,0.143-1.55,0.404-1.881,0.783c-0.851,0.947-1.528,2.332-2.024,4.154
	c-0.497,1.824-0.947,3.883-1.35,6.176c-0.402,2.297-0.781,4.758-1.136,7.387c-0.355,2.627-0.806,5.244-1.348,7.846
	c-0.547,2.605-1.255,5.1-2.133,7.49c-0.875,2.391-1.999,4.488-3.37,6.285c-0.379,0.521-0.854,0.84-1.421,0.959
	c-0.568,0.119-1.137,0.178-1.705,0.178c-0.946,0-1.951-0.154-3.015-0.463c-1.067-0.307-2.015-0.758-2.844-1.348
	c-0.827-0.592-1.524-1.314-2.094-2.166c-0.566-0.852-0.851-1.822-0.851-2.912c0-2.744,0.356-5.441,1.066-8.096
	c0.709-2.648,1.491-5.264,2.342-7.846c0.851-2.58,1.623-5.195,2.308-7.846c0.686-2.652,1.029-5.348,1.029-8.094
	c0-0.805-0.178-1.387-0.533-1.742c-0.354-0.354-0.935-0.531-1.74-0.531c-0.379,0-0.722,0.012-1.029,0.035
	c-0.309,0.023-0.628,0.037-0.958,0.037c-1.278,0-2.119-0.322-2.521-0.961c-0.403-0.639-0.604-1.549-0.604-2.734
	c0-0.66,0.036-1.406,0.107-2.236c0.07-0.826,0.223-1.621,0.463-2.377c0.234-0.758,0.601-1.408,1.098-1.955
	c0.499-0.543,1.148-0.91,1.956-1.1c0.755-0.094,1.536-0.143,2.34-0.143c0.805,0,1.611-0.023,2.416-0.07
	c0.427-0.045,0.815-0.082,1.173-0.105c0.352-0.023,0.721-0.154,1.1-0.391c0.758-0.379,1.208-0.996,1.348-1.846
	c0.144-0.854,0.309-1.705,0.498-2.559c0.188-0.85,0.557-1.596,1.103-2.234c0.542-0.639,1.548-0.961,3.016-0.961
	c0.662,0,1.301,0.012,1.917,0.037c0.614,0.023,1.254,0.035,1.918,0.035c0.662,0,1.491,0.012,2.483,0.037
	c0.996,0.023,1.777,0.225,2.344,0.604c0.709,0.424,1.113,1.1,1.208,2.021c0.093,0.924,0.141,1.717,0.141,2.379
	c0,0.568,0.271,1.006,0.817,1.314c0.542,0.309,1.194,0.531,1.952,0.676c0.758,0.141,1.515,0.223,2.272,0.246
	C144.484,319.863,145.049,319.873,145.43,319.873z M134.07,359.85c0-0.943,0.223-1.951,0.671-3.018
	c0.451-1.062,1.03-2.08,1.74-3.051c0.711-0.971,1.539-1.822,2.488-2.557c0.944-0.732,1.938-1.219,2.982-1.455
	c0.851-0.188,1.822-0.236,2.91-0.143c1.088,0.094,2.12,0.307,3.087,0.639c0.971,0.332,1.8,0.793,2.489,1.385
	c0.685,0.592,1.074,1.268,1.169,2.023c0.048,0.332-0.081,0.664-0.39,0.994c-0.31,0.334-0.65,0.686-1.028,1.064
	c-0.382,0.381-0.724,0.797-1.031,1.244c-0.307,0.451-0.46,0.959-0.46,1.527c0,0.615,0.317,1.148,0.958,1.596
	c0.638,0.451,1.372,0.781,2.201,0.996c0.826,0.213,1.677,0.365,2.555,0.459c0.878,0.096,1.572,0.143,2.095,0.143
	c1.088,0,2.153-0.105,3.195-0.32c1.041-0.213,2.069-0.447,3.09-0.709c1.017-0.258,2.056-0.498,3.123-0.709
	c1.067-0.215,2.141-0.322,3.232-0.322c0.898,0,1.608,0.25,2.13,0.746c0.518,0.498,0.887,1.092,1.098,1.775
	c0.216,0.689,0.346,1.447,0.393,2.273c0.046,0.83,0.07,1.6,0.07,2.307c0,1.564-0.592,2.807-1.776,3.73
	c-1.184,0.922-2.615,1.619-4.296,2.092c-1.68,0.475-3.408,0.771-5.183,0.889c-1.774,0.117-3.208,0.178-4.295,0.178
	c-1.468,0-2.911-0.033-4.332-0.105s-2.864-0.25-4.332-0.533c-2.225-0.473-4.472-1.268-6.745-2.379
	c-2.273-1.111-4.143-2.543-5.61-4.295c-0.805-0.9-1.375-1.895-1.708-2.982C134.233,362.242,134.07,361.082,134.07,359.85z
	 M172.98,340.537c0,0.568-0.024,1.221-0.072,1.951c-0.045,0.736-0.14,1.457-0.283,2.168c-0.142,0.711-0.379,1.336-0.71,1.883
	c-0.331,0.543-0.758,0.936-1.28,1.17c-1.23,0.189-2.58,0.201-4.046,0.035c-1.467-0.164-3.123-0.354-4.969-0.566
	c-1.846-0.215-3.92-0.379-6.214-0.498c-2.296-0.117-4.887-0.012-7.776,0.32c-2.841,0.33-4.734-0.072-5.679-1.207
	c-0.949-1.137-1.421-3.102-1.421-5.895c0-0.898,0.415-1.643,1.245-2.238c0.824-0.59,1.879-1.086,3.159-1.49
	c1.275-0.4,2.708-0.697,4.295-0.887c1.585-0.189,3.124-0.33,4.618-0.428c1.488-0.092,2.861-0.141,4.116-0.141
	c1.253,0,2.188,0,2.804,0c0.758,0,1.516,0.012,2.272,0.035c0.758,0.025,1.537,0.037,2.344,0.037c1.086,0,2.093,0.068,3.019,0.213
	c0.922,0.143,1.726,0.414,2.414,0.814c0.685,0.404,1.218,0.971,1.599,1.705C172.792,338.256,172.98,339.26,172.98,340.537z" class="DOwcKPUU_11"></path>
<path fill="none" stroke="#000000" d="M207.748,337.838c0.662-0.094,1.337-0.189,2.022-0.283c0.686-0.092,1.362-0.145,2.023-0.145
	c1.563,0,2.925,0.277,4.085,0.82c1.16,0.543,2.176,1.289,3.054,2.234c0.873,0.949,1.596,2.062,2.165,3.34
	c0.567,1.277,1.018,2.58,1.349,3.904c0.235,0.898,0.403,1.799,0.497,2.699s0.213,1.799,0.357,2.697
	c0.045,0.285,0.115,0.676,0.211,1.172c0.095,0.496,0.249,0.994,0.459,1.492c0.216,0.494,0.451,0.934,0.712,1.312
	c0.262,0.381,0.556,0.568,0.89,0.568c0.47,0,0.851-0.318,1.136-0.959c0.282-0.639,0.554-1.432,0.815-2.379
	c0.259-0.947,0.508-1.975,0.746-3.088c0.237-1.111,0.554-2.141,0.958-3.088c0.4-0.947,0.947-1.74,1.632-2.381
	c0.686-0.637,1.573-0.957,2.664-0.957c0.755,0,1.704,0.084,2.841,0.248c1.136,0.164,2.236,0.508,3.301,1.029
	c1.067,0.521,1.977,1.291,2.735,2.309s1.089,2.379,0.993,4.084c-0.048,1.041-0.295,2.283-0.744,3.727
	c-0.451,1.445-0.982,2.9-1.599,4.367c-0.615,1.467-1.314,2.861-2.095,4.189c-0.781,1.324-1.502,2.391-2.164,3.193
	c-1.708,1.941-3.719,3.385-6.036,4.332c-2.32,0.947-4.807,1.422-7.455,1.422c-2.512,0-4.617-0.438-6.322-1.314
	c-1.704-0.877-3.102-2.059-4.188-3.551c-1.09-1.488-1.932-3.219-2.522-5.184c-0.594-1.963-1.102-4.014-1.527-6.143
	c-0.095-0.613-0.189-1.207-0.285-1.775c-0.096-0.566-0.211-1.137-0.355-1.703c-0.095-0.332-0.273-0.84-0.532-1.529
	c-0.262-0.682-0.604-1.027-1.031-1.027c-0.899,0-1.693,0.451-2.378,1.35s-1.361,2.072-2.022,3.516
	c-0.665,1.443-1.314,3.027-1.952,4.758c-0.642,1.729-1.34,3.361-2.095,4.896c-0.76,1.541-1.611,2.912-2.557,4.121
	c-0.947,1.207-2.084,2.047-3.409,2.521c-0.472,0.139-0.899,0.295-1.278,0.461c-0.378,0.166-0.828,0.248-1.349,0.248
	c-0.947,0-1.93-0.166-2.946-0.496c-1.019-0.332-1.952-0.783-2.805-1.352s-1.554-1.291-2.095-2.164
	c-0.546-0.875-0.815-1.883-0.815-3.018c0-1.137,0.365-3.064,1.099-5.787c0.733-2.721,1.682-5.822,2.839-9.303
	c1.161-3.48,2.451-7.137,3.872-10.969c1.418-3.838,2.838-7.422,4.259-10.76c1.421-3.336,2.735-6.238,3.94-8.699
	c1.207-2.459,2.142-4.047,2.805-4.756c0.331-0.285,0.781-0.58,1.35-0.889s1.182-0.58,1.845-0.818
	c0.662-0.234,1.291-0.424,1.882-0.566s1.028-0.213,1.314-0.213c0.616,0,1.49,0.133,2.627,0.393c1.137,0.258,2.272,0.625,3.409,1.1
	c1.135,0.471,2.117,1.027,2.945,1.668c0.83,0.639,1.242,1.359,1.242,2.164c0,1.611-0.46,3.232-1.383,4.863
	c-0.923,1.637-1.929,3.232-3.018,4.795c-1.087,1.561-2.095,3.066-3.018,4.51c-0.922,1.445-1.382,2.781-1.382,4.012L207.748,337.838z
	" class="DOwcKPUU_12"></path>
<path fill="none" stroke="#000000" d="M261.35,316.18c1.087,0,2.131,0.229,3.124,0.676c0.994,0.451,1.491,1.314,1.491,2.592
	c0,2.037-0.153,4.049-0.46,6.037c-0.307,1.988-0.651,4-1.03,6.035c-0.379,2.227-0.71,4.428-0.993,6.604
	c-0.286,2.178-0.427,4.404-0.427,6.676c0,2.414,0.105,4.816,0.321,7.207c0.211,2.389,0.506,4.77,0.887,7.135
	c0.282,1.801,0.637,3.539,1.064,5.219c0.427,1.682,0.638,3.445,0.638,5.291c0,0.854-0.202,1.539-0.604,2.059
	c-0.402,0.523-0.897,0.902-1.491,1.139c-0.59,0.234-1.253,0.377-1.984,0.424c-0.736,0.047-1.434,0.072-2.095,0.072
	c-1.563,0-2.9-0.57-4.014-1.703c-1.112-1.137-2.062-2.617-2.839-4.439c-0.782-1.822-1.398-3.846-1.849-6.072
	c-0.449-2.223-0.806-4.412-1.064-6.568c-0.259-2.152-0.427-4.164-0.497-6.037c-0.072-1.865-0.108-3.346-0.108-4.436
	c0-0.945,0.048-2.307,0.144-4.082c0.093-1.775,0.295-3.693,0.604-5.75c0.308-2.061,0.686-4.168,1.137-6.322
	c0.448-2.152,1.04-4.094,1.774-5.822c0.733-1.727,1.62-3.148,2.663-4.26c1.041-1.113,2.247-1.672,3.622-1.672H261.35z" class="DOwcKPUU_13"></path>
<path fill="none" stroke="#000000" d="M312.582,334.111c-0.828-1.018-2.496-1.527-5.004-1.527c-0.383,0-0.901,0.014-1.565,0.035
	c-0.661,0.027-1.326-0.01-1.987-0.105c-0.662-0.096-1.23-0.262-1.704-0.498c-0.474-0.234-0.71-0.637-0.71-1.205
	c0-0.803,0.226-1.338,0.674-1.6c0.451-0.258,1.007-0.391,1.668-0.391c0.711,0,1.362,0.039,1.951,0.107
	c0.595,0.07,1.248,0.105,1.957,0.105c0.474,0,0.992-0.021,1.56-0.068c0.568-0.049,1.101-0.166,1.6-0.355
	c0.494-0.189,0.911-0.473,1.241-0.854c0.331-0.379,0.499-0.898,0.499-1.562c0-0.709-0.036-1.443-0.105-2.201
	c-0.074-0.758-0.201-1.465-0.394-2.129c-0.234-0.805-0.627-1.445-1.169-1.92c-0.547-0.471-1.151-0.852-1.812-1.133
	c-0.901-0.379-2.106-0.686-3.619-0.924c-1.518-0.236-3.091-0.414-4.725-0.533c-1.632-0.117-3.229-0.199-4.792-0.248
	c-1.563-0.047-2.913-0.096-4.046-0.145c-0.949-0.045-1.909-0.08-2.876-0.105c-0.974-0.021-1.927-0.035-2.876-0.035l-6.957-0.07
	c-1.046,0-2.086,0.084-3.125,0.25c-1.043,0.164-1.978,0.496-2.805,0.992c-0.83,0.5-1.491,1.148-1.99,1.951
	c-0.497,0.809-0.742,1.848-0.742,3.127c0,1.232,0.129,2.211,0.388,2.945c0.259,0.736,0.64,1.291,1.135,1.67
	c0.499,0.379,1.148,0.615,1.952,0.711c0.805,0.094,1.776,0.141,2.913,0.141c0.946,0,1.905-0.057,2.875-0.178
	c0.969-0.117,1.927-0.178,2.877-0.178c0.472,0,1.004,0.025,1.599,0.07c0.589,0.049,1.169,0.156,1.736,0.32
	c0.569,0.166,1.03,0.416,1.385,0.746c0.357,0.332,0.532,0.828,0.532,1.492c0,0.379-0.223,0.674-0.671,0.887
	c-0.454,0.213-0.985,0.379-1.602,0.498c-0.613,0.117-1.205,0.189-1.773,0.213c-0.568,0.025-1.017,0.033-1.348,0.033
	c-0.949,0-1.917-0.07-2.91-0.213c-0.997-0.141-1.99-0.213-2.985-0.213c-1.99,0-3.576,0.381-4.758,1.139
	c-1.184,0.754-1.774,2.225-1.774,4.4c0,2.178,0.354,3.74,1.064,4.688c0.71,0.947,2.225,1.418,4.545,1.418
	c0.992,0,1.976-0.033,2.946-0.105c0.971-0.07,1.929-0.107,2.875-0.107c0.805,0,1.611,0.025,2.416,0.074
	c0.806,0.045,1.632,0.162,2.483,0.352c0.379,0.098,0.736,0.238,1.064,0.428c0.331,0.189,0.499,0.545,0.499,1.066
	c0,0.238-0.023,0.533-0.072,0.885c-0.048,0.357-0.234,0.535-0.565,0.535c-2.417,0-4.829,0.141-7.245,0.426
	c-2.414,0.283-4.555,0.91-6.424,1.883c-1.873,0.971-3.409,2.365-4.618,4.188c-1.208,1.824-1.812,4.25-1.812,7.279
	c0,2.225,0.474,4.225,1.421,6c0.946,1.775,2.188,3.291,3.728,4.545c1.538,1.254,3.289,2.201,5.255,2.838
	c1.965,0.641,3.988,0.959,6.071,0.959c2.888,0,5.291-0.379,7.208-1.135c1.918-0.758,3.467-1.609,4.65-2.557
	c1.182-0.947,2.12-1.834,2.805-2.662c0.686-0.828,1.266-1.266,1.741-1.314c0.187,0.141,0.531,0.391,1.028,0.746
	c0.496,0.355,1.006,0.732,1.527,1.137c0.522,0.402,1.019,0.744,1.491,1.029c0.474,0.283,0.782,0.428,0.923,0.428
	c0.331,0,0.736-0.049,1.206-0.145c0.427-0.332,0.985-0.805,1.671-1.422c0.688-0.613,1.374-1.277,2.06-1.984
	c0.685-0.711,1.266-1.41,1.74-2.098c0.475-0.684,0.733-1.336,0.782-1.951c0.091-1.326-0.12-2.461-0.638-3.408
	c-0.522-0.947-1.188-1.787-1.989-2.521c-0.808-0.73-1.693-1.408-2.666-2.023c-0.969-0.613-1.879-1.219-2.733-1.811
	c-0.853-0.592-1.55-1.254-2.095-1.988c-0.544-0.732-0.815-1.598-0.815-2.592c0-0.709,0.07-1.537,0.214-2.486
	c0.141-0.943,0.52-1.609,1.136-1.986c0.329-0.238,0.813-0.4,1.455-0.5c0.638-0.094,1.314-0.15,2.023-0.176
	c0.71-0.023,1.395-0.037,2.062-0.037c0.66,0,1.227,0,1.702,0c1.419-0.094,2.344-0.469,2.771-1.135
	c0.426-0.66,0.637-1.654,0.637-2.98C313.825,336.869,313.413,335.129,312.582,334.111z M286.958,362.49
	c-0.726,1.455-2.001,2.184-3.823,2.184c-0.658,0-1.405-0.039-2.237-0.111c-0.84-0.07-1.606-0.234-2.294-0.49
	c-0.698-0.256-1.256-0.656-1.692-1.201c-0.438-0.541-0.657-1.256-0.657-2.129c0-0.947,0.237-1.693,0.712-2.238
	c0.47-0.547,1.069-0.945,1.8-1.199c0.726-0.254,1.529-0.436,2.399-0.551c0.876-0.105,1.64-0.162,2.296-0.162h2.399
	c0.509,0,1.002,0.076,1.475,0.219c0.477,0.145,0.712,0.547,0.712,1.203C288.049,359.541,287.684,361.035,286.958,362.49z" class="DOwcKPUU_14"></path>
<path fill="none" stroke="#000000" d="M385.295,334.111c-0.827-1.018-2.495-1.527-5.003-1.527c-0.383,0-0.901,0.014-1.564,0.035
	c-0.662,0.027-1.326-0.01-1.988-0.105c-0.661-0.096-1.229-0.262-1.704-0.498c-0.475-0.234-0.709-0.637-0.709-1.205
	c0-0.803,0.225-1.338,0.674-1.6c0.45-0.258,1.006-0.391,1.668-0.391c0.712,0,1.362,0.039,1.951,0.107
	c0.595,0.07,1.246,0.105,1.955,0.105c0.476,0,0.993-0.021,1.562-0.068c0.568-0.049,1.101-0.166,1.599-0.355
	c0.494-0.189,0.911-0.473,1.242-0.854c0.33-0.379,0.498-0.898,0.498-1.562c0-0.709-0.035-1.443-0.105-2.201
	c-0.074-0.758-0.201-1.465-0.393-2.129c-0.235-0.805-0.628-1.445-1.17-1.92c-0.547-0.471-1.151-0.852-1.812-1.133
	c-0.901-0.379-2.106-0.686-3.62-0.924c-1.517-0.236-3.09-0.414-4.725-0.533c-1.632-0.117-3.229-0.199-4.791-0.248
	c-1.562-0.047-2.913-0.096-4.047-0.145c-0.948-0.045-1.908-0.08-2.876-0.105c-0.974-0.021-1.928-0.035-2.877-0.035l-6.956-0.07
	c-1.046,0-2.086,0.084-3.127,0.25c-1.042,0.164-1.978,0.496-2.804,0.992c-0.829,0.5-1.491,1.148-1.989,1.951
	c-0.497,0.809-0.744,1.848-0.744,3.127c0,1.232,0.13,2.211,0.39,2.945c0.258,0.736,0.639,1.291,1.136,1.67
	c0.498,0.379,1.147,0.615,1.95,0.711c0.807,0.094,1.777,0.141,2.913,0.141c0.947,0,1.905-0.057,2.876-0.178
	c0.969-0.117,1.928-0.178,2.877-0.178c0.472,0,1.005,0.025,1.6,0.07c0.589,0.049,1.17,0.156,1.734,0.32
	c0.571,0.166,1.031,0.416,1.386,0.746c0.357,0.332,0.533,0.828,0.533,1.492c0,0.379-0.224,0.674-0.672,0.887
	c-0.453,0.213-0.985,0.379-1.601,0.498c-0.615,0.117-1.207,0.189-1.774,0.213c-0.568,0.025-1.017,0.033-1.348,0.033
	c-0.949,0-1.917-0.07-2.91-0.213c-0.996-0.141-1.988-0.213-2.984-0.213c-1.989,0-3.576,0.381-4.758,1.139
	c-1.185,0.754-1.773,2.225-1.773,4.4c0,2.178,0.354,3.74,1.064,4.688c0.709,0.947,2.224,1.418,4.544,1.418
	c0.993,0,1.976-0.033,2.946-0.105c0.972-0.07,1.93-0.107,2.874-0.107c0.806,0,1.61,0.025,2.417,0.074
	c0.805,0.045,1.632,0.162,2.483,0.352c0.379,0.098,0.736,0.238,1.063,0.428c0.331,0.189,0.499,0.545,0.499,1.066
	c0,0.238-0.023,0.533-0.071,0.885c-0.049,0.357-0.235,0.535-0.566,0.535c-2.416,0-4.828,0.141-7.243,0.426
	c-2.414,0.283-4.556,0.91-6.426,1.883c-1.872,0.971-3.408,2.365-4.616,4.188c-1.208,1.824-1.812,4.25-1.812,7.279
	c0,2.225,0.475,4.225,1.422,6c0.946,1.775,2.188,3.291,3.728,4.545s3.289,2.201,5.254,2.838c1.967,0.641,3.989,0.959,6.073,0.959
	c2.888,0,5.29-0.379,7.207-1.135c1.918-0.758,3.467-1.609,4.65-2.557c1.182-0.947,2.119-1.834,2.805-2.662
	c0.687-0.828,1.266-1.266,1.74-1.314c0.188,0.141,0.532,0.391,1.029,0.746c0.495,0.355,1.007,0.732,1.526,1.137
	c0.522,0.402,1.02,0.744,1.491,1.029c0.475,0.283,0.781,0.428,0.923,0.428c0.331,0,0.735-0.049,1.205-0.145
	c0.428-0.332,0.985-0.805,1.672-1.422c0.687-0.613,1.373-1.277,2.058-1.984c0.687-0.711,1.267-1.41,1.741-2.098
	c0.475-0.684,0.733-1.336,0.781-1.951c0.092-1.326-0.119-2.461-0.638-3.408c-0.522-0.947-1.189-1.787-1.99-2.521
	c-0.807-0.73-1.691-1.408-2.664-2.023c-0.969-0.613-1.881-1.219-2.733-1.811c-0.854-0.592-1.552-1.254-2.096-1.988
	c-0.543-0.732-0.814-1.598-0.814-2.592c0-0.709,0.069-1.537,0.214-2.486c0.142-0.943,0.521-1.609,1.136-1.986
	c0.328-0.238,0.812-0.4,1.455-0.5c0.638-0.094,1.313-0.15,2.023-0.176c0.709-0.023,1.395-0.037,2.062-0.037c0.658,0,1.227,0,1.702,0
	c1.418-0.094,2.344-0.469,2.77-1.135c0.428-0.66,0.639-1.654,0.639-2.98C386.539,336.869,386.127,335.129,385.295,334.111z
	 M359.672,362.49c-0.726,1.455-2.002,2.184-3.823,2.184c-0.656,0-1.404-0.039-2.237-0.111c-0.838-0.07-1.605-0.234-2.293-0.49
	c-0.698-0.256-1.256-0.656-1.692-1.201c-0.439-0.541-0.657-1.256-0.657-2.129c0-0.947,0.237-1.693,0.713-2.238
	c0.469-0.547,1.069-0.945,1.8-1.199c0.727-0.254,1.529-0.436,2.399-0.551c0.877-0.105,1.64-0.162,2.296-0.162h2.399
	c0.508,0,1.003,0.076,1.475,0.219c0.478,0.145,0.712,0.547,0.712,1.203C360.763,359.541,360.398,361.035,359.672,362.49z" class="DOwcKPUU_15"></path>
<path fill="none" stroke="#000000" d="M334.062,316.18c1.091,0,2.129,0.229,3.126,0.676c0.992,0.451,1.491,1.314,1.491,2.592
	c0,2.037-0.153,4.049-0.463,6.037s-0.65,4-1.028,6.035c-0.379,2.227-0.709,4.428-0.997,6.604c-0.28,2.178-0.422,4.404-0.422,6.676
	c0,2.414,0.105,4.816,0.316,7.207c0.216,2.389,0.51,4.77,0.889,7.135c0.283,1.801,0.64,3.539,1.067,5.219
	c0.424,1.682,0.638,3.445,0.638,5.291c0,0.854-0.202,1.539-0.604,2.059c-0.403,0.523-0.896,0.902-1.49,1.139
	c-0.596,0.234-1.255,0.377-1.99,0.424c-0.734,0.047-1.429,0.072-2.096,0.072c-1.561,0-2.897-0.57-4.01-1.703
	c-1.115-1.137-2.06-2.617-2.841-4.439s-1.395-3.846-1.845-6.072c-0.451-2.223-0.806-4.412-1.065-6.568
	c-0.264-2.152-0.426-4.164-0.499-6.037c-0.068-1.865-0.104-3.346-0.104-4.436c0-0.945,0.047-2.307,0.144-4.082
	c0.091-1.775,0.293-3.693,0.602-5.75c0.309-2.061,0.685-4.168,1.133-6.322c0.451-2.152,1.045-4.094,1.779-5.822
	c0.731-1.727,1.62-3.148,2.66-4.26c1.043-1.113,2.248-1.672,3.622-1.672H334.062z" class="DOwcKPUU_16"></path>
<path fill="none" stroke="#000000" d="M497.238,311.637c0.522,0,1.03,0.014,1.528,0.037c0.497,0.023,1.007,0.035,1.525,0.035
	c0.853,0,1.857,0.07,3.018,0.215c1.162,0.141,2.025,0.564,2.591,1.277c0.379,0.424,0.56,0.92,0.533,1.49
	c-0.021,0.568-0.034,1.125-0.034,1.668c0,0.545,0.082,1.092,0.25,1.633c0.163,0.545,0.624,1.008,1.385,1.387
	c0.47,0.236,1.004,0.402,1.597,0.494c0.59,0.098,1.146,0.168,1.669,0.215c0.805,0.047,1.61,0.084,2.415,0.105
	c0.804,0.025,1.606,0.035,2.414,0.035c0.899,0,1.906,0,3.019,0c1.109,0,2.21,0.072,3.298,0.213c1.089,0.143,2.109,0.428,3.054,0.854
	c0.947,0.426,1.684,1.041,2.206,1.848c0.611,0.945,1.037,2.082,1.275,3.404c0.237,1.326,0.355,2.535,0.355,3.623
	c0,0.949-0.013,1.881-0.034,2.805c-0.026,0.926-0.036,1.859-0.036,2.805c0,2.271,0.142,3.895,0.424,4.863
	c0.283,0.973,0.628,1.623,1.028,1.953c0.405,0.334,0.854,0.475,1.35,0.428c0.499-0.045,0.947-0.01,1.353,0.105
	c0.4,0.119,0.758,0.463,1.064,1.031c0.307,0.566,0.46,1.68,0.46,3.336c0,0.568-0.023,1.127-0.069,1.668
	c-0.049,0.547-0.165,1.078-0.357,1.6c-0.187,0.613-0.508,1.064-0.959,1.35c-0.448,0.281-0.935,0.471-1.455,0.568
	c-0.474,0.092-1.239,0.152-2.307,0.176c-1.063,0.025-2.274,0.061-3.621,0.105c-1.348,0.049-2.747,0.121-4.19,0.215
	c-1.442,0.096-2.795,0.236-4.046,0.424c-1.256,0.191-2.263,0.451-3.021,0.783c-0.755,0.332-1.134,0.734-1.134,1.207
	c0,0.664,0.427,1.35,1.278,2.059c0.851,0.709,1.95,1.418,3.302,2.131c1.348,0.709,2.793,1.422,4.332,2.129
	c1.537,0.711,2.982,1.422,4.329,2.131c1.35,0.711,2.462,1.41,3.339,2.096c0.876,0.686,1.312,1.312,1.312,1.881
	c0,0.617-0.211,1.375-0.638,2.271c-0.428,0.9-0.948,1.764-1.562,2.594c-0.618,0.826-1.315,1.537-2.095,2.131
	c-0.783,0.588-1.527,0.887-2.239,0.887c-1.562,0-3.194-0.379-4.896-1.137c-1.707-0.758-3.402-1.682-5.077-2.77
	c-1.681-1.09-3.282-2.283-4.797-3.586c-1.513-1.301-2.92-2.508-4.224-3.621c-1.3-1.113-2.414-2.035-3.337-2.77
	c-0.925-0.732-1.644-1.102-2.164-1.102c-0.478,0-1.242,0.369-2.31,1.102c-1.066,0.734-2.305,1.668-3.727,2.805
	c-1.423,1.137-2.996,2.342-4.72,3.623c-1.73,1.277-3.481,2.473-5.26,3.582c-1.773,1.115-3.548,2.051-5.321,2.805
	c-1.778,0.758-3.424,1.139-4.938,1.139c-0.708,0-1.435-0.297-2.163-0.889c-0.735-0.592-1.424-1.312-2.062-2.164
	c-0.641-0.854-1.16-1.729-1.561-2.629c-0.404-0.896-0.606-1.654-0.606-2.271c0-0.568,0.441-1.195,1.313-1.881
	c0.877-0.686,1.99-1.385,3.342-2.096c1.345-0.709,2.791-1.42,4.329-2.131c1.539-0.707,2.981-1.408,4.332-2.092
	c1.348-0.689,2.459-1.363,3.334-2.025c0.878-0.662,1.315-1.256,1.315-1.775c0-0.711-0.601-1.266-1.812-1.67
	c-1.206-0.4-2.577-0.674-4.118-0.816c-1.539-0.141-3.04-0.213-4.51-0.213c-1.467,0-2.438,0-2.91,0c-1.229,0-2.413-0.072-3.553-0.213
	c-0.469-0.094-0.896-0.188-1.274-0.283c-0.379-0.094-0.758-0.285-1.136-0.568c-0.806-0.711-1.313-1.607-1.528-2.699
	c-0.213-1.088-0.318-2.105-0.318-3.053c0-0.996,0.118-1.811,0.355-2.447c0.234-0.641,0.923-0.961,2.059-0.961
	c0.427,0,0.803-0.143,1.135-0.426c0.329-0.285,0.579-0.639,0.747-1.066c0.163-0.424,0.307-0.859,0.424-1.311
	c0.118-0.451,0.202-0.865,0.25-1.244c0.237-1.324,0.367-2.664,0.391-4.014c0.023-1.346,0.082-2.709,0.177-4.082
	c0.049-0.943,0.12-2.092,0.211-3.445c0.097-1.346,0.336-2.422,0.715-3.23c0.471-1.182,1.239-2.059,2.307-2.625
	c1.065-0.568,2.236-0.959,3.514-1.172c1.28-0.213,2.569-0.307,3.869-0.285c1.305,0.025,2.474,0.035,3.517,0.035
	c1.133,0,2.381-0.07,3.728-0.211c1.35-0.145,2.497-0.498,3.441-1.066c0.571-0.33,0.947-0.746,1.137-1.244
	c0.189-0.496,0.285-1.027,0.285-1.596c0-1.467,0.309-2.58,0.924-3.338C494.587,312.016,495.678,311.637,497.238,311.637z
	 M490.564,343.023c0.994,0,1.645-0.344,1.953-1.029c0.31-0.688,0.462-1.434,0.462-2.236c0-0.711,0.011-1.396,0.034-2.059
	c0.024-0.664,0.036-1.352,0.036-2.062c0-1.891-0.427-3.158-1.277-3.799c-0.851-0.639-2.179-0.957-3.975-0.957h-2.062
	c-0.618,0-1.124,0.211-1.529,0.639c-0.397,0.426-0.733,0.959-0.989,1.596c-0.262,0.641-0.428,1.316-0.497,2.027
	c-0.073,0.709-0.11,1.301-0.11,1.773c0,1.041,0.026,1.953,0.072,2.734c0.049,0.779,0.234,1.432,0.57,1.951
	c0.331,0.521,0.827,0.887,1.491,1.1c0.662,0.215,1.633,0.322,2.909,0.322H490.564z M516.908,334.502
	c0-0.852-0.168-1.537-0.498-2.061c-0.329-0.52-0.743-0.887-1.239-1.1c-0.497-0.213-1.091-0.342-1.777-0.391
	c-0.685-0.045-1.36-0.07-2.022-0.07c-1.704,0-2.886,0.248-3.553,0.746c-0.661,0.496-0.992,1.645-0.992,3.441v6.182
	c0,0.754,0.249,1.238,0.748,1.451c0.493,0.215,1.05,0.322,1.666,0.322h3.977c1.606,0,2.628-0.461,3.054-1.387
	c0.427-0.922,0.638-2.068,0.638-3.443V334.502z" class="DOwcKPUU_17"></path>
<path fill="none" stroke="#000000" d="M322.539,314.65c-0.041,0-0.099,0-0.136,0.01l-4.272,0.357l4.099-1.242
	c0.422-0.135,0.787-0.434,0.976-0.832c0.189-0.396,0.206-0.865,0.041-1.279l-0.334-0.826c-0.24-0.609-0.824-1.008-1.466-1.008
	c-0.247,0-0.499,0.062-0.724,0.172l-4.706,2.357l4.022-3.395c0.35-0.287,0.546-0.707,0.565-1.145
	c0.024-0.439-0.148-0.873-0.467-1.193L319.506,306c-0.297-0.303-0.7-0.473-1.117-0.473c-0.47,0-0.916,0.207-1.212,0.572
	l-2.771,3.275l2.025-3.785c0.208-0.396,0.24-0.863,0.099-1.275c-0.146-0.416-0.465-0.754-0.876-0.936l-0.821-0.352
	c-0.202-0.084-0.417-0.127-0.633-0.127c-0.681,0-1.29,0.436-1.501,1.088l-1.663,4.998l0.443-5.244
	c0.034-0.451-0.107-0.889-0.411-1.219c-0.301-0.322-0.73-0.512-1.174-0.512h-0.885c-0.451,0-0.879,0.189-1.182,0.512
	c-0.293,0.33-0.447,0.768-0.402,1.219l0.352,4.27l-1.242-4.102c-0.206-0.676-0.81-1.133-1.513-1.133
	c-0.206,0-0.407,0.039-0.597,0.121l-0.83,0.324c-0.412,0.162-0.743,0.5-0.898,0.912c-0.159,0.414-0.132,0.879,0.066,1.279
	l2.361,4.707l-3.399-4.021c-0.305-0.365-0.75-0.572-1.215-0.572c-0.42,0-0.825,0.17-1.123,0.473l-0.63,0.627
	c-0.321,0.32-0.495,0.754-0.472,1.193c0.019,0.438,0.235,0.857,0.567,1.145l3.284,2.764l-3.79-2.02
	c-0.229-0.115-0.5-0.186-0.75-0.186c-0.635,0-1.208,0.381-1.46,0.963l-0.345,0.818c-0.18,0.41-0.172,0.879,0.003,1.281
	c0.174,0.4,0.535,0.715,0.957,0.855l4.995,1.666l-5.25-0.447c-0.043-0.01-0.095-0.01-0.136-0.01c-0.894,0-1.587,0.703-1.587,1.59
	v0.891c0,0.891,0.693,1.59,1.587,1.59c0.041,0,0.093-0.004,0.136-0.004l4.275-0.363l-4.102,1.246
	c-0.427,0.133-0.787,0.436-0.976,0.836c-0.189,0.395-0.206,0.859-0.031,1.279l0.319,0.822c0.245,0.611,0.824,1.008,1.471,1.008
	c0.247,0,0.499-0.062,0.724-0.176l4.701-2.354l-4.025,3.395c-0.333,0.289-0.549,0.707-0.567,1.146
	c-0.022,0.439,0.151,0.881,0.472,1.193l0.63,0.627c0.298,0.307,0.703,0.473,1.123,0.473c0.465,0,0.91-0.209,1.215-0.57l2.764-3.279
	l-2.011,3.779c-0.211,0.398-0.254,0.863-0.105,1.283c0.143,0.414,0.462,0.752,0.873,0.932l0.822,0.352
	c0.203,0.086,0.417,0.131,0.635,0.131c0.671,0,1.278-0.441,1.498-1.088l1.667-4.996l-0.443,5.24
	c-0.044,0.453,0.109,0.895,0.402,1.219c0.302,0.324,0.731,0.51,1.182,0.51h0.885c0.443,0,0.873-0.186,1.174-0.51
	c0.303-0.324,0.444-0.766,0.411-1.219l-0.363-4.27l1.25,4.102c0.206,0.682,0.81,1.133,1.507,1.133c0.211,0,0.408-0.037,0.602-0.113
	l0.825-0.33c0.417-0.164,0.75-0.498,0.899-0.91c0.156-0.414,0.136-0.881-0.069-1.277l-2.352-4.711l3.399,4.023
	c0.297,0.361,0.743,0.57,1.212,0.57c0.417,0,0.82-0.166,1.117-0.473l0.631-0.627c0.319-0.312,0.492-0.754,0.467-1.193
	c-0.02-0.439-0.215-0.857-0.565-1.146l-3.273-2.766l3.776,2.021c0.235,0.119,0.504,0.189,0.76,0.189
	c0.631,0,1.201-0.381,1.453-0.971l0.35-0.812c0.182-0.412,0.177-0.879-0.008-1.279c-0.177-0.408-0.526-0.717-0.948-0.861
	l-4.992-1.658l5.246,0.443c0.038,0,0.095,0.004,0.136,0.004c0.422,0,0.824-0.162,1.124-0.457c0.297-0.303,0.458-0.699,0.458-1.133
	v-0.891C324.12,315.354,323.425,314.65,322.539,314.65z" class="DOwcKPUU_18"></path>
<path fill="none" stroke="#000000" d="M397.541,314.363c-0.039,0-0.098,0-0.136,0.01l-4.271,0.357l4.099-1.242
	c0.422-0.135,0.786-0.434,0.976-0.832c0.189-0.396,0.206-0.865,0.041-1.279l-0.334-0.828c-0.239-0.609-0.824-1.006-1.466-1.006
	c-0.247,0-0.499,0.061-0.725,0.172l-4.705,2.357l4.022-3.395c0.35-0.287,0.547-0.707,0.565-1.146
	c0.024-0.439-0.148-0.871-0.468-1.191l-0.631-0.627c-0.297-0.303-0.699-0.473-1.116-0.473c-0.47,0-0.916,0.205-1.213,0.572
	l-2.771,3.275l2.025-3.785c0.209-0.396,0.24-0.863,0.099-1.275c-0.146-0.414-0.465-0.752-0.875-0.936l-0.822-0.352
	c-0.201-0.084-0.417-0.129-0.633-0.129c-0.681,0-1.29,0.438-1.501,1.09l-1.663,4.998l0.443-5.246
	c0.034-0.449-0.107-0.889-0.409-1.217c-0.303-0.324-0.731-0.514-1.175-0.514h-0.885c-0.451,0-0.88,0.189-1.182,0.514
	c-0.293,0.328-0.446,0.768-0.403,1.217l0.353,4.27l-1.242-4.102c-0.206-0.676-0.81-1.131-1.513-1.131
	c-0.205,0-0.407,0.039-0.597,0.119l-0.828,0.326c-0.413,0.16-0.744,0.498-0.899,0.912c-0.159,0.414-0.132,0.879,0.066,1.279
	l2.361,4.705l-3.398-4.02c-0.305-0.367-0.751-0.572-1.216-0.572c-0.42,0-0.824,0.17-1.122,0.473l-0.63,0.627
	c-0.321,0.32-0.494,0.752-0.473,1.191c0.019,0.439,0.235,0.859,0.567,1.146l3.284,2.764l-3.789-2.018
	c-0.23-0.119-0.501-0.188-0.75-0.188c-0.635,0-1.209,0.381-1.461,0.963l-0.345,0.818c-0.18,0.408-0.172,0.879,0.003,1.281
	c0.175,0.4,0.534,0.715,0.956,0.854l4.996,1.666l-5.25-0.445c-0.043-0.01-0.096-0.01-0.137-0.01c-0.895,0-1.586,0.703-1.586,1.59
	v0.891c0,0.891,0.691,1.59,1.586,1.59c0.041,0,0.094-0.004,0.137-0.004l4.273-0.363l-4.101,1.248
	c-0.427,0.131-0.787,0.432-0.977,0.832c-0.189,0.396-0.206,0.861-0.03,1.281l0.318,0.822c0.245,0.611,0.825,1.006,1.473,1.006
	c0.247,0,0.498-0.062,0.723-0.174l4.702-2.354l-4.026,3.393c-0.332,0.291-0.549,0.709-0.567,1.148
	c-0.021,0.439,0.151,0.879,0.473,1.191l0.63,0.629c0.298,0.307,0.702,0.473,1.122,0.473c0.465,0,0.911-0.209,1.216-0.572
	l2.764-3.277l-2.011,3.779c-0.211,0.398-0.255,0.863-0.105,1.283c0.143,0.414,0.463,0.752,0.872,0.932l0.822,0.35
	c0.204,0.086,0.417,0.133,0.635,0.133c0.671,0,1.278-0.441,1.498-1.088l1.667-4.996l-0.444,5.24
	c-0.043,0.453,0.11,0.895,0.403,1.217c0.302,0.326,0.73,0.51,1.182,0.51h0.885c0.443,0,0.872-0.184,1.175-0.51
	c0.302-0.322,0.443-0.764,0.409-1.217l-0.361-4.27l1.248,4.102c0.206,0.682,0.811,1.131,1.509,1.131
	c0.211,0,0.406-0.035,0.601-0.111l0.825-0.332c0.417-0.164,0.75-0.496,0.898-0.908c0.156-0.414,0.137-0.883-0.069-1.277
	l-2.352-4.711l3.399,4.021c0.297,0.363,0.743,0.572,1.213,0.572c0.417,0,0.819-0.166,1.116-0.473l0.631-0.629
	c0.319-0.312,0.492-0.752,0.468-1.191c-0.019-0.439-0.216-0.857-0.565-1.148l-3.272-2.764l3.776,2.021
	c0.234,0.121,0.503,0.189,0.76,0.189c0.63,0,1.2-0.381,1.452-0.971l0.35-0.812c0.183-0.414,0.178-0.881-0.007-1.281
	c-0.177-0.406-0.527-0.717-0.949-0.859l-4.991-1.658l5.245,0.443c0.038,0,0.097,0.004,0.136,0.004c0.422,0,0.825-0.164,1.125-0.459
	c0.297-0.301,0.458-0.699,0.458-1.131v-0.891C399.124,315.066,398.429,314.363,397.541,314.363z" class="DOwcKPUU_19"></path>
<path fill="none" stroke="#000000" d="M209.888,286.779c-0.199,0.543-0.59,1.201-1.172,1.982c-0.582,0.781-1.27,1.596-2.065,2.451
	c-0.796,0.85-1.661,1.682-2.599,2.49c-0.937,0.809-1.867,1.533-2.79,2.174c-0.923,0.639-1.82,1.166-2.685,1.576
	c-0.866,0.41-1.611,0.617-2.237,0.617c-0.738,0-1.455-0.207-2.149-0.617c-0.699-0.41-1.332-0.932-1.896-1.555
	c-0.571-0.625-1.024-1.314-1.364-2.066c-0.34-0.754-0.51-1.484-0.51-2.195c0-0.396,0.225-0.746,0.68-1.043
	c0.454-0.297,1.037-0.598,1.748-0.895c0.71-0.299,1.461-0.633,2.258-1.002c0.792-0.369,1.538-0.803,2.236-1.299
	c0.694-0.496,1.277-1.102,1.745-1.811c0.469-0.709,0.705-1.562,0.705-2.557c0-0.312-0.145-0.562-0.427-0.746
	c-0.285-0.184-0.612-0.326-0.98-0.428c-0.37-0.098-0.752-0.162-1.151-0.191c-0.397-0.025-0.709-0.041-0.937-0.041
	c-1.021,0-2.06,0.029-3.109,0.084c-1.052,0.059-2.088,0.086-3.111,0.086c-0.595,0-1.285-0.043-2.066-0.129
	c-0.782-0.084-1.52-0.26-2.215-0.531c-0.695-0.27-1.27-0.652-1.726-1.15c-0.454-0.496-0.681-1.143-0.681-1.938
	c0-0.34,0.014-0.662,0.043-0.959c0.026-0.301,0.084-0.604,0.17-0.916c0.084-0.34,0.254-0.604,0.511-0.787
	c0.256-0.186,0.54-0.35,0.853-0.49c0.424-0.199,1.141-0.365,2.151-0.492c1.009-0.127,2.074-0.217,3.195-0.275
	c1.123-0.057,2.215-0.107,3.282-0.15c1.064-0.041,1.879-0.062,2.45-0.062c1.675,0,3.351,0.008,5.027,0.021
	c1.675,0.016,3.351,0.021,5.026,0.021c0.312,0,0.611-0.006,0.894-0.021c0.286-0.014,0.568-0.035,0.853-0.064
	c0.681-0.027,1.343-0.049,1.98-0.064c0.64-0.016,1.271-0.021,1.896-0.021c0.796,0,1.676,0.006,2.641,0.021
	c0.966,0.016,1.933,0.08,2.898,0.191c0.963,0.115,1.911,0.277,2.833,0.492c0.923,0.213,1.697,0.518,2.32,0.916
	c0.683,0.426,1.052,0.857,1.107,1.297c0.057,0.441,0.086,1.004,0.086,1.684c0,0.768-0.191,1.357-0.575,1.77
	c-0.384,0.41-0.887,0.717-1.513,0.916c-0.625,0.199-1.321,0.326-2.088,0.383c-0.767,0.059-1.541,0.092-2.32,0.105
	c-0.782,0.016-1.534,0.059-2.258,0.127c-0.726,0.072-1.342,0.221-1.855,0.449c-0.681,0.709-1.227,1.477-1.64,2.301
	c-0.412,0.824-0.916,1.619-1.513,2.385L209.888,286.779z M211.04,262.197c-0.029-0.057-0.073-0.156-0.127-0.297
	c-0.059-0.143-0.087-0.242-0.087-0.301c0-0.225,0.142-0.453,0.427-0.68c0.283-0.229,0.617-0.434,1-0.619
	c0.384-0.186,0.767-0.34,1.151-0.467c0.383-0.129,0.662-0.191,0.832-0.191c0.34,0,0.746,0.227,1.213,0.68
	c0.47,0.455,0.918,1.002,1.342,1.641c0.427,0.641,0.796,1.273,1.108,1.895c0.313,0.627,0.469,1.109,0.469,1.451
	c0,0.312-0.079,0.547-0.234,0.701c-0.156,0.156-0.347,0.291-0.576,0.406c-0.228,0.113-0.462,0.221-0.702,0.318
	c-0.243,0.102-0.448,0.221-0.619,0.363c-0.112,0.115-0.199,0.277-0.255,0.488c-0.057,0.213-0.107,0.455-0.15,0.727
	c-0.041,0.27-0.105,0.525-0.191,0.764c-0.084,0.244-0.229,0.449-0.425,0.619c-0.143,0.115-0.513,0.213-1.107,0.301
	c-0.597,0.084-1.251,0.141-1.961,0.17c-0.71,0.027-1.393,0.049-2.044,0.062c-0.656,0.014-1.108,0.021-1.364,0.021h-14.57
	c-0.512,0-1.066-0.021-1.663-0.062c-0.595-0.043-1.155-0.156-1.683-0.344c-0.525-0.184-0.957-0.475-1.3-0.873
	c-0.34-0.396-0.51-0.922-0.51-1.576c0-0.738,0.113-1.471,0.34-2.193c0.228-0.725,0.683-1.27,1.364-1.641h-0.043
	c0.483-0.256,1.312-0.447,2.493-0.574c1.176-0.127,2.435-0.213,3.771-0.256s2.605-0.062,3.813-0.062c1.207,0,2.107,0,2.704,0h5.88
	c0.084,0,0.214-0.008,0.384-0.021c0.17-0.016,0.354-0.037,0.554-0.064c0.199-0.029,0.376-0.078,0.531-0.15
	c0.157-0.072,0.25-0.148,0.279-0.234H211.04z M222.414,266.971c-0.254,0-0.63-0.221-1.129-0.662
	c-0.496-0.439-0.985-0.959-1.47-1.557c-0.481-0.594-0.894-1.184-1.234-1.766c-0.341-0.584-0.513-1.002-0.513-1.256
	c0-0.344,0.101-0.648,0.299-0.92c0.2-0.268,0.454-0.494,0.768-0.68c0.311-0.186,0.637-0.348,0.98-0.488
	c0.34-0.143,0.652-0.229,0.937-0.258c0.396-0.057,0.851,0.15,1.362,0.619c0.513,0.467,0.995,1.021,1.45,1.66
	c0.453,0.641,0.851,1.279,1.191,1.918c0.341,0.639,0.513,1.145,0.513,1.514c0,0.281-0.115,0.547-0.343,0.785
	c-0.228,0.242-0.51,0.436-0.851,0.576c-0.34,0.143-0.69,0.264-1.045,0.361C222.974,266.92,222.67,266.971,222.414,266.971z" class="DOwcKPUU_20"></path>
<path fill="none" stroke="#000000" d="M265.743,268.418c0.229,0.994,0.275,1.824,0.148,2.492s-0.397,1.221-0.81,1.662
	c-0.41,0.441-0.944,0.795-1.597,1.064c-0.654,0.271-1.364,0.477-2.131,0.617c-0.51,0.199-0.973,0.342-1.382,0.428
	c-0.413,0.084-0.803,0.184-1.173,0.297c-0.368,0.115-0.724,0.25-1.064,0.406c-0.343,0.154-0.668,0.404-0.98,0.744
	c-0.568,0.598-0.959,1.35-1.172,2.258c-0.214,0.91-0.333,1.854-0.363,2.834c-0.028,0.98,0,1.975,0.084,2.982
	c0.087,1.01,0.13,1.91,0.13,2.705c0,0.541,0.062,1.301,0.191,2.277c0.127,0.98,0.206,1.963,0.234,2.941
	c0.027,0.98-0.036,1.883-0.191,2.705c-0.158,0.824-0.492,1.35-1.001,1.578c-0.511,0.227-1.024,0.389-1.534,0.488
	c-0.511,0.1-1.002,0.154-1.469,0.172c-0.47,0.012-0.894,0.004-1.278-0.021c-0.383-0.029-0.69-0.043-0.916-0.043
	c-0.625,0-1.223-0.029-1.791-0.086c-0.567-0.059-1.107-0.283-1.618-0.682c-0.342-0.312-0.589-0.873-0.746-1.682
	c-0.158-0.811-0.27-1.684-0.342-2.621c-0.07-0.938-0.098-1.859-0.084-2.768c0.014-0.91,0.021-1.578,0.021-2.006
	c0-0.568,0-1.205,0-1.916c0-0.709-0.08-1.355-0.235-1.938c-0.156-0.582-0.412-1.037-0.767-1.365
	c-0.354-0.324-0.916-0.389-1.683-0.191c-0.597,0.17-1.292,0.463-2.088,0.873c-0.795,0.412-1.611,0.824-2.449,1.238
	c-0.837,0.412-1.711,0.781-2.62,1.105c-0.91,0.328-1.789,0.49-2.642,0.49c-0.597,0-1.13-0.225-1.597-0.682
	c-0.47-0.451-0.86-1.002-1.171-1.639c-0.314-0.641-0.554-1.314-0.725-2.025c-0.17-0.711-0.256-1.322-0.256-1.832
	c0-0.879,0.3-1.604,0.894-2.172c0.116-0.113,0.547-0.301,1.3-0.555c0.752-0.256,1.69-0.574,2.812-0.957
	c1.122-0.383,2.337-0.781,3.644-1.195c1.306-0.408,2.562-0.809,3.771-1.193c1.207-0.381,2.287-0.729,3.238-1.043
	c0.952-0.311,1.611-0.539,1.98-0.68c1.676-0.654,3.281-1.438,4.815-2.346s3.066-1.844,4.6-2.811v0.043
	c0.256-0.17,0.611-0.406,1.067-0.703c0.453-0.299,0.928-0.604,1.426-0.918c0.497-0.311,0.985-0.572,1.47-0.785
	c0.482-0.215,0.865-0.322,1.151-0.322c0.397,0,0.858,0.182,1.385,0.535c0.524,0.354,1.028,0.787,1.513,1.299
	c0.481,0.51,0.916,1.035,1.3,1.576C265.425,267.594,265.657,268.049,265.743,268.418z" class="DOwcKPUU_21"></path>
<path fill="none" stroke="#000000" d="M291.946,285.375c0.851-0.539,1.491-1.158,1.915-1.854c0.427-0.697,0.727-1.451,0.897-2.258
	c0.17-0.811,0.254-1.668,0.254-2.578s0-1.832,0-2.77c0-0.229-0.127-0.391-0.383-0.488c-0.254-0.102-0.547-0.17-0.873-0.213
	c-0.327-0.045-0.647-0.074-0.959-0.088c-0.312-0.014-0.54-0.021-0.681-0.021c-0.426,0-0.817,0.008-1.171,0.021
	c-0.355,0.014-0.731,0.021-1.129,0.021c-0.71,0.029-1.313,0.178-1.81,0.449c-0.499,0.271-0.817,0.787-0.959,1.555
	c-0.057,0.398-0.08,0.766-0.065,1.107c0.016,0.342,0.022,0.695,0.022,1.064c0,1.422-0.384,2.352-1.151,2.791
	s-1.761,0.662-2.982,0.662c-0.285,0-0.64,0-1.064,0c-0.427,0-0.861-0.029-1.302-0.088c-0.439-0.057-0.858-0.148-1.256-0.275
	c-0.397-0.129-0.696-0.32-0.894-0.576c-0.17-0.227-0.297-0.537-0.383-0.936c-0.087-0.398-0.141-0.818-0.171-1.26
	c-0.029-0.438-0.043-0.871-0.043-1.299c0-0.426,0-0.793,0-1.107c0-0.738-0.22-1.24-0.659-1.512c-0.441-0.27-1.002-0.404-1.684-0.404
	c-0.285,0-0.563,0.006-0.832,0.021c-0.27,0.014-0.561,0.021-0.873,0.021c-0.881,0-1.512-0.215-1.896-0.641
	c-0.383-0.426-0.574-1.08-0.574-1.959c0-0.283,0.007-0.611,0.021-0.98c0.014-0.369,0.041-0.738,0.084-1.107s0.112-0.717,0.213-1.043
	c0.098-0.328,0.25-0.59,0.449-0.789c0.369-0.396,0.829-0.633,1.382-0.703c0.554-0.07,1.115-0.113,1.684-0.127
	c0.567-0.016,1.093-0.057,1.577-0.127c0.481-0.072,0.851-0.293,1.107-0.662c0.171-0.283,0.284-0.596,0.341-0.938
	c0.058-0.342,0.115-0.666,0.17-0.979c0.199-1.705,0.669-2.861,1.407-3.473s1.944-0.902,3.622-0.873h1.874
	c0.425,0,0.772,0.105,1.043,0.318c0.271,0.213,0.469,0.467,0.596,0.768c0.127,0.297,0.214,0.633,0.257,1.002
	c0.041,0.369,0.062,0.723,0.062,1.064v1.32c0,0.51,0.108,0.924,0.321,1.234c0.211,0.314,0.497,0.543,0.851,0.684
	c0.355,0.141,0.746,0.229,1.172,0.254c0.427,0.029,0.851,0.043,1.277,0.043c0.229,0,0.519,0,0.874,0
	c0.354,0,0.709-0.021,1.066-0.064c0.355-0.041,0.695-0.105,1.021-0.191c0.327-0.084,0.561-0.227,0.703-0.424
	c0.144-0.199,0.228-0.414,0.257-0.641c0.029-0.229,0.043-0.453,0.043-0.682v-2.387c0-0.652,0.17-1.135,0.51-1.447
	c0.341-0.312,0.745-0.533,1.215-0.66c0.468-0.129,0.981-0.191,1.534-0.191c0.554,0,1.058,0,1.512,0c0.88,0,1.604,0.041,2.172,0.127
	s1.023,0.285,1.364,0.598c0.34,0.311,0.58,0.738,0.724,1.277c0.142,0.539,0.228,1.277,0.254,2.215
	c0.029,0.227,0.05,0.455,0.065,0.682c0.014,0.229,0.091,0.455,0.235,0.682c0.283,0.539,0.651,0.895,1.107,1.064
	c0.453,0.17,0.937,0.271,1.448,0.301c0.513,0.027,1.023,0.068,1.534,0.127c0.51,0.057,0.973,0.24,1.386,0.553
	c0.41,0.314,0.746,0.824,1,1.535c0.256,0.709,0.384,1.746,0.384,3.107c0,0.428-0.107,0.783-0.32,1.066
	c-0.213,0.285-0.496,0.504-0.851,0.66c-0.357,0.156-0.74,0.258-1.15,0.301c-0.413,0.039-0.789,0.062-1.129,0.062
	c-0.314,0-0.633-0.01-0.958-0.023c-0.327-0.012-0.647-0.021-0.96-0.021c-0.141,0-0.306,0.01-0.488,0.021
	c-0.188,0.014-0.336,0.08-0.449,0.193c-0.17,0.113-0.263,0.277-0.277,0.49s-0.02,0.391-0.02,0.531c0,1.279-0.072,2.535-0.213,3.771
	c-0.145,1.234-0.413,2.465-0.81,3.686c-0.597,1.76-1.235,3.289-1.918,4.58c-0.681,1.293-1.575,2.414-2.685,3.365
	c-1.107,0.951-2.491,1.783-4.152,2.492c-1.664,0.711-3.758,1.377-6.285,2.004c-0.625,0.141-1.251,0.26-1.875,0.361
	c-0.626,0.1-1.263,0.148-1.918,0.148c-1.107,0-1.987-0.178-2.641-0.533c-0.652-0.354-1.144-0.85-1.47-1.49
	c-0.326-0.639-0.518-1.363-0.576-2.172c-0.057-0.811-0.057-1.654,0-2.537c-0.084-0.879,0.099-1.52,0.554-1.916
	s1.05-0.668,1.791-0.809c0.737-0.141,1.56-0.236,2.468-0.279c0.911-0.043,1.82-0.162,2.728-0.361c0.709-0.17,1.47-0.355,2.28-0.553
	C290.648,286.07,291.349,285.773,291.946,285.375z" class="DOwcKPUU_22"></path>
<path fill="none" stroke="#000000" d="M341.581,275.021c0.396,0,0.794-0.008,1.192-0.021c0.396-0.014,0.795-0.021,1.192-0.021
	c1.676,0,3.353,0.127,5.027,0.385c0.513,0.086,1.066,0.213,1.661,0.383c0.597,0.17,1.143,0.398,1.642,0.68
	c0.497,0.287,0.908,0.654,1.235,1.107c0.325,0.457,0.488,1.01,0.488,1.664c0,1.051-0.46,1.867-1.383,2.449
	c-0.923,0.584-2.002,1.014-3.239,1.301c-1.233,0.281-2.485,0.453-3.749,0.51c-1.263,0.059-2.265,0.086-3.002,0.086
	c-0.627,0-1.257-0.014-1.897-0.043c-0.64-0.029-1.285-0.043-1.939-0.043h-10.438c-0.483,0-1.135,0-1.96,0
	c-0.822,0-1.712-0.029-2.66-0.086c-0.955-0.055-1.904-0.164-2.855-0.318c-0.953-0.156-1.827-0.393-2.621-0.703
	c-0.796-0.311-1.443-0.725-1.938-1.236c-0.497-0.51-0.746-1.148-0.746-1.916c0-0.994,0.404-1.775,1.212-2.344
	c0.81-0.568,1.77-0.996,2.876-1.277c1.107-0.283,2.244-0.453,3.409-0.512c1.165-0.057,2.087-0.086,2.768-0.086
	c0.398,0,0.788,0.008,1.173,0.021c0.383,0.014,0.774,0.021,1.171,0.021H341.581z" class="DOwcKPUU_23"></path>
<path fill="none" stroke="#000000" d="M360.967,274.895c0-0.625,0.021-1.465,0.062-2.514c0.043-1.051,0.142-2.146,0.299-3.283
	c0.157-1.133,0.362-2.193,0.616-3.174c0.257-0.979,0.626-1.652,1.11-2.023c0.594-0.51,1.263-0.812,2.001-0.914
	c0.738-0.1,1.491-0.148,2.258-0.148c1.25,0,2.151,0.275,2.705,0.828c0.556,0.555,0.831,1.457,0.831,2.707
	c0,0.598-0.028,1.164-0.084,1.705c-0.057,0.539-0.086,1.092-0.086,1.66c0,0.682,0.127,1.328,0.384,1.939s0.81,0.916,1.66,0.916
	c1.618,0,3.211-0.178,4.773-0.533c1.561-0.354,3.116-0.746,4.665-1.172c1.548-0.426,3.109-0.809,4.686-1.15
	c1.577-0.34,3.16-0.51,4.751-0.51c0.624,0,1.151,0.162,1.575,0.488c0.427,0.326,0.788,0.746,1.089,1.256
	c0.297,0.514,0.511,1.061,0.638,1.643s0.191,1.145,0.191,1.682c-0.312,0.682-1.016,1.279-2.109,1.789
	c-1.093,0.51-2.309,0.959-3.641,1.342c-1.336,0.385-2.643,0.689-3.92,0.916c-1.28,0.229-2.274,0.412-2.984,0.555h0.043
	c-0.626,0.086-1.47,0.234-2.533,0.447c-1.067,0.213-2.16,0.463-3.281,0.746c-1.123,0.283-2.167,0.604-3.132,0.959
	c-0.966,0.355-1.704,0.73-2.214,1.129c-0.344,0.283-0.549,0.525-0.619,0.725c-0.071,0.197-0.108,0.496-0.108,0.893
	c0,1.137,0.037,2.041,0.108,2.707c0.07,0.666,0.269,1.164,0.598,1.49c0.325,0.326,0.813,0.547,1.47,0.66
	c0.651,0.115,1.548,0.17,2.684,0.17c2.469,0,4.933-0.055,7.391-0.17c2.457-0.113,4.936-0.17,7.436-0.17
	c0.682,0,1.256,0.035,1.726,0.107c0.469,0.07,0.837,0.213,1.108,0.424c0.269,0.215,0.467,0.543,0.594,0.98
	c0.129,0.441,0.191,1.031,0.191,1.77c0,0.539-0.054,1.016-0.17,1.426c-0.112,0.412-0.325,0.832-0.638,1.256
	c-0.228,0.314-0.712,0.584-1.45,0.811c-0.738,0.229-1.604,0.428-2.598,0.598c-0.995,0.17-2.067,0.311-3.217,0.428
	c-1.149,0.111-2.251,0.197-3.302,0.254c-1.052,0.057-2.008,0.092-2.876,0.107c-0.866,0.014-1.513,0.021-1.938,0.021
	c-3.153,0-5.789-0.191-7.902-0.576c-2.117-0.383-3.836-1.121-5.156-2.215c-1.321-1.094-2.266-2.656-2.834-4.689
	c-0.568-2.029-0.851-4.689-0.851-7.986V274.895z M388.745,268.291c-0.286,0-0.662-0.264-1.13-0.789
	c-0.47-0.525-0.938-1.121-1.407-1.791c-0.467-0.666-0.872-1.332-1.213-2.002c-0.341-0.666-0.511-1.127-0.511-1.385
	c0-0.283,0.135-0.576,0.402-0.873c0.271-0.297,0.59-0.553,0.96-0.768c0.368-0.213,0.745-0.383,1.128-0.51
	c0.385-0.127,0.705-0.191,0.96-0.191c0.34,0,0.745,0.264,1.215,0.789c0.468,0.523,0.938,1.137,1.405,1.832
	c0.47,0.695,0.874,1.377,1.215,2.043c0.34,0.67,0.51,1.145,0.51,1.426c0,0.287-0.141,0.572-0.426,0.854
	c-0.283,0.287-0.604,0.525-0.959,0.725c-0.354,0.199-0.738,0.355-1.148,0.471C389.334,268.232,388.999,268.291,388.745,268.291z
	 M396.583,267.65c-0.312,0-0.738-0.262-1.278-0.789c-0.538-0.523-1.063-1.129-1.577-1.809c-0.51-0.682-0.958-1.357-1.343-2.023
	c-0.381-0.67-0.572-1.158-0.572-1.473c0-0.367,0.12-0.68,0.361-0.938c0.24-0.254,0.519-0.482,0.83-0.68
	c0.312-0.199,0.654-0.355,1.024-0.467c0.368-0.117,0.695-0.17,0.979-0.17c0.341,0,0.794,0.26,1.362,0.785
	c0.568,0.527,1.114,1.137,1.642,1.834c0.525,0.695,0.985,1.398,1.384,2.105c0.396,0.713,0.597,1.238,0.597,1.578
	c0,0.312-0.136,0.605-0.405,0.873c-0.271,0.271-0.576,0.492-0.916,0.662c-0.341,0.17-0.71,0.297-1.108,0.383
	C397.166,267.607,396.84,267.65,396.583,267.65z" class="DOwcKPUU_24"></path>
<path fill="none" stroke="#000000" d="M425.171,262.537c0.54,0,1.357,0.016,2.449,0.045c1.094,0.027,2.208,0.113,3.345,0.256
	c1.136,0.141,2.188,0.355,3.154,0.637c0.964,0.285,1.604,0.684,1.915,1.195c0.145,0.256,0.265,0.553,0.362,0.893
	c0.101,0.34,0.185,0.703,0.257,1.086c0.072,0.385,0.127,0.754,0.171,1.111c0.043,0.354,0.064,0.672,0.064,0.955
	c0,1.281-0.286,2.465-0.854,3.557c-0.567,1.096-1.19,2.117-1.874,3.07c-0.681,0.951-1.307,1.824-1.875,2.619
	c-0.567,0.795-0.851,1.52-0.851,2.174c0,0.682,0.199,1.357,0.597,2.023c0.396,0.666,0.894,1.307,1.491,1.918
	c0.597,0.611,1.234,1.191,1.918,1.744c0.681,0.555,1.321,1.096,1.915,1.621c0.597,0.523,1.093,1.035,1.491,1.533
	c0.398,0.496,0.597,0.975,0.597,1.428c0,0.369-0.213,0.838-0.638,1.406c-0.426,0.568-0.925,1.115-1.491,1.641
	c-0.57,0.523-1.157,0.965-1.769,1.32s-1.101,0.531-1.47,0.531c-0.654,0-1.393-0.361-2.215-1.086
	c-0.824-0.723-1.683-1.512-2.58-2.365c-0.894-0.852-1.81-1.646-2.746-2.385c-0.938-0.738-1.875-1.107-2.812-1.107
	c-0.796,0-1.805,0.369-3.024,1.107c-1.224,0.738-2.5,1.547-3.836,2.428c-1.335,0.883-2.656,1.684-3.962,2.406
	c-1.307,0.725-2.469,1.088-3.493,1.088c-0.397,0-0.867-0.15-1.405-0.447c-0.541-0.299-1.044-0.674-1.512-1.129
	c-0.47-0.457-0.86-0.945-1.172-1.471c-0.314-0.523-0.47-0.986-0.47-1.385c0-0.227,0.134-0.496,0.405-0.811
	c0.271-0.311,0.596-0.615,0.979-0.914c0.385-0.299,0.753-0.576,1.107-0.83c0.355-0.256,0.633-0.441,0.833-0.555v0.041
	c0.538-0.311,1.303-0.83,2.298-1.553c0.995-0.725,2.095-1.557,3.304-2.492c1.205-0.938,2.449-1.947,3.728-3.025
	c1.276-1.078,2.428-2.125,3.452-3.131c1.021-1.01,1.866-1.947,2.533-2.812c0.666-0.867,1.002-1.57,1.002-2.109
	c0-0.625-0.307-1.1-0.916-1.43c-0.611-0.324-1.321-0.557-2.131-0.701c-0.811-0.143-1.618-0.234-2.428-0.275
	c-0.811-0.043-1.427-0.064-1.854-0.064c-0.825,0-1.661,0.035-2.515,0.105c-0.851,0.07-1.689,0.107-2.512,0.107
	c-0.484,0-1.002-0.037-1.556-0.107s-1.074-0.191-1.556-0.363c-0.484-0.17-0.881-0.432-1.194-0.785
	c-0.312-0.355-0.468-0.848-0.468-1.473c0-0.652,0.077-1.332,0.235-2.045c0.156-0.709,0.518-1.291,1.086-1.744
	c0.341-0.285,0.959-0.527,1.854-0.727c0.894-0.195,1.867-0.348,2.92-0.445c1.049-0.102,2.065-0.17,3.043-0.213
	c0.981-0.043,1.712-0.066,2.197-0.066H425.171z" class="DOwcKPUU_25"></path>
<path fill="none" stroke="#000000" d="M394.349,340.68c0-4.023,0.214-7.219,0.64-9.588c0.427-2.365,1.269-4.164,2.52-5.395
	c1.257-1.23,3.063-2.012,5.435-2.342c2.363-0.332,5.54-0.5,9.512-0.5c0.901,0,1.954-0.008,3.162-0.033
	c1.208-0.023,2.188-0.248,2.943-0.676c0.715-0.426,1.162-0.98,1.352-1.668c0.189-0.686,0.286-1.41,0.286-2.168
	c0-0.754,0-1.523,0-2.305c0-0.783,0.162-1.482,0.495-2.096c0.332-0.615,0.921-1.123,1.775-1.527
	c0.853-0.402,2.128-0.604,3.835-0.604c0.568,0,1.278,0.023,2.128,0.072c0.854,0.047,1.684,0.178,2.488,0.391
	c0.806,0.213,1.477,0.531,2.023,0.959c0.542,0.424,0.817,1.088,0.817,1.986c0,0.475-0.012,0.947-0.039,1.42
	c-0.021,0.475-0.035,0.994-0.035,1.562c0,0.854,0.132,1.562,0.393,2.131c0.26,0.568,0.768,1.111,1.525,1.633
	c0.663,0.475,1.857,0.746,3.586,0.814c1.729,0.074,3.619,0.133,5.681,0.18c2.062,0.049,4.109,0.178,6.145,0.391
	c2.034,0.211,3.691,0.723,4.969,1.527c0.949,0.568,1.679,1.527,2.2,2.875c0.522,1.348,0.912,2.84,1.173,4.475
	c0.261,1.633,0.415,3.242,0.462,4.828c0.048,1.586,0.069,2.854,0.069,3.799v8.521c0,2.318-0.095,4.285-0.28,5.893
	c-0.193,1.611-0.651,2.9-1.385,3.869c-0.736,0.973-1.837,1.658-3.304,2.059c-1.467,0.406-3.48,0.605-6.035,0.605
	c-0.71,0-1.185-0.082-1.42-0.248c-0.237-0.166-0.394-0.369-0.46-0.605c-0.072-0.236-0.134-0.52-0.182-0.852
	c-0.049-0.33-0.211-0.641-0.497-0.924c-0.237-0.283-0.626-0.482-1.172-0.604c-0.544-0.115-1.135-0.189-1.771-0.213
	c-0.643-0.021-1.244-0.035-1.812-0.035s-1.019,0-1.35,0c-1.373,0-2.487,0.119-3.337,0.355c-0.853,0.238-1.524,0.639-2.023,1.205
	c-0.497,0.568-0.819,1.314-0.958,2.238c-0.142,0.926-0.216,2.025-0.216,3.303c0,0.994,0.026,2.002,0.074,3.018
	c0.045,1.02,0.069,2.002,0.069,2.947c0,2.131-0.486,3.738-1.455,4.828c-0.971,1.09-2.548,1.633-4.725,1.633
	c-0.992,0-1.938-0.047-2.838-0.141c-0.901-0.096-1.707-0.32-2.417-0.676c-0.706-0.355-1.251-0.887-1.629-1.598
	c-0.384-0.709-0.568-1.682-0.568-2.912c0-1.043,0.035-2.08,0.105-3.123c0.069-1.041,0.105-2.104,0.105-3.195
	c0-1.279-0.07-2.414-0.211-3.408c-0.146-0.994-0.453-1.822-0.923-2.486c-0.476-0.662-1.151-1.158-2.023-1.49
	c-0.878-0.332-2.025-0.498-3.447-0.498c-0.853,0-1.834,0.025-2.946,0.07c-1.114,0.049-2.025,0.309-2.732,0.781
	c-0.381,0.238-0.592,0.512-0.64,0.818c-0.048,0.309-0.145,0.592-0.283,0.852c-0.142,0.26-0.405,0.475-0.784,0.639
	c-0.376,0.166-1.063,0.248-2.06,0.248c-2.555,0-4.508-0.258-5.855-0.781c-1.35-0.52-2.333-1.312-2.946-2.379
	c-0.615-1.064-0.973-2.379-1.063-3.941c-0.097-1.561-0.145-3.43-0.145-5.609V340.68z M414.798,347.992
	c2.228,0,3.683-0.531,4.371-1.596c0.68-1.064,1.028-2.615,1.028-4.652c0-1.654-0.036-3.004-0.108-4.045
	c-0.072-1.043-0.33-1.859-0.78-2.451c-0.452-0.59-1.162-0.992-2.13-1.207c-0.974-0.213-2.381-0.318-4.228-0.318
	c-1.323,0-2.376,0.186-3.16,0.564c-0.777,0.383-1.348,0.914-1.701,1.6c-0.355,0.688-0.581,1.516-0.677,2.486
	c-0.094,0.971-0.142,1.998-0.142,3.088c0,1.562,0.132,2.783,0.391,3.658c0.26,0.873,0.676,1.525,1.241,1.953
	c0.568,0.424,1.324,0.686,2.273,0.777C412.125,347.947,413.33,347.992,414.798,347.992z M446.894,338.691
	c0-1.137-0.163-2.035-0.493-2.699c-0.336-0.66-0.772-1.158-1.316-1.49c-0.545-0.328-1.218-0.541-2.023-0.641
	c-0.805-0.09-1.704-0.139-2.696-0.139c-1.804,0-3.282,0.283-4.439,0.852c-1.16,0.568-1.741,1.918-1.741,4.045v3.977
	c0,2.32,0.533,3.801,1.6,4.438c1.066,0.641,2.636,0.959,4.719,0.959c1.233,0,2.249-0.068,3.056-0.213
	c0.805-0.143,1.442-0.424,1.917-0.852c0.472-0.426,0.829-1.027,1.064-1.809c0.234-0.783,0.354-1.811,0.354-3.09V338.691z" class="DOwcKPUU_26"></path>
<style>.DOwcKPUU_0{stroke-dasharray:187 189;stroke-dashoffset:188;animation:DOwcKPUU_draw_0 6200ms linear 0ms infinite,DOwcKPUU_fade 6200ms linear 0ms infinite;}.DOwcKPUU_1{stroke-dasharray:138 140;stroke-dashoffset:139;animation:DOwcKPUU_draw_1 6200ms linear 0ms infinite,DOwcKPUU_fade 6200ms linear 0ms infinite;}.DOwcKPUU_2{stroke-dasharray:424 426;stroke-dashoffset:425;animation:DOwcKPUU_draw_2 6200ms linear 0ms infinite,DOwcKPUU_fade 6200ms linear 0ms infinite;}.DOwcKPUU_3{stroke-dasharray:261 263;stroke-dashoffset:262;animation:DOwcKPUU_draw_3 6200ms linear 0ms infinite,DOwcKPUU_fade 6200ms linear 0ms infinite;}.DOwcKPUU_4{stroke-dasharray:261 263;stroke-dashoffset:262;animation:DOwcKPUU_draw_4 6200ms linear 0ms infinite,DOwcKPUU_fade 6200ms linear 0ms infinite;}.DOwcKPUU_5{stroke-dasharray:261 263;stroke-dashoffset:262;animation:DOwcKPUU_draw_5 6200ms linear 0ms infinite,DOwcKPUU_fade 6200ms linear 0ms infinite;}.DOwcKPUU_6{stroke-dasharray:261 263;stroke-dashoffset:262;animation:DOwcKPUU_draw_6 6200ms linear 0ms infinite,DOwcKPUU_fade 6200ms linear 0ms infinite;}.DOwcKPUU_7{stroke-dasharray:261 263;stroke-dashoffset:262;animation:DOwcKPUU_draw_7 6200ms linear 0ms infinite,DOwcKPUU_fade 6200ms linear 0ms infinite;}.DOwcKPUU_8{stroke-dasharray:261 263;stroke-dashoffset:262;animation:DOwcKPUU_draw_8 6200ms linear 0ms infinite,DOwcKPUU_fade 6200ms linear 0ms infinite;}.DOwcKPUU_9{stroke-dasharray:261 263;stroke-dashoffset:262;animation:DOwcKPUU_draw_9 6200ms linear 0ms infinite,DOwcKPUU_fade 6200ms linear 0ms infinite;}.DOwcKPUU_10{stroke-dasharray:261 263;stroke-dashoffset:262;animation:DOwcKPUU_draw_10 6200ms linear 0ms infinite,DOwcKPUU_fade 6200ms linear 0ms infinite;}.DOwcKPUU_11{stroke-dasharray:393 395;stroke-dashoffset:394;animation:DOwcKPUU_draw_11 6200ms linear 0ms infinite,DOwcKPUU_fade 6200ms linear 0ms infinite;}.DOwcKPUU_12{stroke-dasharray:261 263;stroke-dashoffset:262;animation:DOwcKPUU_draw_12 6200ms linear 0ms infinite,DOwcKPUU_fade 6200ms linear 0ms infinite;}.DOwcKPUU_13{stroke-dasharray:133 135;stroke-dashoffset:134;animation:DOwcKPUU_draw_13 6200ms linear 0ms infinite,DOwcKPUU_fade 6200ms linear 0ms infinite;}.DOwcKPUU_14{stroke-dasharray:311 313;stroke-dashoffset:312;animation:DOwcKPUU_draw_14 6200ms linear 0ms infinite,DOwcKPUU_fade 6200ms linear 0ms infinite;}.DOwcKPUU_15{stroke-dasharray:311 313;stroke-dashoffset:312;animation:DOwcKPUU_draw_15 6200ms linear 0ms infinite,DOwcKPUU_fade 6200ms linear 0ms infinite;}.DOwcKPUU_16{stroke-dasharray:133 135;stroke-dashoffset:134;animation:DOwcKPUU_draw_16 6200ms linear 0ms infinite,DOwcKPUU_fade 6200ms linear 0ms infinite;}.DOwcKPUU_17{stroke-dasharray:379 381;stroke-dashoffset:380;animation:DOwcKPUU_draw_17 6200ms linear 0ms infinite,DOwcKPUU_fade 6200ms linear 0ms infinite;}.DOwcKPUU_18{stroke-dasharray:252 254;stroke-dashoffset:253;animation:DOwcKPUU_draw_18 6200ms linear 0ms infinite,DOwcKPUU_fade 6200ms linear 0ms infinite;}.DOwcKPUU_19{stroke-dasharray:252 254;stroke-dashoffset:253;animation:DOwcKPUU_draw_19 6200ms linear 0ms infinite,DOwcKPUU_fade 6200ms linear 0ms infinite;}.DOwcKPUU_20{stroke-dasharray:217 219;stroke-dashoffset:218;animation:DOwcKPUU_draw_20 6200ms linear 0ms infinite,DOwcKPUU_fade 6200ms linear 0ms infinite;}.DOwcKPUU_21{stroke-dasharray:123 125;stroke-dashoffset:124;animation:DOwcKPUU_draw_21 6200ms linear 0ms infinite,DOwcKPUU_fade 6200ms linear 0ms infinite;}.DOwcKPUU_22{stroke-dasharray:178 180;stroke-dashoffset:179;animation:DOwcKPUU_draw_22 6200ms linear 0ms infinite,DOwcKPUU_fade 6200ms linear 0ms infinite;}.DOwcKPUU_23{stroke-dasharray:85 87;stroke-dashoffset:86;animation:DOwcKPUU_draw_23 6200ms linear 0ms infinite,DOwcKPUU_fade 6200ms linear 0ms infinite;}.DOwcKPUU_24{stroke-dasharray:213 215;stroke-dashoffset:214;animation:DOwcKPUU_draw_24 6200ms linear 0ms infinite,DOwcKPUU_fade 6200ms linear 0ms infinite;}.DOwcKPUU_25{stroke-dasharray:153 155;stroke-dashoffset:154;animation:DOwcKPUU_draw_25 6200ms linear 0ms infinite,DOwcKPUU_fade 6200ms linear 0ms infinite;}.DOwcKPUU_26{stroke-dasharray:335 337;stroke-dashoffset:336;animation:DOwcKPUU_draw_26 6200ms linear 0ms infinite,DOwcKPUU_fade 6200ms linear 0ms infinite;}@keyframes DOwcKPUU_draw{100%{stroke-dashoffset:0;}}@keyframes DOwcKPUU_fade{0%{stroke-opacity:1;}93.54838709677419%{stroke-opacity:1;}100%{stroke-opacity:0;}}@keyframes DOwcKPUU_draw_0{12.903225806451612%{stroke-dashoffset: 188}34.40860215053764%{ stroke-dashoffset: 0;}100%{ stroke-dashoffset: 0;}}@keyframes DOwcKPUU_draw_1{13.316790736145576%{stroke-dashoffset: 139}34.8221670802316%{ stroke-dashoffset: 0;}100%{ stroke-dashoffset: 0;}}@keyframes DOwcKPUU_draw_2{13.730355665839536%{stroke-dashoffset: 425}35.23573200992556%{ stroke-dashoffset: 0;}100%{ stroke-dashoffset: 0;}}@keyframes DOwcKPUU_draw_3{14.1439205955335%{stroke-dashoffset: 262}35.64929693961952%{ stroke-dashoffset: 0;}100%{ stroke-dashoffset: 0;}}@keyframes DOwcKPUU_draw_4{14.55748552522746%{stroke-dashoffset: 262}36.06286186931349%{ stroke-dashoffset: 0;}100%{ stroke-dashoffset: 0;}}@keyframes DOwcKPUU_draw_5{14.971050454921423%{stroke-dashoffset: 262}36.47642679900745%{ stroke-dashoffset: 0;}100%{ stroke-dashoffset: 0;}}@keyframes DOwcKPUU_draw_6{15.384615384615383%{stroke-dashoffset: 262}36.88999172870141%{ stroke-dashoffset: 0;}100%{ stroke-dashoffset: 0;}}@keyframes DOwcKPUU_draw_7{15.798180314309345%{stroke-dashoffset: 262}37.303556658395365%{ stroke-dashoffset: 0;}100%{ stroke-dashoffset: 0;}}@keyframes DOwcKPUU_draw_8{16.21174524400331%{stroke-dashoffset: 262}37.71712158808933%{ stroke-dashoffset: 0;}100%{ stroke-dashoffset: 0;}}@keyframes DOwcKPUU_draw_9{16.62531017369727%{stroke-dashoffset: 262}38.130686517783296%{ stroke-dashoffset: 0;}100%{ stroke-dashoffset: 0;}}@keyframes DOwcKPUU_draw_10{17.03887510339123%{stroke-dashoffset: 262}38.54425144747726%{ stroke-dashoffset: 0;}100%{ stroke-dashoffset: 0;}}@keyframes DOwcKPUU_draw_11{17.452440033085193%{stroke-dashoffset: 394}38.95781637717121%{ stroke-dashoffset: 0;}100%{ stroke-dashoffset: 0;}}@keyframes DOwcKPUU_draw_12{17.866004962779154%{stroke-dashoffset: 262}39.371381306865175%{ stroke-dashoffset: 0;}100%{ stroke-dashoffset: 0;}}@keyframes DOwcKPUU_draw_13{18.279569892473116%{stroke-dashoffset: 134}39.78494623655914%{ stroke-dashoffset: 0;}100%{ stroke-dashoffset: 0;}}@keyframes DOwcKPUU_draw_14{18.693134822167078%{stroke-dashoffset: 312}40.198511166253105%{ stroke-dashoffset: 0;}100%{ stroke-dashoffset: 0;}}@keyframes DOwcKPUU_draw_15{19.106699751861044%{stroke-dashoffset: 312}40.61207609594706%{ stroke-dashoffset: 0;}100%{ stroke-dashoffset: 0;}}@keyframes DOwcKPUU_draw_16{19.520264681555002%{stroke-dashoffset: 134}41.02564102564102%{ stroke-dashoffset: 0;}100%{ stroke-dashoffset: 0;}}@keyframes DOwcKPUU_draw_17{19.933829611248967%{stroke-dashoffset: 380}41.43920595533499%{ stroke-dashoffset: 0;}100%{ stroke-dashoffset: 0;}}@keyframes DOwcKPUU_draw_18{20.347394540942926%{stroke-dashoffset: 253}41.85277088502895%{ stroke-dashoffset: 0;}100%{ stroke-dashoffset: 0;}}@keyframes DOwcKPUU_draw_19{20.760959470636887%{stroke-dashoffset: 253}42.26633581472291%{ stroke-dashoffset: 0;}100%{ stroke-dashoffset: 0;}}@keyframes DOwcKPUU_draw_20{21.17452440033085%{stroke-dashoffset: 218}42.67990074441688%{ stroke-dashoffset: 0;}100%{ stroke-dashoffset: 0;}}@keyframes DOwcKPUU_draw_21{21.588089330024815%{stroke-dashoffset: 124}43.09346567411084%{ stroke-dashoffset: 0;}100%{ stroke-dashoffset: 0;}}@keyframes DOwcKPUU_draw_22{22.001654259718773%{stroke-dashoffset: 179}43.5070306038048%{ stroke-dashoffset: 0;}100%{ stroke-dashoffset: 0;}}@keyframes DOwcKPUU_draw_23{22.41521918941274%{stroke-dashoffset: 86}43.92059553349876%{ stroke-dashoffset: 0;}100%{ stroke-dashoffset: 0;}}@keyframes DOwcKPUU_draw_24{22.8287841191067%{stroke-dashoffset: 214}44.334160463192724%{ stroke-dashoffset: 0;}100%{ stroke-dashoffset: 0;}}@keyframes DOwcKPUU_draw_25{23.242349048800662%{stroke-dashoffset: 154}44.747725392886686%{ stroke-dashoffset: 0;}100%{ stroke-dashoffset: 0;}}@keyframes DOwcKPUU_draw_26{23.65591397849462%{stroke-dashoffset: 336}45.16129032258064%{ stroke-dashoffset: 0;}100%{ stroke-dashoffset: 0;}}</style></svg>
