<!--?xml version="1.0" encoding="utf-8"?-->
<!-- Generator: Adobe Illustrator 14.0.0, SVG Export Plug-In . SVG Version: 6.00 Build 43363)  -->

<svg version="1.1" id="レイヤー_1" xmlns="http://www.w3.org/2000/svg" xmlns:xlink="http://www.w3.org/1999/xlink" x="0px" y="0px" width="647px" height="400px" viewBox="0 0 647 400" enable-background="new 0 0 647 400" xml:space="preserve" style="">
<g>
	<g>
		<path fill="none" stroke="#000000" d="M49.732,218.736c5.237-5.752,11.016-13.88,16.036-22.649
			c5.242-0.307,7.191-0.915,7.191-2.035c0-1.221-3.449-2.03-13.044-3.455c-2.398-0.405-6.445-0.913-11.397-1.728
			c-1.051,6.911-3.746,13.616-10.346,26.107c-5.398,10.156-9.742,16.558-18.138,26.414l1.499,0.91
			c7.187-4.866,12.64-8.959,16.666-12.553C43.359,225.025,43.175,225.494,49.732,218.736z" class="lCaWXkvr_0"></path>
		<path fill="none" stroke="#000000" d="M80.737,260.74v-14.91v-26.462c0-3.137-0.067-3.64,2.261-4.571
			c0.862-0.343,1.461-1.102,1.461-2.285c0-2.453-2.191-2.629-2.46-2.629H64.572v35.947v11.821v3.089v16.989v6.456h78.357v-15.143
			H80.737V260.74z" class="lCaWXkvr_1"></path>
		<path fill="none" stroke="#000000" d="M110.198,258.26v-8.703v-8.285v-6.622v-6.631v-1.657v-26.469
			c0-3.131-0.067-3.633,2.256-4.569c0.867-0.338,1.466-1.1,1.466-2.277c0-2.462-2.194-2.635-2.462-2.635H94.028v35.95v1.657v6.631
			v6.622v8.285v8.703v8.281h16.169V258.26z" class="lCaWXkvr_2"></path>
		<path fill="none" stroke="#000000" d="M144.194,209.883H126.76v35.947v14.91v6.232h16.169v-6.232v-14.91v-26.462
			c0-3.137-0.062-3.64,2.261-4.571c0.867-0.343,1.46-1.102,1.46-2.285C146.65,210.059,144.457,209.883,144.194,209.883z" class="lCaWXkvr_3"></path>
		<path fill="none" stroke="#000000" d="M55.942,221.481h-6.449c-5.479,5.625-5.606,5.469-10.467,9.921
			c-0.164,0.149-0.345,0.294-0.513,0.447v13.39v12.189v5.618v9.299v5.616v0.607v5.616h16.165v-5.616v-0.607v-5.616v-9.299v-5.618
			v-12.189v-14.275c0-3.13-0.067-3.637,2.266-4.563c0.857-0.341,1.46-1.107,1.46-2.29C58.403,221.648,56.21,221.481,55.942,221.481z
			" class="lCaWXkvr_4"></path>
	</g>
	<g>
		<g>
			<path fill="none" stroke="#000000" d="M271.306,233.198c-4.078,4.227-6.19,6.303-10.554,10.386
				c-15.772-12.548-22.898-19.371-35.45-33.617c4.352-3.559,6.458-5.389,10.535-9.111
				C248.429,214.615,255.551,221.189,271.306,233.198z" class="lCaWXkvr_5"></path>
		</g>
		<path fill="none" stroke="#000000" d="M216.964,269.602L172.969,269.602L172.969,260.901L172.969,245.989L172.969,239.355L
			156.802,239.355L156.802,245.989L156.802,260.901L156.802,269.602L156.802,277.888L156.802,284.751L170.397,284.751L
			216.964,284.751L230.561,284.751L230.561,269.602Z" class="lCaWXkvr_6"></path>
		<path fill="none" stroke="#000000" d="M249.224,239.355h-13.698h-3.733h-56.529v15.149h56.529v13.257v7.544v5.067v4.378h16.167
			v-4.378v-5.067v-7.544v-14.904v-4.014c0-3.132-0.067-3.645,2.261-4.574c0.857-0.338,1.46-1.099,1.46-2.284
			C251.681,239.525,249.492,239.355,249.224,239.355z" class="lCaWXkvr_7"></path>
		<path fill="none" stroke="#000000" d="M230.568,219.589h-59.036c4.967-6.301,10.207-14.369,14.838-22.979
			c5.673-0.354,7.783-1.055,7.783-2.342c0-1.404-3.729-2.338-14.11-3.977c-2.596-0.462-6.974-1.043-12.335-1.984
			c-1.128,7.948-4.049,15.659-11.195,30.032c-3.041,6.088-5.781,11.002-8.988,15.916h0.232h9.9h88.104
			C240.225,229.436,235.629,224.991,230.568,219.589z" class="lCaWXkvr_8"></path>
	</g>
	<g>
		<path fill="none" stroke="#000000" d="M341.705,200.738L290.797,200.738L290.797,193.443L290.797,180.929L290.797,175.37L
			272.089,175.37L272.089,180.929L272.089,193.443L272.089,200.738L272.089,207.687L272.089,213.444L287.823,213.444L
			341.705,213.444L357.44,213.444L357.44,200.738Z" class="lCaWXkvr_9"></path>
		<path fill="none" stroke="#000000" d="M379.039,175.37h-15.844h-4.324h-65.413v12.704h65.413v11.119v6.329v4.257v3.665h18.713
			v-3.665v-4.257v-6.329v-12.509v-3.359c0-2.629-0.084-3.056,2.607-3.833c0.999-0.288,1.695-0.925,1.695-1.916
			C381.887,175.514,379.351,175.37,379.039,175.37z" class="lCaWXkvr_10"></path>
		<path fill="none" stroke="#000000" d="M312.929,194.478c0,2.94-1.949,5.327-4.354,5.327c-2.403,0-4.349-2.387-4.349-5.327
			c0-2.945,1.945-5.328,4.349-5.328C310.979,189.149,312.929,191.532,312.929,194.478z" class="lCaWXkvr_11"></path>
		<path fill="none" stroke="#000000" d="M342.96,194.478c0,2.94-1.944,5.327-4.347,5.327c-2.407,0-4.349-2.387-4.349-5.327
			c0-2.945,1.941-5.328,4.349-5.328C341.016,189.149,342.96,191.532,342.96,194.478z" class="lCaWXkvr_12"></path>
		<path fill="none" stroke="#000000" d="M295.96,257.412L295.96,243.775L295.96,222.826L295.96,215.192L277.252,215.192L
			277.252,222.826L277.252,243.775L277.252,257.848L277.252,269.989L287.334,269.989L295.96,269.989L350.887,269.989L
			350.887,257.412Z" class="lCaWXkvr_13"></path>
		<path fill="none" stroke="#000000" d="M372.621,215.192h-15.853h-4.318h-54.862v12.712h54.862v2.494h-54.862v9.724h54.862v1.26
			v2.526h-54.862v9.726h54.862v0.545v8.61v7.411h18.706v-7.411v-8.61v-0.909v-3.665v-4.258v-3.965v-2.364v-2.302v-10.209v-3.356
			c0-2.625-0.077-3.054,2.61-3.83c1.001-0.292,1.695-0.934,1.695-1.92C375.462,215.336,372.924,215.192,372.621,215.192z" class="lCaWXkvr_14"></path>
		<g>
			<path fill="none" stroke="#000000" d="M290.146,272.355c-7.074,2.442-15.075,3.951-26.462,5.135
				c4.689,5.953,6.963,9.799,9.627,15.872c9.114-1.614,14.938-3.095,23.167-5.948c8.99-3.219,13.804-5.583,20.263-9.924
				l-6.601-5.135H290.146z" class="lCaWXkvr_15"></path>
			<path fill="none" stroke="#000000" d="M336.092,272.355l-6.059,5.135c6.583,4.095,11.143,6.197,18.995,9.057
				c8.985,3.218,15.827,4.957,27.727,6.571c3.42-8.31,5.062-11.287,8.731-16.49c-11.902-0.699-20.181-1.883-28.058-4.272H336.092z" class="lCaWXkvr_16"></path>
		</g>
	</g>
	<g>
		<path fill="none" stroke="#000000" d="M424.062,216.076c0,2.401-1.95,4.349-4.352,4.349s-4.35-1.947-4.35-4.349
			c0-2.402,1.948-4.356,4.35-4.356S424.062,213.674,424.062,216.076z" class="lCaWXkvr_17"></path>
		<path fill="none" stroke="#000000" d="M423.443,236.379c0,2.401-1.951,4.347-4.354,4.347c-2.399,0-4.349-1.945-4.349-4.347
			s1.949-4.352,4.349-4.352C421.492,232.027,423.443,233.978,423.443,236.379z" class="lCaWXkvr_18"></path>
		<path fill="none" stroke="#000000" width="17.816" height="77.476" d="M425.302 204.688 L443.118 204.688 L443.118 282.164 L425.302 282.164 Z" class="lCaWXkvr_19"></path>
		<path fill="none" stroke="#000000" width="17.82" height="49.309" d="M395.47 204.688 L413.29 204.688 L413.29 253.99699999999999 L395.47 253.99699999999999 Z" class="lCaWXkvr_20"></path>
		<path fill="none" stroke="#000000" d="M386.382,255.252L386.382,269.788L425.038,255.252Z" class="lCaWXkvr_21"></path>
		<path fill="none" stroke="#000000" d="M447.27,188.979h-1.234h-16.197h-41.382v13.659h57.579v-6.135
			c0.104-1.461,0.509-1.925,2.229-2.61c0.861-0.341,1.465-1.102,1.465-2.284C449.729,189.149,447.53,188.979,447.27,188.979z" class="lCaWXkvr_22"></path>
		<path fill="none" stroke="#000000" d="M506.782,266.436l-16.79-16.793c6.925-11.877,10.666-25.697,10.185-40.61h0.11v-13.669
			h-51.885v13.669h34.838c-0.373,10.573-2.009,19.575-6.288,27.564l-17.069-17.075l11.432,25.229
			c-5.853,6.77-14.372,12.839-26.672,18.639c8.319,5.182,12.907,7.448,22.611,10.91c4.578-3.23,8.765-6.892,12.515-10.91
			l9.373,20.687L506.782,266.436z" class="lCaWXkvr_23"></path>
	</g>
	<g>
		<path fill="none" stroke="#000000" d="M576.239,218.367L576.239,212.18L576.239,201.824L576.239,198.051L564.175,198.051L
			564.175,201.824L564.175,212.18L564.175,218.367Z" class="lCaWXkvr_24"></path>
		<path fill="none" stroke="#000000" d="M618.479,246.908h-12.8h-0.204h-3.285h-10.868h-4.022v11.889h14.891v9.387v5.643v3.795v0.18
			h-15.763V274.1v-14.763v-14.119h26.605v-0.323h0.324v-10.932v-14.767h-1.172v-4.962v-3.328H601.82h-3.496h-10.868v11.341h10.868
			v9.929v4.023h-11.897v-25.293h-9.428v1.949v6.183h-5.688v18.354v21.945V274.1v12.725h3.276h11.839h30.812v-5.93h0.057v-3.273
			v-3.795v-5.643v-11.169v-3.003c0-2.347-0.062-2.726,2.113-3.425c0.811-0.251,1.369-0.829,1.369-1.71
			C620.777,247.037,618.729,246.908,618.479,246.908z" class="lCaWXkvr_25"></path>
		<path fill="none" stroke="#000000" d="M543.005,236.391c0,2.404-2.103,4.349-4.687,4.349c-2.594,0-4.688-1.944-4.688-4.349
			c0-2.399,2.094-4.35,4.688-4.35C540.902,232.041,543.005,233.991,543.005,236.391z" class="lCaWXkvr_26"></path>
		<path fill="none" stroke="#000000" d="M561.564,217.884h-13.32h-3.64h-11.311v10.382h11.311v7.813v1.265v4.974v0.197v3.469v0.015
			h-12.391v-10.275v-17.839h-15.729v17.839v14.78v9.937v8.568h15.729v-8.568v-6.505h12.391v0.029h15.729v-3.006v-1.976v-1.499v-1.5
			v-3.469v-0.197v-4.974v-1.265v-8.951v-2.744c0-2.146-0.073-2.491,2.198-3.13c0.838-0.237,1.423-0.757,1.423-1.571
			C563.955,218.004,561.823,217.884,561.564,217.884z" class="lCaWXkvr_27"></path>
		<g>
			<path fill="none" stroke="#000000" d="M552.632,285.46c4.44-1.938,6.66-2.961,11.107-5.087
				c-3.71-11.095-6.217-16.253-12.248-25.614c-4.058,2.187-6.092,3.229-10.177,5.228C546.98,269.31,549.301,274.435,552.632,285.46z
				" class="lCaWXkvr_28"></path>
		</g>
		<path fill="none" stroke="#000000" d="M545.114,270.181h-34.778v14.537l36.038-11.998
			C545.975,271.871,545.558,271.029,545.114,270.181z" class="lCaWXkvr_29"></path>
		<path fill="none" stroke="#000000" width="11.718" height="6.521" d="M533.294 210.292 L545.012 210.292 L545.012 216.813 L533.294 216.813 Z" class="lCaWXkvr_30"></path>
		<path fill="none" stroke="#000000" width="11.713" height="8.08" d="M588.31 188.434 L600.0229999999999 188.434 L600.0229999999999 196.514 L588.31 196.514 Z" class="lCaWXkvr_31"></path>
		<path fill="none" stroke="#000000" d="M548.288,193.778c2.461,0.145,3.511-0.099,3.63-0.747c0.163-0.871-2.291-1.878-9.26-4.065
			c-1.736-0.588-4.678-1.439-8.263-2.626c-1.727,4.816-4.646,9.297-11.267,17.448c-5.405,6.619-9.525,10.674-17.123,16.711
			l0.996,0.838c6.021-2.601,10.645-4.87,14.141-6.964c4.49-2.749,4.28-2.433,10.1-6.48c2.504-1.863,5.218-4.2,7.945-6.834
			c4.838,6.439,9.749,10.396,19.637,15.7c1.581-1.154,2.855-2.113,4.023-3.032v-2.95v-5.307
			C556.344,202.069,552.409,198.781,548.288,193.778z" class="lCaWXkvr_32"></path>
		<path fill="none" stroke="#000000" d="M625.515,197.897h-4.081h-3.975h-2.199h-24.771h-13.512v10.148h36.014v4.848v4.957h11.797
			v-4.957v-8.301v-1.623c0.042-1.063,0.258-1.38,1.312-1.852c0.512-0.223,0.866-0.721,0.866-1.501
			C626.966,198.008,625.667,197.897,625.515,197.897z" class="lCaWXkvr_33"></path>
	</g>
	<path fill="none" stroke="#000000" d="M337.837,100.224L311.027,100.224L319.52,154.658L329.326,154.658Z" class="lCaWXkvr_34"></path>
	<path fill="none" stroke="#000000" d="M324.438,91.718c7.831,0,14.244-1.801,14.244-4.009c0-2.217-6.413-4.013-14.244-4.013
		c-7.903,0-14.292,1.796-14.292,4.013C310.146,89.917,316.535,91.718,324.438,91.718z" class="lCaWXkvr_35"></path>
	<g>
		<path fill="none" stroke="#000000" d="M277.779,161.435L116.518,132.252L103.124,138.775L272.87,163.815Z" class="lCaWXkvr_36"></path>
		<path fill="none" stroke="#000000" d="M64.151,132.735c2.165,0.345,4.631,0.532,7.127,0.532c5.066,0,9.811-0.767,12.357-2.002
			c3.919-1.928,1.59-4.386-5.217-5.489c-2.141-0.34-4.606-0.536-7.112-0.536c-5.093,0-9.837,0.771-12.399,2.005
			C55.008,129.167,57.34,131.62,64.151,132.735z" class="lCaWXkvr_37"></path>
		<path fill="none" stroke="#000000" d="M370.272,161.573L375.141,163.952L546.307,138.967L532.918,132.449Z" class="lCaWXkvr_38"></path>
		<path fill="none" stroke="#000000" d="M579.296,133.282c2.48,0,4.949-0.188,7.112-0.541c6.801-1.102,9.136-3.564,5.242-5.476
			c-2.554-1.237-7.292-2.009-12.4-2.009c-2.474,0-4.927,0.185-7.11,0.539c-6.812,1.106-9.144,3.565-5.221,5.484
			C569.467,132.509,574.202,133.282,579.296,133.282z" class="lCaWXkvr_39"></path>
	</g>
	<g>
		<path fill="none" stroke="#000000" d="M286.707,158.461l-133.522-38.779c-0.104-0.031-0.25-0.047-0.419-0.047l-0.484,0.047
			l-9.086,2.848l138.023,37.474L286.707,158.461z" class="lCaWXkvr_40"></path>
		<path fill="none" stroke="#000000" d="M137.316,115.266l-12.534-3.513c-0.134-0.043-0.302-0.043-0.417-0.043l-0.436,0.048
			l-8.928,2.771l12.419,3.511L137.316,115.266z" class="lCaWXkvr_41"></path>
		<path fill="none" stroke="#000000" d="M367.559,160.003l138.043-37.751l-9.209-2.57c-0.148-0.043-0.358-0.043-0.411-0.043
			l-0.47,0.067l-133.423,38.755L367.559,160.003z" class="lCaWXkvr_42"></path>
		<path fill="none" stroke="#000000" d="M533.769,114.26l-8.942-2.502c-0.122-0.043-0.313-0.048-0.437-0.048l-0.495,0.057
			l-12.448,3.499l9.773,2.767L533.769,114.26z" class="lCaWXkvr_43"></path>
	</g>
	<g>
		<path fill="none" stroke="#000000" d="M526.327,168.265c-0.248-0.067-0.555-0.101-0.938-0.101l-144.16,1.351v2.177l144.16,1.43
			l1.334-0.364L526.327,168.265z" class="lCaWXkvr_44"></path>
		<path fill="none" stroke="#000000" d="M573.479,172.717v-4.146c0-0.209-0.577-0.374-1.315-0.374h-21.097v4.881h21.116
			C572.901,173.078,573.479,172.916,573.479,172.717z" class="lCaWXkvr_45"></path>
		<path fill="none" stroke="#000000" d="M122.146,172.757L123.465,173.121L267.63,171.691L267.63,169.515L123.487,168.164L
			122.146,168.523Z" class="lCaWXkvr_46"></path>
		<path fill="none" stroke="#000000" d="M75.354,168.571v4.146c0,0.165,0.708,0.356,1.308,0.356l21.141,0.005v-4.881H76.662
			C75.947,168.197,75.354,168.362,75.354,168.571z" class="lCaWXkvr_47"></path>
	</g>
	<g>
		<path fill="none" stroke="#000000" d="M203.579,116.667l15.037-2.438l-10.573-5.135c-0.292-0.144-0.769-0.201-1.125-0.201
			l-0.657,0.058l-12.735,2.069c-0.609,0.101-0.843,0.333-0.496,0.498L203.579,116.667z" class="lCaWXkvr_48"></path>
		<path fill="none" stroke="#000000" d="M356.174,157.311l76.375-34.369l-0.461-0.518l-12.998-2.098
			c-0.208-0.038-0.427-0.048-0.646-0.048l-1.173,0.185l-67.802,35.761L356.174,157.311z" class="lCaWXkvr_49"></path>
		<path fill="none" stroke="#000000" d="M455.82,111.519l-0.515-0.498l-12.737-2.072c-0.192-0.031-0.393-0.055-0.606-0.055
			l-1.178,0.201l-10.568,5.135l15.008,2.438L455.82,111.519z" class="lCaWXkvr_50"></path>
		<path fill="none" stroke="#000000" d="M216.3,122.941L292.656,157.311L299.36,156.224L230.774,120.288L230.415,120.278L
			229.759,120.318L216.756,122.424Z" class="lCaWXkvr_51"></path>
	</g>
	<g>
		<path fill="none" stroke="#000000" d="M274.733,165.386L89.885,150.577L89.286,150.704L86.504,154.444L272.726,167.496Z" class="lCaWXkvr_52"></path>
		<path fill="none" stroke="#000000" d="M81.158,150.163L64.821,148.93L64.223,149.054L61.536,152.541L77.736,153.763Z" class="lCaWXkvr_53"></path>
		<path fill="none" stroke="#000000" d="M385.165,167.488l186.716-13.275l-3.654-3.612c-0.086-0.02-0.199-0.023-0.297-0.023
			l-184.76,14.809L385.165,167.488z" class="lCaWXkvr_54"></path>
		<path fill="none" stroke="#000000" d="M588.415,152.751l17.531-1.484l-3.269-3.438c-0.1-0.074-0.345-0.13-0.651-0.13
			l-17.185,1.284L588.415,152.751z" class="lCaWXkvr_55"></path>
	</g>
	<g>
		<path fill="none" stroke="#000000" d="M305.851,155.348l7.476-0.565l-46.927-52.455c-0.076-0.01-0.168-0.02-0.282-0.02
			l-13.081,1.192L305.851,155.348z" class="lCaWXkvr_56"></path>
		<path fill="none" stroke="#000000" d="M260.819,96.376l-4.55-4.79c-0.081-0.093-0.378-0.136-0.632-0.136l-12.848,1.154
			l4.566,4.789L260.819,96.376z" class="lCaWXkvr_57"></path>
		<path fill="none" stroke="#000000" d="M342.907,155.354L395.283,103.261L382.627,102.317L382.019,102.466L335.447,154.782Z" class="lCaWXkvr_58"></path>
		<path fill="none" stroke="#000000" d="M405.483,92.381L393.113,91.455L392.477,91.604L387.895,96.384L401.286,97.394Z" class="lCaWXkvr_59"></path>
	</g>
	<g>
		<path fill="none" stroke="#000000" d="M53.571,310.552c0.182,0.087,0.393,0.129,0.666,0.129l102.544-1.743v-2.791l-102.544-1.84
			l-0.943,0.469L53.571,310.552z" class="lCaWXkvr_60"></path>
		<path fill="none" stroke="#000000" d="M20.034,304.824v5.33c0,0.269,0.405,0.475,0.934,0.475h15.008v-6.27H20.954
			C20.439,304.359,20.034,304.565,20.034,304.824z" class="lCaWXkvr_61"></path>
	</g>
	<g>
		<path fill="none" stroke="#000000" d="M593.683,304.775L592.744,304.307L490.2,306.146L490.2,308.938L592.726,310.687L
			593.683,310.215Z" class="lCaWXkvr_62"></path>
		<path fill="none" stroke="#000000" d="M626.966,310.154v-5.33c0-0.217-0.508-0.461-0.927-0.461l-15.047-0.004v6.27h15.047
			C626.539,310.629,626.966,310.423,626.966,310.154z" class="lCaWXkvr_63"></path>
	</g>
	<g>
		<path fill="none" stroke="#000000" d="M164.693,303.282c0-2.699,2.596-6.045,7.629-6.045c1.659,0,3.528,0.723,3.918,0.723
			c0.364,0,0.723-0.359,1.269-0.359c0.881,0,2.855,1.995,2.855,4.177c0,0.881-0.57,1.764-1.53,1.764
			c-1.739,0-2.751-2.958-5.448-2.958c-0.805,0-1.663,0.361-1.663,1.298c0,2.047,3.554,1.504,6.567,3.503
			c1.606,1.061,2.414,2.361,2.414,4.307c0,3.036-2.493,6.46-8.54,6.46c-1.71,0-4.644-0.439-6.124-1.245
			c-1.245-0.698-1.841-3.453-1.841-4.775c0-0.698,0.311-1.402,1.092-1.402c1.839,0,1.528,4.128,6.304,4.128
			c0.57,0,1.997-0.285,1.997-1.271c0-1.87-3.554-1.401-6.435-3.709C165.732,306.732,164.693,305.149,164.693,303.282z" class="lCaWXkvr_64"></path>
		<path fill="none" stroke="#000000" d="M192.338,297.601c3.477,0,3.968-0.521,4.383-0.521c1.479,0,2.102,2.544,2.102,3.684
			c0,0.856-0.337,1.869-1.35,1.869c-2.05,0-0.388-2.49-5.316-2.49c-2.883,0-2.596,0.518-2.596,3.504
			c0,1.504,0.076,1.557,1.659,1.557c1.974,0,0.496-2.881,2.335-2.881c1.506,0,1.609,2.934,1.609,3.943
			c0,1.064-0.181,4.177-1.738,4.177c-1.61,0,0-2.723-2.62-2.723c-1.09,0-1.063,0.984-1.063,1.815c0,3.789,0.259,3.609,2.984,3.609
			c5.319,0,3.812-3.662,5.939-3.662c0.834,0,1.248,0.937,1.248,1.66c0,1.767-1.401,4.933-2.44,4.933c-0.18,0-0.594-0.081-1.14-0.157
			c-0.572-0.053-1.298-0.13-2.179-0.13h-10.667c-1.709,0-1.736-0.778-1.736-1.115c0-1.426,1.762-0.285,1.946-3.037
			c0.309-4.723,0.335-4.254,0.077-8.952c-0.182-3.97-2.155-1.92-2.155-3.763c0-1.58,2.179-1.319,3.245-1.319H192.338z" class="lCaWXkvr_65"></path>
		<path fill="none" stroke="#000000" d="M214.351,303.852c0.311,0.259,1.14,1.011,1.61,1.011c0.646,0,0.672-1.063,0.672-1.504
			c0-0.646-0.026-1.766-0.232-2.361c-0.364-1.089-1.739-0.699-1.739-2.104c0-1.656,2.646-1.579,3.736-1.579
			c1.14,0,3.971-0.13,3.971,1.656c0,1.48-1.375,0.938-1.815,2.131c-0.34,0.935-0.34,2.544-0.34,3.528v6.72
			c0,1.166,0.156,4.725-1.581,4.725c-0.522,0-0.962-0.311-1.351-0.651l-8.017-7.187c-0.362-0.338-1.038-0.96-1.584-0.96
			c-0.802,0-0.83,1.686-0.83,2.231c0,0.729,0.028,1.686,0.182,2.361c0.388,1.661,1.768,1.039,1.768,2.309
			c0,1.739-2.672,1.896-3.894,1.896c-1.192,0-3.865-0.157-3.865-1.844c0-1.375,1.504-0.831,1.762-2.49
			c0.183-1.116,0.235-2.75,0.235-3.918c0-1.868,0-3.765-0.288-5.63c-0.417-2.597-2.283-1.583-2.283-3.141
			c0-1.843,3.504-1.737,4.67-1.737c1.611,0,1.894,0.103,3.062,1.14L214.351,303.852z" class="lCaWXkvr_66"></path>
		<path fill="none" stroke="#000000" d="M225.467,301.854c0.054-2.673-1.891-1.375-1.891-3.063c0-1.19,1.503-1.374,2.408-1.374
			h8.461c7.216,0,9.577,4.464,9.577,9.131c0,4.828-2.831,9.369-9.393,9.369c-1.116,0-2.055-0.024-2.854-0.077
			c-0.807-0.026-1.508-0.053-2.231-0.053c-0.729,0-1.48,0.026-2.208,0.053c-0.724,0.053-1.452,0.077-2.206,0.077
			c-0.879,0-1.995-0.441-1.995-1.48c0-1.866,2.047,0.211,2.126-3.577L225.467,301.854z M231.697,311.35
			c0,1.324,0.208,1.87,1.607,1.87c3.271,0,3.841-3.349,3.841-5.943c0-6.071-2.284-7.031-4.282-7.031
			c-1.087,0-1.166,0.44-1.166,1.427V311.35z" class="lCaWXkvr_67"></path>
		<path fill="none" stroke="#000000" d="M249.947,306.418c0.807-1.788,1.87-4.07,1.87-6.12c0-1.791,0.831-3.142,3.139-3.142
			c2.256,0,3.684,2.311,4.694,4.022c0.446,0.752,4.361,8.692,5.297,10.82c0.855,1.973,2.256,0.777,2.256,2.255
			c0,1.896-3.683,1.82-4.981,1.82c-3.711,0-5.943-0.028-5.943-1.638c0-1.245,1.583-0.776,1.583-1.687
			c0-1.166-0.649-1.269-4.826-1.269c-1.35,0-2.152,0.047-2.152,1.321c0,1.011,1.659,0.341,1.659,1.687
			c0,1.557-2.801,1.585-3.84,1.585c-3.71,0-4.048-0.701-4.048-1.532c0-1.219,1.401-0.857,2.155-1.792
			c0.57-0.698,1.116-1.943,1.504-2.775L249.947,306.418z M255.397,308.287c0.259,0,1.037,0.053,1.037-0.336
			c0-0.388-0.75-1.739-0.96-2.103c-0.232-0.414-0.675-1.374-1.245-1.374c-0.623,0-1.064,1.557-1.164,1.844
			c-0.106,0.282-0.546,1.298-0.546,1.606c0,0.443,0.646,0.362,0.934,0.362H255.397z" class="lCaWXkvr_68"></path>
		<path fill="none" stroke="#000000" d="M269.732,305.408c0-3.295-0.261-4.048-0.546-4.411c-0.594-0.752-1.607-0.829-1.607-1.815
			c0-1.867,5.292-1.867,5.812-1.867c1.557,0,4.746,0.052,4.746,1.814c0,0.934-0.986,0.882-1.58,1.557
			c-0.494,0.57-0.52,2.907-0.52,4.723v2.572c0,4.616,0.312,4.511,0.832,4.822c0.646,0.389,1.269,0.521,1.269,1.322
			c0,0.78-0.232,1.949-5.914,1.949c-1.09,0-4.359-0.028-4.359-1.688c0-0.831,0.881-0.961,1.298-1.454
			c0.31-0.362,0.57-1.322,0.57-4.952V305.408z" class="lCaWXkvr_69"></path>
		<path fill="none" stroke="#000000" d="M283.828,311.429c-0.623,0-1.269-0.209-1.892-0.209c-2.26,0-2.414,0.104-2.649,0.104
			c-0.414,0-0.778-0.311-0.778-0.775c0-0.651,0.804-2.752,1.039-3.219c0.338-0.652,0.649-0.935,1.4-0.935
			c0.623,0,1.27,0.206,1.893,0.206c2.258,0,2.414-0.104,2.649-0.104c0.411,0,0.775,0.312,0.775,0.779
			c0,0.648-0.802,2.749-1.036,3.219C284.892,311.142,284.581,311.429,283.828,311.429z" class="lCaWXkvr_70"></path>
		<path fill="none" stroke="#000000" d="M298.232,312.285c-0.44-0.521-1.973-2.414-2.569-2.414c-0.675,0-0.778,0.677-0.778,1.428
			v0.547c0,1.242,1.636,1.346,1.636,2.617c0,0.831-0.599,1.611-5.164,1.611c-4.099,0-4.619-0.701-4.619-1.585
			c0-1.346,1.3-0.646,1.61-2.802c0.232-1.451,0.258-3.113,0.258-4.594c0-1.606,0.027-3.477-0.258-5.058
			c-0.338-2.231-1.712-1.273-1.712-2.854c0-0.416-0.235-1.867,5.448-1.867c1.219,0,3.92-0.029,3.92,1.762
			c0,1.375-1.43,0.547-1.43,3.606c0,0.341,0.026,1.09,0.497,1.09c0.699,0,2.749-2.671,2.749-3.267c0-0.546-0.417-0.807-0.417-1.377
			c0-1.92,3.424-1.814,4.669-1.814c1.248,0,4.256-0.13,4.256,1.709c0,2.127-2.698,0.857-3.604,1.768
			c-0.521,0.517-2.725,2.103-2.725,3.189c0,0.702,0.623,1.324,1.038,1.818l5.423,6.2c0.779,0.881,2.361,0.777,2.361,2.36
			c0,1.299-1.323,1.428-2.337,1.428h-4.411c-1.01,0-1.036-0.076-2.074-1.351L298.232,312.285z" class="lCaWXkvr_71"></path>
		<path fill="none" stroke="#000000" d="M314.127,306.418c0.803-1.788,1.868-4.07,1.868-6.12c0-1.791,0.828-3.142,3.137-3.142
			c2.261,0,3.683,2.311,4.698,4.022c0.441,0.752,4.359,8.692,5.293,10.82c0.854,1.973,2.256,0.777,2.256,2.255
			c0,1.896-3.684,1.82-4.981,1.82c-3.712,0-5.941-0.028-5.941-1.638c0-1.245,1.581-0.776,1.581-1.687
			c0-1.166-0.645-1.269-4.825-1.269c-1.346,0-2.153,0.047-2.153,1.321c0,1.011,1.659,0.341,1.659,1.687
			c0,1.557-2.802,1.585-3.839,1.585c-3.709,0-4.047-0.701-4.047-1.532c0-1.219,1.4-0.857,2.153-1.792
			c0.569-0.698,1.116-1.943,1.504-2.775L314.127,306.418z M319.572,308.287c0.262,0,1.04,0.053,1.04-0.336
			c0-0.388-0.753-1.739-0.963-2.103c-0.229-0.414-0.671-1.374-1.243-1.374c-0.623,0-1.062,1.557-1.168,1.844
			c-0.104,0.282-0.544,1.298-0.544,1.606c0,0.443,0.649,0.362,0.934,0.362H319.572z" class="lCaWXkvr_72"></path>
		<path fill="none" stroke="#000000" d="M333.907,305.408c0-3.295-0.258-4.048-0.546-4.411c-0.594-0.752-1.604-0.829-1.604-1.815
			c0-1.867,5.293-1.867,5.81-1.867c1.557,0,4.752,0.052,4.752,1.814c0,0.934-0.987,0.882-1.585,1.557
			c-0.494,0.57-0.521,2.907-0.521,4.723v2.572c0,4.616,0.312,4.511,0.832,4.822c0.646,0.389,1.273,0.521,1.273,1.322
			c0,0.78-0.234,1.949-5.921,1.949c-1.089,0-4.355-0.028-4.355-1.688c0-0.831,0.879-0.961,1.296-1.454
			c0.312-0.362,0.569-1.322,0.569-4.952V305.408z" class="lCaWXkvr_73"></path>
		<path fill="none" stroke="#000000" d="M355.606,297.601c1.114,0,1.636-0.105,2.024-0.184c0.363-0.103,0.569-0.18,1.062-0.18
			c1.014,0,3.113,1.994,3.113,4.799c0,1.299-0.673,2.15-1.997,2.15c-2.256,0-2.229-3.06-3.554-3.06
			c-1.011,0-0.905,1.402-0.905,1.608v7.965c0,3.089,2.385,1.61,2.385,3.425c0,0.805-0.493,1.949-5.345,1.949
			c-1.324,0-6.176,0.05-6.176-1.949c0-1.375,1.606-0.828,2.129-1.814c0.259-0.547,0.361-2.101,0.388-2.75l0.206-5.733
			c0.105-2.726-0.44-2.7-0.806-2.7c-1.166,0-1.737,3.06-3.836,3.06c-1.016,0-1.608-0.931-1.608-1.865
			c0-2.206,1.867-5.084,3.348-5.084c0.18,0,0.465,0.077,0.957,0.18c0.494,0.078,1.195,0.184,2.232,0.184H355.606z" class="lCaWXkvr_74"></path>
		<path fill="none" stroke="#000000" d="M362.441,306.63c0-5.503,4.385-9.393,10.041-9.393c7.163,0,9.915,6.304,9.915,9.651
			c0,5.579-4.931,9.262-10.227,9.262C366.697,316.15,362.441,312.156,362.441,306.63z M371.29,301.102
			c-1.451,0-2.179,1.504-2.179,2.773c0,2.208,1.556,8.41,4.358,8.41c1.583,0,2.255-1.374,2.255-2.777
			C375.725,307.147,374.326,301.102,371.29,301.102z" class="lCaWXkvr_75"></path>
		<path fill="none" stroke="#000000" d="M385.391,302.997c0-4.026-1.974-2.364-1.974-3.974c0-1.423,2.025-1.606,3.063-1.606
			c0.546,0,1.063,0.052,1.608,0.078c0.521,0.051,1.063,0.105,1.583,0.105c0.831,0,1.66-0.055,2.518-0.105
			c0.831-0.026,1.684-0.078,2.517-0.078c2.932,0,6.332,1.296,6.332,4.749c0,1.556-0.752,3.06-2.205,3.76
			c-0.235,0.132-0.415,0.208-0.415,0.519c0,0.391,0.336,0.497,0.646,0.626c1.817,0.675,2.619,1.867,2.984,4.67
			c0.312,2.411,1.997,0.96,1.997,2.543c0,0.986-1.193,2.021-4.124,2.021c-4.152,0-4.67-2.385-5.477-5.809
			c-0.285-1.195-0.726-2.361-2.153-2.361c-0.57,0-0.777,0.076-0.777,1.712c0,0.752,0.052,1.789,0.18,2.517
			c0.21,1.193,1.531,0.829,1.531,2.074c0,0.937-0.646,1.638-4.852,1.638c-1.245,0-4.928,0-4.928-1.896
			c0-1.346,1.944-0.415,1.944-3.789V302.997z M391.411,304.137c-0.053,0.676-0.182,1.247,0.675,1.247
			c1.687,0,2.229-0.936,2.229-2.543c0-1.274-0.311-2.569-1.814-2.569c-0.96,0-0.935,0.597-0.986,1.4L391.411,304.137z" class="lCaWXkvr_76"></path>
		<path fill="none" stroke="#000000" d="M406.757,305.408c0-3.295-0.259-4.048-0.544-4.411c-0.597-0.752-1.609-0.829-1.609-1.815
			c0-1.867,5.296-1.867,5.812-1.867c1.557,0,4.749,0.052,4.749,1.814c0,0.934-0.984,0.882-1.583,1.557
			c-0.494,0.57-0.518,2.907-0.518,4.723v2.572c0,4.616,0.312,4.511,0.829,4.822c0.648,0.389,1.271,0.521,1.271,1.322
			c0,0.78-0.234,1.949-5.918,1.949c-1.087,0-4.358-0.028-4.358-1.688c0-0.831,0.881-0.961,1.298-1.454
			c0.312-0.362,0.57-1.322,0.57-4.952V305.408z" class="lCaWXkvr_77"></path>
		<path fill="none" stroke="#000000" d="M427.495,312.285c-0.44-0.521-1.97-2.414-2.567-2.414c-0.675,0-0.78,0.677-0.78,1.428v0.547
			c0,1.242,1.638,1.346,1.638,2.617c0,0.831-0.599,1.611-5.165,1.611c-4.1,0-4.62-0.701-4.62-1.585c0-1.346,1.298-0.646,1.609-2.802
			c0.235-1.451,0.262-3.113,0.262-4.594c0-1.606,0.026-3.477-0.262-5.058c-0.335-2.231-1.712-1.273-1.712-2.854
			c0-0.416-0.231-1.867,5.448-1.867c1.222,0,3.918-0.029,3.918,1.762c0,1.375-1.428,0.547-1.428,3.606
			c0,0.341,0.026,1.09,0.494,1.09c0.703,0,2.749-2.671,2.749-3.267c0-0.546-0.414-0.807-0.414-1.377c0-1.92,3.427-1.814,4.672-1.814
			s4.255-0.13,4.255,1.709c0,2.127-2.698,0.857-3.608,1.768c-0.518,0.517-2.723,2.103-2.723,3.189c0,0.702,0.625,1.324,1.039,1.818
			l5.424,6.2c0.776,0.881,2.359,0.777,2.359,2.36c0,1.299-1.324,1.428-2.336,1.428h-4.41c-1.011,0-1.037-0.076-2.076-1.351
			L427.495,312.285z" class="lCaWXkvr_78"></path>
		<path fill="none" stroke="#000000" d="M443.387,306.418c0.806-1.788,1.868-4.07,1.868-6.12c0-1.791,0.834-3.142,3.142-3.142
			c2.256,0,3.684,2.311,4.694,4.022c0.445,0.752,4.361,8.692,5.297,10.82c0.854,1.973,2.256,0.777,2.256,2.255
			c0,1.896-3.688,1.82-4.981,1.82c-3.712,0-5.943-0.028-5.943-1.638c0-1.245,1.583-0.776,1.583-1.687
			c0-1.166-0.649-1.269-4.825-1.269c-1.351,0-2.155,0.047-2.155,1.321c0,1.011,1.661,0.341,1.661,1.687
			c0,1.557-2.802,1.585-3.841,1.585c-3.71,0-4.047-0.701-4.047-1.532c0-1.219,1.4-0.857,2.155-1.792
			c0.569-0.698,1.113-1.943,1.504-2.775L443.387,306.418z M448.838,308.287c0.259,0,1.036,0.053,1.036-0.336
			c0-0.388-0.751-1.739-0.96-2.103c-0.234-0.414-0.676-1.374-1.245-1.374c-0.623,0-1.062,1.557-1.169,1.844
			c-0.1,0.282-0.541,1.298-0.541,1.606c0,0.443,0.647,0.362,0.932,0.362H448.838z" class="lCaWXkvr_79"></path>
		<path fill="none" stroke="#000000" d="M474.9,303.852c0.309,0.259,1.142,1.011,1.611,1.011c0.646,0,0.67-1.063,0.67-1.504
			c0-0.646-0.023-1.766-0.229-2.361c-0.364-1.089-1.743-0.699-1.743-2.104c0-1.656,2.648-1.579,3.74-1.579
			c1.141,0,3.968-0.13,3.968,1.656c0,1.48-1.374,0.938-1.814,2.131c-0.338,0.935-0.338,2.544-0.338,3.528v6.72
			c0,1.166,0.153,4.725-1.583,4.725c-0.52,0-0.96-0.311-1.35-0.651l-8.016-7.187c-0.365-0.338-1.04-0.96-1.586-0.96
			c-0.805,0-0.828,1.686-0.828,2.231c0,0.729,0.023,1.686,0.182,2.361c0.389,1.661,1.765,1.039,1.765,2.309
			c0,1.739-2.673,1.896-3.892,1.896c-1.195,0-3.867-0.157-3.867-1.844c0-1.375,1.506-0.831,1.765-2.49
			c0.183-1.116,0.232-2.75,0.232-3.918c0-1.868,0-3.765-0.285-5.63c-0.416-2.597-2.284-1.583-2.284-3.141
			c0-1.843,3.506-1.737,4.67-1.737c1.609,0,1.896,0.103,3.062,1.14L474.9,303.852z" class="lCaWXkvr_80"></path>
	</g>
</g>
<style>.lCaWXkvr_0{stroke-dasharray:160 162;stroke-dashoffset:161;animation:lCaWXkvr_draw_0 6200ms linear 0ms infinite,lCaWXkvr_fade 6200ms linear 0ms infinite;}.lCaWXkvr_1{stroke-dasharray:310 312;stroke-dashoffset:311;animation:lCaWXkvr_draw_1 6200ms linear 0ms infinite,lCaWXkvr_fade 6200ms linear 0ms infinite;}.lCaWXkvr_2{stroke-dasharray:189 191;stroke-dashoffset:190;animation:lCaWXkvr_draw_2 6200ms linear 0ms infinite,lCaWXkvr_fade 6200ms linear 0ms infinite;}.lCaWXkvr_3{stroke-dasharray:151 153;stroke-dashoffset:152;animation:lCaWXkvr_draw_3 6200ms linear 0ms infinite,lCaWXkvr_fade 6200ms linear 0ms infinite;}.lCaWXkvr_4{stroke-dasharray:156 158;stroke-dashoffset:157;animation:lCaWXkvr_draw_4 6200ms linear 0ms infinite,lCaWXkvr_fade 6200ms linear 0ms infinite;}.lCaWXkvr_5{stroke-dasharray:126 128;stroke-dashoffset:127;animation:lCaWXkvr_draw_5 6200ms linear 0ms infinite,lCaWXkvr_fade 6200ms linear 0ms infinite;}.lCaWXkvr_6{stroke-dasharray:239 241;stroke-dashoffset:240;animation:lCaWXkvr_draw_6 6200ms linear 0ms infinite,lCaWXkvr_fade 6200ms linear 0ms infinite;}.lCaWXkvr_7{stroke-dasharray:241 243;stroke-dashoffset:242;animation:lCaWXkvr_draw_7 6200ms linear 0ms infinite,lCaWXkvr_fade 6200ms linear 0ms infinite;}.lCaWXkvr_8{stroke-dasharray:293 295;stroke-dashoffset:294;animation:lCaWXkvr_draw_8 6200ms linear 0ms infinite,lCaWXkvr_fade 6200ms linear 0ms infinite;}.lCaWXkvr_9{stroke-dasharray:247 249;stroke-dashoffset:248;animation:lCaWXkvr_draw_9 6200ms linear 0ms infinite,lCaWXkvr_fade 6200ms linear 0ms infinite;}.lCaWXkvr_10{stroke-dasharray:251 253;stroke-dashoffset:252;animation:lCaWXkvr_draw_10 6200ms linear 0ms infinite,lCaWXkvr_fade 6200ms linear 0ms infinite;}.lCaWXkvr_11{stroke-dasharray:31 33;stroke-dashoffset:32;animation:lCaWXkvr_draw_11 6200ms linear 0ms infinite,lCaWXkvr_fade 6200ms linear 0ms infinite;}.lCaWXkvr_12{stroke-dasharray:31 33;stroke-dashoffset:32;animation:lCaWXkvr_draw_12 6200ms linear 0ms infinite,lCaWXkvr_fade 6200ms linear 0ms infinite;}.lCaWXkvr_13{stroke-dasharray:257 259;stroke-dashoffset:258;animation:lCaWXkvr_draw_13 6200ms linear 0ms infinite,lCaWXkvr_fade 6200ms linear 0ms infinite;}.lCaWXkvr_14{stroke-dasharray:483 485;stroke-dashoffset:484;animation:lCaWXkvr_draw_14 6200ms linear 0ms infinite,lCaWXkvr_fade 6200ms linear 0ms infinite;}.lCaWXkvr_15{stroke-dasharray:121 123;stroke-dashoffset:122;animation:lCaWXkvr_draw_15 6200ms linear 0ms infinite,lCaWXkvr_fade 6200ms linear 0ms infinite;}.lCaWXkvr_16{stroke-dasharray:127 129;stroke-dashoffset:128;animation:lCaWXkvr_draw_16 6200ms linear 0ms infinite,lCaWXkvr_fade 6200ms linear 0ms infinite;}.lCaWXkvr_17{stroke-dasharray:28 30;stroke-dashoffset:29;animation:lCaWXkvr_draw_17 6200ms linear 0ms infinite,lCaWXkvr_fade 6200ms linear 0ms infinite;}.lCaWXkvr_18{stroke-dasharray:28 30;stroke-dashoffset:29;animation:lCaWXkvr_draw_18 6200ms linear 0ms infinite,lCaWXkvr_fade 6200ms linear 0ms infinite;}.lCaWXkvr_19{stroke-dasharray:191 193;stroke-dashoffset:192;animation:lCaWXkvr_draw_19 6200ms linear 0ms infinite,lCaWXkvr_fade 6200ms linear 0ms infinite;}.lCaWXkvr_20{stroke-dasharray:135 137;stroke-dashoffset:136;animation:lCaWXkvr_draw_20 6200ms linear 0ms infinite,lCaWXkvr_fade 6200ms linear 0ms infinite;}.lCaWXkvr_21{stroke-dasharray:95 97;stroke-dashoffset:96;animation:lCaWXkvr_draw_21 6200ms linear 0ms infinite,lCaWXkvr_fade 6200ms linear 0ms infinite;}.lCaWXkvr_22{stroke-dasharray:147 149;stroke-dashoffset:148;animation:lCaWXkvr_draw_22 6200ms linear 0ms infinite,lCaWXkvr_fade 6200ms linear 0ms infinite;}.lCaWXkvr_23{stroke-dasharray:383 385;stroke-dashoffset:384;animation:lCaWXkvr_draw_23 6200ms linear 0ms infinite,lCaWXkvr_fade 6200ms linear 0ms infinite;}.lCaWXkvr_24{stroke-dasharray:65 67;stroke-dashoffset:66;animation:lCaWXkvr_draw_24 6200ms linear 0ms infinite,lCaWXkvr_fade 6200ms linear 0ms infinite;}.lCaWXkvr_25{stroke-dasharray:466 468;stroke-dashoffset:467;animation:lCaWXkvr_draw_25 6200ms linear 0ms infinite,lCaWXkvr_fade 6200ms linear 0ms infinite;}.lCaWXkvr_26{stroke-dasharray:29 31;stroke-dashoffset:30;animation:lCaWXkvr_draw_26 6200ms linear 0ms infinite,lCaWXkvr_fade 6200ms linear 0ms infinite;}.lCaWXkvr_27{stroke-dasharray:274 276;stroke-dashoffset:275;animation:lCaWXkvr_draw_27 6200ms linear 0ms infinite,lCaWXkvr_fade 6200ms linear 0ms infinite;}.lCaWXkvr_28{stroke-dasharray:81 83;stroke-dashoffset:82;animation:lCaWXkvr_draw_28 6200ms linear 0ms infinite,lCaWXkvr_fade 6200ms linear 0ms infinite;}.lCaWXkvr_29{stroke-dasharray:91 93;stroke-dashoffset:92;animation:lCaWXkvr_draw_29 6200ms linear 0ms infinite,lCaWXkvr_fade 6200ms linear 0ms infinite;}.lCaWXkvr_30{stroke-dasharray:37 39;stroke-dashoffset:38;animation:lCaWXkvr_draw_30 6200ms linear 0ms infinite,lCaWXkvr_fade 6200ms linear 0ms infinite;}.lCaWXkvr_31{stroke-dasharray:40 42;stroke-dashoffset:41;animation:lCaWXkvr_draw_31 6200ms linear 0ms infinite,lCaWXkvr_fade 6200ms linear 0ms infinite;}.lCaWXkvr_32{stroke-dasharray:165 167;stroke-dashoffset:166;animation:lCaWXkvr_draw_32 6200ms linear 0ms infinite,lCaWXkvr_fade 6200ms linear 0ms infinite;}.lCaWXkvr_33{stroke-dasharray:139 141;stroke-dashoffset:140;animation:lCaWXkvr_draw_33 6200ms linear 0ms infinite,lCaWXkvr_fade 6200ms linear 0ms infinite;}.lCaWXkvr_34{stroke-dasharray:147 149;stroke-dashoffset:148;animation:lCaWXkvr_draw_34 6200ms linear 0ms infinite,lCaWXkvr_fade 6200ms linear 0ms infinite;}.lCaWXkvr_35{stroke-dasharray:63 65;stroke-dashoffset:64;animation:lCaWXkvr_draw_35 6200ms linear 0ms infinite,lCaWXkvr_fade 6200ms linear 0ms infinite;}.lCaWXkvr_36{stroke-dasharray:356 358;stroke-dashoffset:357;animation:lCaWXkvr_draw_36 6200ms linear 0ms infinite,lCaWXkvr_fade 6200ms linear 0ms infinite;}.lCaWXkvr_37{stroke-dasharray:63 65;stroke-dashoffset:64;animation:lCaWXkvr_draw_37 6200ms linear 0ms infinite,lCaWXkvr_fade 6200ms linear 0ms infinite;}.lCaWXkvr_38{stroke-dasharray:359 361;stroke-dashoffset:360;animation:lCaWXkvr_draw_38 6200ms linear 0ms infinite,lCaWXkvr_fade 6200ms linear 0ms infinite;}.lCaWXkvr_39{stroke-dasharray:63 65;stroke-dashoffset:64;animation:lCaWXkvr_draw_39 6200ms linear 0ms infinite,lCaWXkvr_fade 6200ms linear 0ms infinite;}.lCaWXkvr_40{stroke-dasharray:299 301;stroke-dashoffset:300;animation:lCaWXkvr_draw_40 6200ms linear 0ms infinite,lCaWXkvr_fade 6200ms linear 0ms infinite;}.lCaWXkvr_41{stroke-dasharray:47 49;stroke-dashoffset:48;animation:lCaWXkvr_draw_41 6200ms linear 0ms infinite,lCaWXkvr_fade 6200ms linear 0ms infinite;}.lCaWXkvr_42{stroke-dasharray:299 301;stroke-dashoffset:300;animation:lCaWXkvr_draw_42 6200ms linear 0ms infinite,lCaWXkvr_fade 6200ms linear 0ms infinite;}.lCaWXkvr_43{stroke-dasharray:47 49;stroke-dashoffset:48;animation:lCaWXkvr_draw_43 6200ms linear 0ms infinite,lCaWXkvr_fade 6200ms linear 0ms infinite;}.lCaWXkvr_44{stroke-dasharray:298 300;stroke-dashoffset:299;animation:lCaWXkvr_draw_44 6200ms linear 0ms infinite,lCaWXkvr_fade 6200ms linear 0ms infinite;}.lCaWXkvr_45{stroke-dasharray:55 57;stroke-dashoffset:56;animation:lCaWXkvr_draw_45 6200ms linear 0ms infinite,lCaWXkvr_fade 6200ms linear 0ms infinite;}.lCaWXkvr_46{stroke-dasharray:298 300;stroke-dashoffset:299;animation:lCaWXkvr_draw_46 6200ms linear 0ms infinite,lCaWXkvr_fade 6200ms linear 0ms infinite;}.lCaWXkvr_47{stroke-dasharray:55 57;stroke-dashoffset:56;animation:lCaWXkvr_draw_47 6200ms linear 0ms infinite,lCaWXkvr_fade 6200ms linear 0ms infinite;}.lCaWXkvr_48{stroke-dasharray:55 57;stroke-dashoffset:56;animation:lCaWXkvr_draw_48 6200ms linear 0ms infinite,lCaWXkvr_fade 6200ms linear 0ms infinite;}.lCaWXkvr_49{stroke-dasharray:183 185;stroke-dashoffset:184;animation:lCaWXkvr_draw_49 6200ms linear 0ms infinite,lCaWXkvr_fade 6200ms linear 0ms infinite;}.lCaWXkvr_50{stroke-dasharray:55 57;stroke-dashoffset:56;animation:lCaWXkvr_draw_50 6200ms linear 0ms infinite,lCaWXkvr_fade 6200ms linear 0ms infinite;}.lCaWXkvr_51{stroke-dasharray:183 185;stroke-dashoffset:184;animation:lCaWXkvr_draw_51 6200ms linear 0ms infinite,lCaWXkvr_fade 6200ms linear 0ms infinite;}.lCaWXkvr_52{stroke-dasharray:381 383;stroke-dashoffset:382;animation:lCaWXkvr_draw_52 6200ms linear 0ms infinite,lCaWXkvr_fade 6200ms linear 0ms infinite;}.lCaWXkvr_53{stroke-dasharray:43 45;stroke-dashoffset:44;animation:lCaWXkvr_draw_53 6200ms linear 0ms infinite,lCaWXkvr_fade 6200ms linear 0ms infinite;}.lCaWXkvr_54{stroke-dasharray:381 383;stroke-dashoffset:382;animation:lCaWXkvr_draw_54 6200ms linear 0ms infinite,lCaWXkvr_fade 6200ms linear 0ms infinite;}.lCaWXkvr_55{stroke-dasharray:46 48;stroke-dashoffset:47;animation:lCaWXkvr_draw_55 6200ms linear 0ms infinite,lCaWXkvr_fade 6200ms linear 0ms infinite;}.lCaWXkvr_56{stroke-dasharray:166 168;stroke-dashoffset:167;animation:lCaWXkvr_draw_56 6200ms linear 0ms infinite,lCaWXkvr_fade 6200ms linear 0ms infinite;}.lCaWXkvr_57{stroke-dasharray:41 43;stroke-dashoffset:42;animation:lCaWXkvr_draw_57 6200ms linear 0ms infinite,lCaWXkvr_fade 6200ms linear 0ms infinite;}.lCaWXkvr_58{stroke-dasharray:165 167;stroke-dashoffset:166;animation:lCaWXkvr_draw_58 6200ms linear 0ms infinite,lCaWXkvr_fade 6200ms linear 0ms infinite;}.lCaWXkvr_59{stroke-dasharray:40 42;stroke-dashoffset:41;animation:lCaWXkvr_draw_59 6200ms linear 0ms infinite,lCaWXkvr_fade 6200ms linear 0ms infinite;}.lCaWXkvr_60{stroke-dasharray:216 218;stroke-dashoffset:217;animation:lCaWXkvr_draw_60 6200ms linear 0ms infinite,lCaWXkvr_fade 6200ms linear 0ms infinite;}.lCaWXkvr_61{stroke-dasharray:44 46;stroke-dashoffset:45;animation:lCaWXkvr_draw_61 6200ms linear 0ms infinite,lCaWXkvr_fade 6200ms linear 0ms infinite;}.lCaWXkvr_62{stroke-dasharray:216 218;stroke-dashoffset:217;animation:lCaWXkvr_draw_62 6200ms linear 0ms infinite,lCaWXkvr_fade 6200ms linear 0ms infinite;}.lCaWXkvr_63{stroke-dasharray:44 46;stroke-dashoffset:45;animation:lCaWXkvr_draw_63 6200ms linear 0ms infinite,lCaWXkvr_fade 6200ms linear 0ms infinite;}.lCaWXkvr_64{stroke-dasharray:96 98;stroke-dashoffset:97;animation:lCaWXkvr_draw_64 6200ms linear 0ms infinite,lCaWXkvr_fade 6200ms linear 0ms infinite;}.lCaWXkvr_65{stroke-dasharray:114 116;stroke-dashoffset:115;animation:lCaWXkvr_draw_65 6200ms linear 0ms infinite,lCaWXkvr_fade 6200ms linear 0ms infinite;}.lCaWXkvr_66{stroke-dasharray:103 105;stroke-dashoffset:104;animation:lCaWXkvr_draw_66 6200ms linear 0ms infinite,lCaWXkvr_fade 6200ms linear 0ms infinite;}.lCaWXkvr_67{stroke-dasharray:104 106;stroke-dashoffset:105;animation:lCaWXkvr_draw_67 6200ms linear 0ms infinite,lCaWXkvr_fade 6200ms linear 0ms infinite;}.lCaWXkvr_68{stroke-dasharray:92 94;stroke-dashoffset:93;animation:lCaWXkvr_draw_68 6200ms linear 0ms infinite,lCaWXkvr_fade 6200ms linear 0ms infinite;}.lCaWXkvr_69{stroke-dasharray:58 60;stroke-dashoffset:59;animation:lCaWXkvr_draw_69 6200ms linear 0ms infinite,lCaWXkvr_fade 6200ms linear 0ms infinite;}.lCaWXkvr_70{stroke-dasharray:22 24;stroke-dashoffset:23;animation:lCaWXkvr_draw_70 6200ms linear 0ms infinite,lCaWXkvr_fade 6200ms linear 0ms infinite;}.lCaWXkvr_71{stroke-dasharray:106 108;stroke-dashoffset:107;animation:lCaWXkvr_draw_71 6200ms linear 0ms infinite,lCaWXkvr_fade 6200ms linear 0ms infinite;}.lCaWXkvr_72{stroke-dasharray:92 94;stroke-dashoffset:93;animation:lCaWXkvr_draw_72 6200ms linear 0ms infinite,lCaWXkvr_fade 6200ms linear 0ms infinite;}.lCaWXkvr_73{stroke-dasharray:58 60;stroke-dashoffset:59;animation:lCaWXkvr_draw_73 6200ms linear 0ms infinite,lCaWXkvr_fade 6200ms linear 0ms infinite;}.lCaWXkvr_74{stroke-dasharray:84 86;stroke-dashoffset:85;animation:lCaWXkvr_draw_74 6200ms linear 0ms infinite,lCaWXkvr_fade 6200ms linear 0ms infinite;}.lCaWXkvr_75{stroke-dasharray:90 92;stroke-dashoffset:91;animation:lCaWXkvr_draw_75 6200ms linear 0ms infinite,lCaWXkvr_fade 6200ms linear 0ms infinite;}.lCaWXkvr_76{stroke-dasharray:104 106;stroke-dashoffset:105;animation:lCaWXkvr_draw_76 6200ms linear 0ms infinite,lCaWXkvr_fade 6200ms linear 0ms infinite;}.lCaWXkvr_77{stroke-dasharray:58 60;stroke-dashoffset:59;animation:lCaWXkvr_draw_77 6200ms linear 0ms infinite,lCaWXkvr_fade 6200ms linear 0ms infinite;}.lCaWXkvr_78{stroke-dasharray:106 108;stroke-dashoffset:107;animation:lCaWXkvr_draw_78 6200ms linear 0ms infinite,lCaWXkvr_fade 6200ms linear 0ms infinite;}.lCaWXkvr_79{stroke-dasharray:92 94;stroke-dashoffset:93;animation:lCaWXkvr_draw_79 6200ms linear 0ms infinite,lCaWXkvr_fade 6200ms linear 0ms infinite;}.lCaWXkvr_80{stroke-dasharray:103 105;stroke-dashoffset:104;animation:lCaWXkvr_draw_80 6200ms linear 0ms infinite,lCaWXkvr_fade 6200ms linear 0ms infinite;}@keyframes lCaWXkvr_draw{100%{stroke-dashoffset:0;}}@keyframes lCaWXkvr_fade{0%{stroke-opacity:1;}93.54838709677419%{stroke-opacity:1;}100%{stroke-opacity:0;}}@keyframes lCaWXkvr_draw_0{12.903225806451612%{stroke-dashoffset: 161}34.40860215053764%{ stroke-dashoffset: 0;}100%{ stroke-dashoffset: 0;}}@keyframes lCaWXkvr_draw_1{13.03763440860215%{stroke-dashoffset: 311}34.543010752688176%{ stroke-dashoffset: 0;}100%{ stroke-dashoffset: 0;}}@keyframes lCaWXkvr_draw_2{13.172043010752688%{stroke-dashoffset: 190}34.67741935483871%{ stroke-dashoffset: 0;}100%{ stroke-dashoffset: 0;}}@keyframes lCaWXkvr_draw_3{13.306451612903224%{stroke-dashoffset: 152}34.81182795698925%{ stroke-dashoffset: 0;}100%{ stroke-dashoffset: 0;}}@keyframes lCaWXkvr_draw_4{13.440860215053766%{stroke-dashoffset: 157}34.946236559139784%{ stroke-dashoffset: 0;}100%{ stroke-dashoffset: 0;}}@keyframes lCaWXkvr_draw_5{13.5752688172043%{stroke-dashoffset: 127}35.08064516129033%{ stroke-dashoffset: 0;}100%{ stroke-dashoffset: 0;}}@keyframes lCaWXkvr_draw_6{13.709677419354838%{stroke-dashoffset: 240}35.215053763440864%{ stroke-dashoffset: 0;}100%{ stroke-dashoffset: 0;}}@keyframes lCaWXkvr_draw_7{13.844086021505378%{stroke-dashoffset: 242}35.34946236559141%{ stroke-dashoffset: 0;}100%{ stroke-dashoffset: 0;}}@keyframes lCaWXkvr_draw_8{13.978494623655912%{stroke-dashoffset: 294}35.483870967741936%{ stroke-dashoffset: 0;}100%{ stroke-dashoffset: 0;}}@keyframes lCaWXkvr_draw_9{14.112903225806454%{stroke-dashoffset: 248}35.61827956989247%{ stroke-dashoffset: 0;}100%{ stroke-dashoffset: 0;}}@keyframes lCaWXkvr_draw_10{14.247311827956988%{stroke-dashoffset: 252}35.752688172043015%{ stroke-dashoffset: 0;}100%{ stroke-dashoffset: 0;}}@keyframes lCaWXkvr_draw_11{14.381720430107524%{stroke-dashoffset: 32}35.88709677419355%{ stroke-dashoffset: 0;}100%{ stroke-dashoffset: 0;}}@keyframes lCaWXkvr_draw_12{14.516129032258066%{stroke-dashoffset: 32}36.02150537634409%{ stroke-dashoffset: 0;}100%{ stroke-dashoffset: 0;}}@keyframes lCaWXkvr_draw_13{14.6505376344086%{stroke-dashoffset: 258}36.15591397849463%{ stroke-dashoffset: 0;}100%{ stroke-dashoffset: 0;}}@keyframes lCaWXkvr_draw_14{14.78494623655914%{stroke-dashoffset: 484}36.29032258064516%{ stroke-dashoffset: 0;}100%{ stroke-dashoffset: 0;}}@keyframes lCaWXkvr_draw_15{14.919354838709678%{stroke-dashoffset: 122}36.424731182795696%{ stroke-dashoffset: 0;}100%{ stroke-dashoffset: 0;}}@keyframes lCaWXkvr_draw_16{15.053763440860212%{stroke-dashoffset: 128}36.55913978494624%{ stroke-dashoffset: 0;}100%{ stroke-dashoffset: 0;}}@keyframes lCaWXkvr_draw_17{15.188172043010754%{stroke-dashoffset: 29}36.693548387096776%{ stroke-dashoffset: 0;}100%{ stroke-dashoffset: 0;}}@keyframes lCaWXkvr_draw_18{15.32258064516129%{stroke-dashoffset: 29}36.82795698924731%{ stroke-dashoffset: 0;}100%{ stroke-dashoffset: 0;}}@keyframes lCaWXkvr_draw_19{15.456989247311828%{stroke-dashoffset: 192}36.962365591397855%{ stroke-dashoffset: 0;}100%{ stroke-dashoffset: 0;}}@keyframes lCaWXkvr_draw_20{15.591397849462366%{stroke-dashoffset: 136}37.096774193548384%{ stroke-dashoffset: 0;}100%{ stroke-dashoffset: 0;}}@keyframes lCaWXkvr_draw_21{15.725806451612904%{stroke-dashoffset: 96}37.23118279569893%{ stroke-dashoffset: 0;}100%{ stroke-dashoffset: 0;}}@keyframes lCaWXkvr_draw_22{15.86021505376344%{stroke-dashoffset: 148}37.36559139784947%{ stroke-dashoffset: 0;}100%{ stroke-dashoffset: 0;}}@keyframes lCaWXkvr_draw_23{15.994623655913978%{stroke-dashoffset: 384}37.5%{ stroke-dashoffset: 0;}100%{ stroke-dashoffset: 0;}}@keyframes lCaWXkvr_draw_24{16.129032258064516%{stroke-dashoffset: 66}37.634408602150536%{ stroke-dashoffset: 0;}100%{ stroke-dashoffset: 0;}}@keyframes lCaWXkvr_draw_25{16.263440860215052%{stroke-dashoffset: 467}37.76881720430108%{ stroke-dashoffset: 0;}100%{ stroke-dashoffset: 0;}}@keyframes lCaWXkvr_draw_26{16.397849462365592%{stroke-dashoffset: 30}37.903225806451616%{ stroke-dashoffset: 0;}100%{ stroke-dashoffset: 0;}}@keyframes lCaWXkvr_draw_27{16.532258064516128%{stroke-dashoffset: 275}38.03763440860216%{ stroke-dashoffset: 0;}100%{ stroke-dashoffset: 0;}}@keyframes lCaWXkvr_draw_28{16.666666666666664%{stroke-dashoffset: 82}38.172043010752695%{ stroke-dashoffset: 0;}100%{ stroke-dashoffset: 0;}}@keyframes lCaWXkvr_draw_29{16.8010752688172%{stroke-dashoffset: 92}38.306451612903224%{ stroke-dashoffset: 0;}100%{ stroke-dashoffset: 0;}}@keyframes lCaWXkvr_draw_30{16.93548387096774%{stroke-dashoffset: 38}38.44086021505377%{ stroke-dashoffset: 0;}100%{ stroke-dashoffset: 0;}}@keyframes lCaWXkvr_draw_31{17.06989247311828%{stroke-dashoffset: 41}38.575268817204304%{ stroke-dashoffset: 0;}100%{ stroke-dashoffset: 0;}}@keyframes lCaWXkvr_draw_32{17.204301075268816%{stroke-dashoffset: 166}38.70967741935484%{ stroke-dashoffset: 0;}100%{ stroke-dashoffset: 0;}}@keyframes lCaWXkvr_draw_33{17.338709677419356%{stroke-dashoffset: 140}38.84408602150538%{ stroke-dashoffset: 0;}100%{ stroke-dashoffset: 0;}}@keyframes lCaWXkvr_draw_34{17.473118279569892%{stroke-dashoffset: 148}38.97849462365592%{ stroke-dashoffset: 0;}100%{ stroke-dashoffset: 0;}}@keyframes lCaWXkvr_draw_35{17.60752688172043%{stroke-dashoffset: 64}39.11290322580645%{ stroke-dashoffset: 0;}100%{ stroke-dashoffset: 0;}}@keyframes lCaWXkvr_draw_36{17.741935483870968%{stroke-dashoffset: 357}39.24731182795699%{ stroke-dashoffset: 0;}100%{ stroke-dashoffset: 0;}}@keyframes lCaWXkvr_draw_37{17.876344086021504%{stroke-dashoffset: 64}39.38172043010753%{ stroke-dashoffset: 0;}100%{ stroke-dashoffset: 0;}}@keyframes lCaWXkvr_draw_38{18.01075268817204%{stroke-dashoffset: 360}39.516129032258064%{ stroke-dashoffset: 0;}100%{ stroke-dashoffset: 0;}}@keyframes lCaWXkvr_draw_39{18.14516129032258%{stroke-dashoffset: 64}39.65053763440861%{ stroke-dashoffset: 0;}100%{ stroke-dashoffset: 0;}}@keyframes lCaWXkvr_draw_40{18.279569892473116%{stroke-dashoffset: 300}39.78494623655914%{ stroke-dashoffset: 0;}100%{ stroke-dashoffset: 0;}}@keyframes lCaWXkvr_draw_41{18.413978494623652%{stroke-dashoffset: 48}39.91935483870967%{ stroke-dashoffset: 0;}100%{ stroke-dashoffset: 0;}}@keyframes lCaWXkvr_draw_42{18.548387096774192%{stroke-dashoffset: 300}40.053763440860216%{ stroke-dashoffset: 0;}100%{ stroke-dashoffset: 0;}}@keyframes lCaWXkvr_draw_43{18.682795698924732%{stroke-dashoffset: 48}40.18817204301076%{ stroke-dashoffset: 0;}100%{ stroke-dashoffset: 0;}}@keyframes lCaWXkvr_draw_44{18.817204301075265%{stroke-dashoffset: 299}40.32258064516129%{ stroke-dashoffset: 0;}100%{ stroke-dashoffset: 0;}}@keyframes lCaWXkvr_draw_45{18.951612903225808%{stroke-dashoffset: 56}40.45698924731183%{ stroke-dashoffset: 0;}100%{ stroke-dashoffset: 0;}}@keyframes lCaWXkvr_draw_46{19.086021505376344%{stroke-dashoffset: 299}40.59139784946237%{ stroke-dashoffset: 0;}100%{ stroke-dashoffset: 0;}}@keyframes lCaWXkvr_draw_47{19.22043010752688%{stroke-dashoffset: 56}40.725806451612904%{ stroke-dashoffset: 0;}100%{ stroke-dashoffset: 0;}}@keyframes lCaWXkvr_draw_48{19.35483870967742%{stroke-dashoffset: 56}40.86021505376344%{ stroke-dashoffset: 0;}100%{ stroke-dashoffset: 0;}}@keyframes lCaWXkvr_draw_49{19.489247311827956%{stroke-dashoffset: 184}40.99462365591398%{ stroke-dashoffset: 0;}100%{ stroke-dashoffset: 0;}}@keyframes lCaWXkvr_draw_50{19.623655913978492%{stroke-dashoffset: 56}41.12903225806452%{ stroke-dashoffset: 0;}100%{ stroke-dashoffset: 0;}}@keyframes lCaWXkvr_draw_51{19.758064516129032%{stroke-dashoffset: 184}41.263440860215056%{ stroke-dashoffset: 0;}100%{ stroke-dashoffset: 0;}}@keyframes lCaWXkvr_draw_52{19.892473118279568%{stroke-dashoffset: 382}41.3978494623656%{ stroke-dashoffset: 0;}100%{ stroke-dashoffset: 0;}}@keyframes lCaWXkvr_draw_53{20.026881720430108%{stroke-dashoffset: 44}41.53225806451613%{ stroke-dashoffset: 0;}100%{ stroke-dashoffset: 0;}}@keyframes lCaWXkvr_draw_54{20.161290322580644%{stroke-dashoffset: 382}41.66666666666667%{ stroke-dashoffset: 0;}100%{ stroke-dashoffset: 0;}}@keyframes lCaWXkvr_draw_55{20.29569892473118%{stroke-dashoffset: 47}41.801075268817215%{ stroke-dashoffset: 0;}100%{ stroke-dashoffset: 0;}}@keyframes lCaWXkvr_draw_56{20.43010752688172%{stroke-dashoffset: 167}41.935483870967744%{ stroke-dashoffset: 0;}100%{ stroke-dashoffset: 0;}}@keyframes lCaWXkvr_draw_57{20.56451612903226%{stroke-dashoffset: 42}42.06989247311828%{ stroke-dashoffset: 0;}100%{ stroke-dashoffset: 0;}}@keyframes lCaWXkvr_draw_58{20.698924731182792%{stroke-dashoffset: 166}42.20430107526882%{ stroke-dashoffset: 0;}100%{ stroke-dashoffset: 0;}}@keyframes lCaWXkvr_draw_59{20.833333333333332%{stroke-dashoffset: 41}42.33870967741936%{ stroke-dashoffset: 0;}100%{ stroke-dashoffset: 0;}}@keyframes lCaWXkvr_draw_60{20.967741935483872%{stroke-dashoffset: 217}42.473118279569896%{ stroke-dashoffset: 0;}100%{ stroke-dashoffset: 0;}}@keyframes lCaWXkvr_draw_61{21.102150537634408%{stroke-dashoffset: 45}42.60752688172044%{ stroke-dashoffset: 0;}100%{ stroke-dashoffset: 0;}}@keyframes lCaWXkvr_draw_62{21.236559139784944%{stroke-dashoffset: 217}42.74193548387097%{ stroke-dashoffset: 0;}100%{ stroke-dashoffset: 0;}}@keyframes lCaWXkvr_draw_63{21.370967741935484%{stroke-dashoffset: 45}42.876344086021504%{ stroke-dashoffset: 0;}100%{ stroke-dashoffset: 0;}}@keyframes lCaWXkvr_draw_64{21.50537634408602%{stroke-dashoffset: 97}43.01075268817205%{ stroke-dashoffset: 0;}100%{ stroke-dashoffset: 0;}}@keyframes lCaWXkvr_draw_65{21.639784946236556%{stroke-dashoffset: 115}43.145161290322584%{ stroke-dashoffset: 0;}100%{ stroke-dashoffset: 0;}}@keyframes lCaWXkvr_draw_66{21.774193548387096%{stroke-dashoffset: 104}43.27956989247312%{ stroke-dashoffset: 0;}100%{ stroke-dashoffset: 0;}}@keyframes lCaWXkvr_draw_67{21.908602150537636%{stroke-dashoffset: 105}43.41397849462366%{ stroke-dashoffset: 0;}100%{ stroke-dashoffset: 0;}}@keyframes lCaWXkvr_draw_68{22.04301075268817%{stroke-dashoffset: 93}43.54838709677419%{ stroke-dashoffset: 0;}100%{ stroke-dashoffset: 0;}}@keyframes lCaWXkvr_draw_69{22.177419354838708%{stroke-dashoffset: 59}43.68279569892473%{ stroke-dashoffset: 0;}100%{ stroke-dashoffset: 0;}}@keyframes lCaWXkvr_draw_70{22.311827956989248%{stroke-dashoffset: 23}43.81720430107527%{ stroke-dashoffset: 0;}100%{ stroke-dashoffset: 0;}}@keyframes lCaWXkvr_draw_71{22.44623655913978%{stroke-dashoffset: 107}43.95161290322581%{ stroke-dashoffset: 0;}100%{ stroke-dashoffset: 0;}}@keyframes lCaWXkvr_draw_72{22.58064516129032%{stroke-dashoffset: 93}44.086021505376344%{ stroke-dashoffset: 0;}100%{ stroke-dashoffset: 0;}}@keyframes lCaWXkvr_draw_73{22.71505376344086%{stroke-dashoffset: 59}44.22043010752689%{ stroke-dashoffset: 0;}100%{ stroke-dashoffset: 0;}}@keyframes lCaWXkvr_draw_74{22.849462365591393%{stroke-dashoffset: 85}44.354838709677416%{ stroke-dashoffset: 0;}100%{ stroke-dashoffset: 0;}}@keyframes lCaWXkvr_draw_75{22.983870967741936%{stroke-dashoffset: 91}44.48924731182796%{ stroke-dashoffset: 0;}100%{ stroke-dashoffset: 0;}}@keyframes lCaWXkvr_draw_76{23.118279569892472%{stroke-dashoffset: 105}44.623655913978496%{ stroke-dashoffset: 0;}100%{ stroke-dashoffset: 0;}}@keyframes lCaWXkvr_draw_77{23.25268817204301%{stroke-dashoffset: 59}44.75806451612903%{ stroke-dashoffset: 0;}100%{ stroke-dashoffset: 0;}}@keyframes lCaWXkvr_draw_78{23.387096774193548%{stroke-dashoffset: 107}44.892473118279575%{ stroke-dashoffset: 0;}100%{ stroke-dashoffset: 0;}}@keyframes lCaWXkvr_draw_79{23.521505376344084%{stroke-dashoffset: 93}45.02688172043011%{ stroke-dashoffset: 0;}100%{ stroke-dashoffset: 0;}}@keyframes lCaWXkvr_draw_80{23.65591397849462%{stroke-dashoffset: 104}45.16129032258064%{ stroke-dashoffset: 0;}100%{ stroke-dashoffset: 0;}}</style></svg>
