<!--?xml version="1.0" encoding="utf-8"?-->
<!-- Generator: Adobe Illustrator 14.0.0, SVG Export Plug-In . SVG Version: 6.00 Build 43363)  -->

<svg version="1.1" id="レイヤー_1" xmlns="http://www.w3.org/2000/svg" xmlns:xlink="http://www.w3.org/1999/xlink" x="0px" y="0px" width="647px" height="400px" viewBox="0 0 647 400" enable-background="new 0 0 647 400" xml:space="preserve" style="">
<g>
	<path fill="none" stroke="#231815" d="M308.758,126.728c-13.263-19.905-44.738-15.483-59.37-9.872
		c-13.696,5.262-26.803,6.189-35.398,5.028c-0.167-0.093-0.329-0.167-0.485-0.26c-23.989-13.782-69.403-48.481-107.671-48.481
		c-38.274,0-84.711,13.265-84.202,129.104l0.173-0.003v0.003h-0.173c-0.509,115.834,45.928,129.104,84.202,129.104
		c35.75,0,77.727-30.268,102.652-45.491c7.85-3.683,18.941-6.484,33.428,0.586c21.257,10.371,27.04,11.053,33.677,9.692
		c6.631-1.362,10.033-6.293,11.223-11.737c1.196-5.444-1.698-35.889,1.022-46.777c2.721-10.88,7.313-13.943,13.777-15.818
		c2.062-0.595,3.495-1.47,4.5-2.383h4.003v-9.86h11.743v-19.901C321.691,159.722,322.026,146.625,308.758,126.728z M206.187,223.764
		c-16.515,0-29.904-10.094-29.904-22.542c0-12.441,13.39-22.53,29.904-22.53s29.916,10.088,29.916,22.53
		C236.102,213.67,222.701,223.764,206.187,223.764z" class="YBfTloJU_0"></path>
	<path fill="none" stroke="#231815" d="M248.539,203.945c0,6.484-1.565,12.503-4.24,17.499l298.171-6.1v-1.36l0.341-27.555H244.288
		C246.974,191.425,248.539,197.453,248.539,203.945z" class="YBfTloJU_1"></path>
	<path fill="none" stroke="#231815" d="M206.187,227.631c-19.351,0-35.034-11.824-35.034-26.409
		c0-14.576,15.683-26.403,35.034-26.403c19.351,0,35.045,11.827,35.045,26.403C241.232,215.807,225.537,227.631,206.187,227.631z" class="YBfTloJU_2"></path>
	<path fill="none" stroke="#231815" d="M564.073,221.531c4.853-0.508,57.157-1.782,59.451-3.315
		c2.235-1.487,4.465-8.754,4.817-13.142c0.577-2.212,0.357-5.9,0.04-8.3c0-0.127,0-0.251-0.012-0.401
		c-0.248-4.329-2.547-11.988-4.846-13.519c-2.294-1.527-54.599-2.804-59.451-3.312c-3.258-0.344-7.029,1.511-9.976,2.654
		c-1.918,0.751-3.749,1.655-5.62,2.501c-1.052,0.474-2.34,0.829-3.408,1.406v28.942c1.034,0.484,2.229,0.837,2.98,1.187
		c1.906,0.875,3.824,1.728,5.771,2.513C556.824,219.957,560.734,221.887,564.073,221.531z" class="YBfTloJU_3"></path>
	<path fill="none" stroke="#231815" d="M564.854,178.787c-1.981,0-3.587-1.606-3.587-3.59l0,0c0-1.976,1.605-3.579,3.587-3.579
		h8.063c1.976,0,3.581,1.603,3.581,3.579l0,0c0,1.984-1.605,3.59-3.581,3.59H564.854z" class="YBfTloJU_4"></path>
	<path fill="none" stroke="#231815" d="M584.239,179.292c-1.976,0-3.582-1.603-3.582-3.581l0,0c0-1.979,1.606-3.582,3.582-3.582
		h8.063c1.981,0,3.581,1.603,3.581,3.582l0,0c0,1.978-1.6,3.581-3.581,3.581H584.239z" class="YBfTloJU_5"></path>
	<path fill="none" stroke="#231815" d="M603.642,179.807c-1.981,0-3.587-1.606-3.587-3.581l0,0c0-1.984,1.605-3.582,3.587-3.582
		h8.053c1.981,0,3.587,1.597,3.587,3.582l0,0c0,1.975-1.605,3.581-3.587,3.581H603.642z" class="YBfTloJU_6"></path>
	<path fill="none" stroke="#231815" d="M564.854,222.649c-1.981,0-3.587,1.605-3.587,3.581l0,0c0,1.979,1.605,3.581,3.587,3.581
		h8.063c1.976,0,3.581-1.603,3.581-3.581l0,0c0-1.976-1.605-3.581-3.581-3.581H564.854z" class="YBfTloJU_7"></path>
	<path fill="none" stroke="#231815" d="M584.239,222.135c-1.976,0-3.582,1.606-3.582,3.59l0,0c0,1.976,1.606,3.582,3.582,3.582
		h8.063c1.981,0,3.581-1.606,3.581-3.582l0,0c0-1.983-1.6-3.59-3.581-3.59H584.239z" class="YBfTloJU_8"></path>
	<path fill="none" stroke="#231815" d="M603.642,221.63c-1.981,0-3.587,1.6-3.587,3.581l0,0c0,1.979,1.605,3.581,3.587,3.581h8.053
		c1.981,0,3.587-1.603,3.587-3.581l0,0c0-1.981-1.605-3.581-3.587-3.581H603.642z" class="YBfTloJU_9"></path>
	<path fill="none" stroke="#231815" width="9.86" height="83.006" d="M127.778 162.61 L137.638 162.61 L137.638 245.616 L127.778 245.616 Z" class="YBfTloJU_10"></path>
	<path fill="none" stroke="#231815" d="M78.309,228.761c0,0,6.256,0,3.714-4.925c0,0,6.245,0.243,6.476-4.682
		c0.231-4.921,0.231-4.921,0.231-4.921s6.001,0.248,6.244-2.219c0.231-2.461,0-6.154,0-6.154v-3.521v-0.186v-3.526
		c0,0,0.231-3.688,0-6.157c-0.243-2.458-6.244-2.209-6.244-2.209s0,0-0.231-4.921c-0.231-4.928-6.476-4.682-6.476-4.682
		c2.542-4.924-3.714-4.924-3.714-4.924c-0.918-4.921-7.394-3.937-15.724,0c-8.324,3.939-44.391,8.864-44.391,8.864v17.556v0.186
		v17.557c0,0,36.067,4.925,44.391,8.864C70.915,232.694,77.391,233.682,78.309,228.761z" class="YBfTloJU_11"></path>
	<path fill="none" stroke="#231815" width="54.165" height="18.709" d="M16.213 194.074 L70.378 194.074 L70.378 212.78300000000002 L16.213 212.78300000000002 Z" class="YBfTloJU_12"></path>
	<path fill="none" stroke="#231815" d="M73.572,187.215c-2.143,0-3.876-2.004-3.876-4.468c0-2.47,1.733-4.471,3.876-4.471
		s3.882,2.001,3.882,4.471C77.454,185.211,75.715,187.215,73.572,187.215z" class="YBfTloJU_13"></path>
	<path fill="none" stroke="#231815" d="M86.333,206.932c-2.149,0-3.882-1.999-3.882-4.465c0-2.472,1.733-4.471,3.882-4.471
		c2.137,0,3.87,1.999,3.87,4.471C90.203,204.933,88.47,206.932,86.333,206.932z" class="YBfTloJU_14"></path>
	<path fill="none" stroke="#231815" d="M73.572,228.076c-2.143,0-3.876-1.999-3.876-4.46c0-2.469,1.733-4.471,3.876-4.471
		s3.882,2.002,3.882,4.471C77.454,226.077,75.715,228.076,73.572,228.076z" class="YBfTloJU_15"></path>
	<g>
		<path fill="none" stroke="#231815" d="M392.33,137.81c0,4.713-1.594,8.52-4.777,11.426c-3.177,2.908-7.197,4.361-12.043,4.361
			c-2.421,0-5.084-0.522-7.995-1.56c-3.321-1.175-5.568-2.562-6.752-4.15c0.554-1.458,1.56-3.567,3.015-6.336
			c2.56,1.245,4.361,1.869,5.401,1.869c1.455,0,2.732-0.416,3.841-1.245c1.109-0.832,1.664-1.903,1.664-3.221
			c0-1.456-0.59-2.579-1.768-3.376c-1.185-0.797-2.564-1.193-4.153-1.193c-3.535,0-6.545,1.698-9.034,5.086
			c-2.287,3.116-3.432,6.513-3.432,10.178c0,6.227,1.924,11.2,5.771,14.9c3.836,3.706,8.942,5.557,15.313,5.557
			c2.767,0,6.094-0.763,9.97-2.285c0.549,1.869,1.45,4.638,2.698,8.309c-0.485,0.971-2.635,1.796-6.441,2.49
			c-3.038,0.624-5.568,0.938-7.578,0.938c-9.484,0-17.121-2.755-22.892-8.26c-5.782-5.505-8.677-12.855-8.677-22.063
			c0-8.312,2.247-15.232,6.753-20.769c4.847-6.091,11.42-9.141,19.727-9.141c5.955,0,10.935,1.594,14.955,4.78
			C390.182,127.496,392.33,132.068,392.33,137.81z" class="YBfTloJU_16"></path>
		<path fill="none" stroke="#231815" d="M445.086,177.791h-14.955c1.52-2.7,2.281-4.569,2.281-5.608
			c0-2.556-0.589-6.507-1.762-11.836c-1.039-4.78-1.594-7.168-1.663-7.168c-0.555-0.063-1.109-0.104-1.664-0.104
			c-4.707,0-9.104,2.313-13.188,6.932c-3.807,4.41-5.707,8.927-5.707,13.545c0,0.274,0.029,0.933,0.099,1.964
			c0.069,1.037,0.104,1.794,0.104,2.276h-10.588c0.485-0.898,1.068-2.348,1.768-4.352c0.618-3.388,1.692-10.681,3.218-21.875
			c0.97-7.391,2.392-14.129,4.257-20.211c0.555-1.38,1.068-2.729,1.554-4.038c0.693-1.872,1.046-3.458,1.046-4.771
			c0-0.759-0.109-1.484-0.317-2.178h29.904c-0.965,1.938-1.45,3.838-1.45,5.71c0,0.283,0.173,1.56,0.52,3.844
			c0.549,2.77,0.896,4.743,1.04,5.921c0.688,4.636,1.623,12.393,2.802,23.256c0.139,3.188,0.277,6.374,0.416,9.557
			C443.076,172.323,443.838,175.368,445.086,177.791z M427.844,146.223c-0.208-3.878-0.549-6.403-1.04-7.579
			c-0.826-2.218-2.594-3.324-5.291-3.324c-1.595,0-2.842,0.641-3.743,1.918c-0.896,1.285-1.346,2.651-1.346,4.104
			c0,3.807,2.351,5.71,7.064,5.71C425.076,147.052,426.526,146.777,427.844,146.223z" class="YBfTloJU_17"></path>
		<path fill="none" stroke="#231815" d="M466.47,177.791h-13.707c0.347-0.626,0.606-1.349,0.78-2.183
			c0.173-0.826,0.19-1.245,0.052-1.245c0-0.069-0.521-15.195-1.56-45.379c-0.341-3.529-1.242-6.4-2.698-8.619h40.395
			c-0.555,4.639-1.074,9.312-1.56,14.02c-5.742-2.423-9.52-3.633-11.316-3.633c-4.014,0-7.093,1.349-9.242,4.046
			c-1.865,2.287-2.87,5.262-3.009,8.933c0.896-0.413,2.16-1.28,3.789-2.597c1.623-1.314,2.859-2.181,3.686-2.594
			c1.178,1.317,2.386,3.146,3.633,5.5c-4.499,2.98-7.786,6.336-9.86,10.074c-1.455,2.77-2.148,5.228-2.079,7.376v6.955
			C464.275,171.079,465.176,174.195,466.47,177.791z" class="YBfTloJU_18"></path>
		<path fill="none" stroke="#231815" d="M536.774,166.781c-0.347,2.426-0.866,6.097-1.56,11.01h-36.137
			c-0.41-11.146-1-27.689-1.768-49.636c-0.341-3.186-1.173-5.779-2.49-7.79h40.395c-0.555,4.639-1.068,9.312-1.554,14.02
			c-5.748-2.423-9.525-3.633-11.322-3.633c-4.015,0-7.093,1.349-9.236,4.046c-1.871,2.287-2.876,5.262-3.015,8.933
			c0.895-0.413,2.16-1.28,3.789-2.597c1.623-1.314,2.859-2.181,3.691-2.594c1.172,1.317,2.379,3.146,3.633,5.5
			c-3.258,2.148-5.955,4.641-8.099,7.478c-2.57,3.396-3.847,6.718-3.847,9.973c0,6.296,3.979,9.444,11.945,9.444
			C526.042,170.934,531.234,169.554,536.774,166.781z" class="YBfTloJU_19"></path>
	</g>
	<g>
		<path fill="none" stroke="#231815" d="M349.406,311.166c0,1.869,0.688,3.391,2.073,4.569h-16.925
			c1.173-2.978,1.768-6.163,1.768-9.554c0-4.844-1.49-11.597-4.465-20.249c-3.466-9.971-7.03-15.268-10.698-15.889
			c-0.208,0-0.381,0.104-0.52,0.312c-2.98,5.678-4.465,15.989-4.465,30.941c0,5.265,0.728,9.938,2.184,14.021h-13.401
			c0.555-1.316,0.832-2.602,0.832-3.847c0-1.182-0.277-2.88-0.832-5.101c-0.756-2.842-1.178-4.578-1.242-5.196
			c-1.248-7.491-1.872-14.492-1.872-21.012c0-4.644,0.555-10.016,1.658-16.118c1.04-5.341,2.114-10.641,3.223-15.914
			c1.179,0,2.906-0.035,5.193-0.104c2.351,0,4.084,0,5.188,0c2.01,0,4.679,1.462,8,4.382c2.421,2.16,4.569,4.447,6.436,6.886
			c1.594,2.365,4.015,5.979,7.272,10.845c0.623,0.907,0.97,1.357,1.039,1.357h0.104v-2.076c0-5.329-1.768-12.46-5.297-21.394h10.697
			c2.698,5.609,4.529,11.111,5.499,16.515c0.832,4.497,1.248,10.176,1.248,17.026c0,0.763-0.312,4.153-0.936,10.178
			c-0.347,3.047-0.797,7.789-1.352,14.225C349.539,309.919,349.406,311.648,349.406,311.166z" class="YBfTloJU_20"></path>
		<path fill="none" stroke="#231815" d="M405.997,282.088c0,4.916-0.555,9.763-1.663,14.536c-0.693,2.357-1.353,4.714-1.971,7.067
			c-0.976,3.319-1.455,5.537-1.455,6.641c0,1.452,0.797,3.156,2.392,5.092h-29.599c-1.039,0-2.351-0.867-3.945-2.6
			c-1.316-1.522-2.218-2.905-2.697-4.153c-3.466-9.346-5.921-26.236-7.377-50.673h18.381l-1.455,40.81
			c-0.208,5.887,1.108,8.826,3.944,8.826c2.635,0,5.401-2.111,8.312-6.336c2.421-3.665,3.87-6.987,4.361-9.965
			c0.896-5.195,1.346-8.794,1.346-10.802c0-7.267-1.727-14.778-5.192-22.533h11.217
			C404.195,264.852,405.997,272.884,405.997,282.088z" class="YBfTloJU_21"></path>
		<path fill="none" stroke="#231815" d="M459.475,315.527H444.52c1.525-2.703,2.288-4.569,2.288-5.608
			c0-2.56-0.59-6.511-1.768-11.836c-1.04-4.78-1.595-7.169-1.664-7.169c-0.555-0.063-1.109-0.104-1.663-0.104
			c-4.702,0-9.099,2.313-13.182,6.929c-3.807,4.413-5.713,8.931-5.713,13.549c0,0.271,0.034,0.93,0.104,1.964
			c0.063,1.033,0.104,1.793,0.104,2.275h-10.594c0.485-0.898,1.075-2.348,1.768-4.353c0.624-3.388,1.693-10.681,3.218-21.875
			c0.971-7.391,2.392-14.129,4.257-20.212c0.555-1.38,1.075-2.731,1.56-4.04c0.688-1.872,1.04-3.457,1.04-4.769
			c0-0.76-0.104-1.487-0.312-2.178h29.904c-0.971,1.936-1.456,3.839-1.456,5.71c0,0.28,0.174,1.557,0.521,3.845
			c0.554,2.77,0.895,4.739,1.039,5.92c0.688,4.633,1.623,12.391,2.802,23.256c0.139,3.188,0.277,6.372,0.416,9.558
			C457.465,310.061,458.228,313.102,459.475,315.527z M442.238,283.96c-0.208-3.879-0.555-6.403-1.04-7.582
			c-0.832-2.215-2.594-3.324-5.297-3.324c-1.594,0-2.842,0.645-3.737,1.921c-0.901,1.285-1.352,2.648-1.352,4.104
			c0,3.807,2.351,5.71,7.064,5.71C439.466,284.788,440.921,284.514,442.238,283.96z" class="YBfTloJU_22"></path>
		<path fill="none" stroke="#231815" d="M510.982,274.348c0,2.21-0.49,4.488-1.455,6.834c-0.971,2.345-2.149,3.968-3.529,4.863
			c-3.327,2.002-7.064,3.004-11.212,3.004c-2.149,0-4.801-0.745-7.948-2.238c-3.154-1.484-4.898-2.781-5.245-3.891
			c0.555-0.898,1.49-2.284,2.802-4.156c2.079,1.245,3.91,1.872,5.505,1.872c1.178,0,2.339-0.394,3.477-1.182
			c1.145-0.785,1.716-1.794,1.716-3.027c0-1.504-0.676-2.648-2.021-3.437c-1.352-0.785-2.824-1.182-4.413-1.182
			c-3.604,0-6.371,1.655-8.307,4.971c-1.53,2.557-2.287,5.214-2.287,7.972c0,4.28,0.624,8.46,1.865,12.532
			c1.872,5.865,4.639,9.456,8.312,10.767c2.767,0.211,4.257,0.211,4.459,0c-2.073-3.74-3.252-6.92-3.529-9.554
			c-0.208-1.664,0-3.426,0.624-5.294l14.852,2.908c-1.456,4.705-2.184,8.096-2.184,10.175c0,2.144,0.555,5.26,1.663,9.347h-26.271
			c0.139-1.176-0.59-2.903-2.178-5.185c-1.387-1.866-2.772-3.729-4.159-5.601c-2.218-3.315-4.049-7.165-5.499-11.556
			c-1.456-4.384-2.184-8.344-2.184-11.867c0-7.602,2.697-13.58,8.099-17.933c4.847-4.009,10.94-6.017,18.276-6.017
			c5.886,0,10.813,1.543,14.799,4.61C508.99,265.151,510.982,269.241,510.982,274.348z" class="YBfTloJU_23"></path>
		<path fill="none" stroke="#231815" d="M559.47,304.518c-0.341,2.426-0.866,6.095-1.554,11.01h-36.137
			c-0.416-11.146-1.006-27.688-1.768-49.637c-0.347-3.188-1.179-5.781-2.49-7.789h40.395c-0.555,4.639-1.074,9.312-1.56,14.017
			c-5.748-2.421-9.52-3.634-11.322-3.634c-4.015,0-7.093,1.35-9.236,4.05c-1.871,2.287-2.876,5.262-3.009,8.933
			c0.895-0.413,2.16-1.282,3.783-2.599c1.629-1.312,2.859-2.181,3.691-2.594c1.178,1.316,2.385,3.147,3.633,5.502
			c-3.258,2.148-5.955,4.642-8.099,7.475c-2.564,3.399-3.841,6.718-3.841,9.976c0,6.296,3.979,9.444,11.939,9.444
			C548.737,308.671,553.936,307.287,559.47,304.518z" class="YBfTloJU_24"></path>
		<path fill="none" stroke="#231815" d="M607.656,301.058c0,5.138-2.426,9.161-7.272,12.072c-4.084,2.43-8.931,3.643-14.533,3.643
			c-7.966,0-14.303-1.005-19.005-3.013c0-0.416-0.352-2.489-1.039-6.229c-0.347-2.354-0.521-4.431-0.521-6.232
			c7.752,4.641,13.91,6.963,18.479,6.963c2.148,0,4.239-0.716,6.284-2.132c2.039-1.418,3.067-3.234,3.067-5.449
			c0-2.427-2.392-4.5-7.169-6.233c-7.197-2.7-11.702-4.673-13.499-5.918c-4.777-3.324-7.163-8.101-7.163-14.334
			c0-5.813,2.316-10.278,6.955-13.396c3.807-2.562,8.479-3.838,14.02-3.838c4.777,0,8.965,0.968,12.563,2.908
			c4.639,2.42,6.961,5.95,6.961,10.591c0,3.321-1.56,5.987-4.674,7.995c-2.489,1.657-5.158,2.495-7.994,2.495
			c-4.569,0-8.376-1.043-11.426-3.116c0-0.347,0.277-1.8,0.832-4.361c2.218,0.69,3.529,1.037,3.945,1.037
			c0.832,0,1.646-0.335,2.438-1.006c0.797-0.667,1.195-1.316,1.195-1.952c0-1.189-0.549-2.123-1.646-2.793
			c-1.098-0.667-2.265-0.999-3.501-0.999c-2.057,0-3.668,0.679-4.835,2.027c-1.167,1.357-1.75,2.967-1.75,4.841
			c0,3.261,2.513,5.895,7.556,7.908c9.312,3.607,14.036,5.479,14.175,5.62C605.132,291.14,607.656,295.44,607.656,301.058z" class="YBfTloJU_25"></path>
	</g>
	<path fill="none" stroke="#231815" d="M625.378,151.563L616.506,151.563L616.506,79.936L181.001,79.936L181.001,71.063L
		625.378,71.063L625.378,151.563Z" class="YBfTloJU_26"></path>
	<path fill="none" stroke="#231815" d="M222.118,94.001L602.44,94.001L602.44,151.066" class="YBfTloJU_27"></path>
	<path fill="none" stroke="#231815" d="M267.693,333.824L191.307,333.824L191.307,253.324L200.179,253.324L200.179,324.952L
		267.693,324.952L267.693,333.824Z" class="YBfTloJU_28"></path>
	<path fill="none" stroke="#231815" d="M277.409,310.886L215.215,310.886L215.215,253.821" class="YBfTloJU_29"></path>
	<path fill="none" stroke="#231815" d="M226.23,94.339c0,4.353-3.523,7.882-7.879,7.882c-4.35,0-7.879-3.529-7.879-7.882
		s3.529-7.876,7.879-7.876C222.707,86.463,226.23,89.987,226.23,94.339z" class="YBfTloJU_30"></path>
	<path fill="none" stroke="#231815" d="M609.979,150.532c0,4.353-3.529,7.882-7.879,7.882c-4.355,0-7.885-3.529-7.885-7.882
		s3.529-7.882,7.885-7.882C606.449,142.65,609.979,146.18,609.979,150.532z" class="YBfTloJU_31"></path>
	<path fill="none" stroke="#231815" d="M222.811,257.435c0,4.353-3.535,7.879-7.885,7.879c-4.355,0-7.879-3.526-7.879-7.879
		s3.524-7.882,7.879-7.882C219.276,249.553,222.811,253.082,222.811,257.435z" class="YBfTloJU_32"></path>
	<path fill="none" stroke="#231815" d="M278.998,311.567c0,4.353-3.523,7.88-7.879,7.88c-4.35,0-7.885-3.527-7.885-7.88
		s3.535-7.876,7.885-7.876C275.474,303.691,278.998,307.215,278.998,311.567z" class="YBfTloJU_33"></path>
</g>
<style>.YBfTloJU_0{stroke-dasharray:1126 1128;stroke-dashoffset:1127;animation:YBfTloJU_draw_0 6200ms linear 0ms infinite,YBfTloJU_fade 6200ms linear 0ms infinite;}.YBfTloJU_1{stroke-dasharray:663 665;stroke-dashoffset:664;animation:YBfTloJU_draw_1 6200ms linear 0ms infinite,YBfTloJU_fade 6200ms linear 0ms infinite;}.YBfTloJU_2{stroke-dasharray:195 197;stroke-dashoffset:196;animation:YBfTloJU_draw_2 6200ms linear 0ms infinite,YBfTloJU_fade 6200ms linear 0ms infinite;}.YBfTloJU_3{stroke-dasharray:227 229;stroke-dashoffset:228;animation:YBfTloJU_draw_3 6200ms linear 0ms infinite,YBfTloJU_fade 6200ms linear 0ms infinite;}.YBfTloJU_4{stroke-dasharray:39 41;stroke-dashoffset:40;animation:YBfTloJU_draw_4 6200ms linear 0ms infinite,YBfTloJU_fade 6200ms linear 0ms infinite;}.YBfTloJU_5{stroke-dasharray:39 41;stroke-dashoffset:40;animation:YBfTloJU_draw_5 6200ms linear 0ms infinite,YBfTloJU_fade 6200ms linear 0ms infinite;}.YBfTloJU_6{stroke-dasharray:39 41;stroke-dashoffset:40;animation:YBfTloJU_draw_6 6200ms linear 0ms infinite,YBfTloJU_fade 6200ms linear 0ms infinite;}.YBfTloJU_7{stroke-dasharray:39 41;stroke-dashoffset:40;animation:YBfTloJU_draw_7 6200ms linear 0ms infinite,YBfTloJU_fade 6200ms linear 0ms infinite;}.YBfTloJU_8{stroke-dasharray:39 41;stroke-dashoffset:40;animation:YBfTloJU_draw_8 6200ms linear 0ms infinite,YBfTloJU_fade 6200ms linear 0ms infinite;}.YBfTloJU_9{stroke-dasharray:39 41;stroke-dashoffset:40;animation:YBfTloJU_draw_9 6200ms linear 0ms infinite,YBfTloJU_fade 6200ms linear 0ms infinite;}.YBfTloJU_10{stroke-dasharray:186 188;stroke-dashoffset:187;animation:YBfTloJU_draw_10 6200ms linear 0ms infinite,YBfTloJU_fade 6200ms linear 0ms infinite;}.YBfTloJU_11{stroke-dasharray:240 242;stroke-dashoffset:241;animation:YBfTloJU_draw_11 6200ms linear 0ms infinite,YBfTloJU_fade 6200ms linear 0ms infinite;}.YBfTloJU_12{stroke-dasharray:146 148;stroke-dashoffset:147;animation:YBfTloJU_draw_12 6200ms linear 0ms infinite,YBfTloJU_fade 6200ms linear 0ms infinite;}.YBfTloJU_13{stroke-dasharray:27 29;stroke-dashoffset:28;animation:YBfTloJU_draw_13 6200ms linear 0ms infinite,YBfTloJU_fade 6200ms linear 0ms infinite;}.YBfTloJU_14{stroke-dasharray:27 29;stroke-dashoffset:28;animation:YBfTloJU_draw_14 6200ms linear 0ms infinite,YBfTloJU_fade 6200ms linear 0ms infinite;}.YBfTloJU_15{stroke-dasharray:27 29;stroke-dashoffset:28;animation:YBfTloJU_draw_15 6200ms linear 0ms infinite,YBfTloJU_fade 6200ms linear 0ms infinite;}.YBfTloJU_16{stroke-dasharray:286 288;stroke-dashoffset:287;animation:YBfTloJU_draw_16 6200ms linear 0ms infinite,YBfTloJU_fade 6200ms linear 0ms infinite;}.YBfTloJU_17{stroke-dasharray:273 275;stroke-dashoffset:274;animation:YBfTloJU_draw_17 6200ms linear 0ms infinite,YBfTloJU_fade 6200ms linear 0ms infinite;}.YBfTloJU_18{stroke-dasharray:213 215;stroke-dashoffset:214;animation:YBfTloJU_draw_18 6200ms linear 0ms infinite,YBfTloJU_fade 6200ms linear 0ms infinite;}.YBfTloJU_19{stroke-dasharray:264 266;stroke-dashoffset:265;animation:YBfTloJU_draw_19 6200ms linear 0ms infinite,YBfTloJU_fade 6200ms linear 0ms infinite;}.YBfTloJU_20{stroke-dasharray:344 346;stroke-dashoffset:345;animation:YBfTloJU_draw_20 6200ms linear 0ms infinite,YBfTloJU_fade 6200ms linear 0ms infinite;}.YBfTloJU_21{stroke-dasharray:288 290;stroke-dashoffset:289;animation:YBfTloJU_draw_21 6200ms linear 0ms infinite,YBfTloJU_fade 6200ms linear 0ms infinite;}.YBfTloJU_22{stroke-dasharray:273 275;stroke-dashoffset:274;animation:YBfTloJU_draw_22 6200ms linear 0ms infinite,YBfTloJU_fade 6200ms linear 0ms infinite;}.YBfTloJU_23{stroke-dasharray:302 304;stroke-dashoffset:303;animation:YBfTloJU_draw_23 6200ms linear 0ms infinite,YBfTloJU_fade 6200ms linear 0ms infinite;}.YBfTloJU_24{stroke-dasharray:264 266;stroke-dashoffset:265;animation:YBfTloJU_draw_24 6200ms linear 0ms infinite,YBfTloJU_fade 6200ms linear 0ms infinite;}.YBfTloJU_25{stroke-dasharray:298 300;stroke-dashoffset:299;animation:YBfTloJU_draw_25 6200ms linear 0ms infinite,YBfTloJU_fade 6200ms linear 0ms infinite;}.YBfTloJU_26{stroke-dasharray:1050 1052;stroke-dashoffset:1051;animation:YBfTloJU_draw_26 6200ms linear 0ms infinite,YBfTloJU_fade 6200ms linear 0ms infinite;}.YBfTloJU_27{stroke-dasharray:438 440;stroke-dashoffset:439;animation:YBfTloJU_draw_27 6200ms linear 0ms infinite,YBfTloJU_fade 6200ms linear 0ms infinite;}.YBfTloJU_28{stroke-dasharray:314 316;stroke-dashoffset:315;animation:YBfTloJU_draw_28 6200ms linear 0ms infinite,YBfTloJU_fade 6200ms linear 0ms infinite;}.YBfTloJU_29{stroke-dasharray:120 122;stroke-dashoffset:121;animation:YBfTloJU_draw_29 6200ms linear 0ms infinite,YBfTloJU_fade 6200ms linear 0ms infinite;}.YBfTloJU_30{stroke-dasharray:50 52;stroke-dashoffset:51;animation:YBfTloJU_draw_30 6200ms linear 0ms infinite,YBfTloJU_fade 6200ms linear 0ms infinite;}.YBfTloJU_31{stroke-dasharray:50 52;stroke-dashoffset:51;animation:YBfTloJU_draw_31 6200ms linear 0ms infinite,YBfTloJU_fade 6200ms linear 0ms infinite;}.YBfTloJU_32{stroke-dasharray:50 52;stroke-dashoffset:51;animation:YBfTloJU_draw_32 6200ms linear 0ms infinite,YBfTloJU_fade 6200ms linear 0ms infinite;}.YBfTloJU_33{stroke-dasharray:50 52;stroke-dashoffset:51;animation:YBfTloJU_draw_33 6200ms linear 0ms infinite,YBfTloJU_fade 6200ms linear 0ms infinite;}@keyframes YBfTloJU_draw{100%{stroke-dashoffset:0;}}@keyframes YBfTloJU_fade{0%{stroke-opacity:1;}93.54838709677419%{stroke-opacity:1;}100%{stroke-opacity:0;}}@keyframes YBfTloJU_draw_0{12.903225806451612%{stroke-dashoffset: 1127}34.40860215053764%{ stroke-dashoffset: 0;}100%{ stroke-dashoffset: 0;}}@keyframes YBfTloJU_draw_1{13.22906484196807%{stroke-dashoffset: 664}34.73444118605409%{ stroke-dashoffset: 0;}100%{ stroke-dashoffset: 0;}}@keyframes YBfTloJU_draw_2{13.554903877484522%{stroke-dashoffset: 196}35.060280221570544%{ stroke-dashoffset: 0;}100%{ stroke-dashoffset: 0;}}@keyframes YBfTloJU_draw_3{13.88074291300098%{stroke-dashoffset: 228}35.386119257087%{ stroke-dashoffset: 0;}100%{ stroke-dashoffset: 0;}}@keyframes YBfTloJU_draw_4{14.206581948517433%{stroke-dashoffset: 40}35.711958292603455%{ stroke-dashoffset: 0;}100%{ stroke-dashoffset: 0;}}@keyframes YBfTloJU_draw_5{14.532420984033886%{stroke-dashoffset: 40}36.037797328119915%{ stroke-dashoffset: 0;}100%{ stroke-dashoffset: 0;}}@keyframes YBfTloJU_draw_6{14.858260019550343%{stroke-dashoffset: 40}36.36363636363637%{ stroke-dashoffset: 0;}100%{ stroke-dashoffset: 0;}}@keyframes YBfTloJU_draw_7{15.184099055066797%{stroke-dashoffset: 40}36.68947539915282%{ stroke-dashoffset: 0;}100%{ stroke-dashoffset: 0;}}@keyframes YBfTloJU_draw_8{15.509938090583253%{stroke-dashoffset: 40}37.01531443466928%{ stroke-dashoffset: 0;}100%{ stroke-dashoffset: 0;}}@keyframes YBfTloJU_draw_9{15.835777126099707%{stroke-dashoffset: 40}37.34115347018573%{ stroke-dashoffset: 0;}100%{ stroke-dashoffset: 0;}}@keyframes YBfTloJU_draw_10{16.161616161616163%{stroke-dashoffset: 187}37.66699250570218%{ stroke-dashoffset: 0;}100%{ stroke-dashoffset: 0;}}@keyframes YBfTloJU_draw_11{16.48745519713262%{stroke-dashoffset: 241}37.99283154121864%{ stroke-dashoffset: 0;}100%{ stroke-dashoffset: 0;}}@keyframes YBfTloJU_draw_12{16.813294232649074%{stroke-dashoffset: 147}38.318670576735094%{ stroke-dashoffset: 0;}100%{ stroke-dashoffset: 0;}}@keyframes YBfTloJU_draw_13{17.139133268165526%{stroke-dashoffset: 28}38.644509612251554%{ stroke-dashoffset: 0;}100%{ stroke-dashoffset: 0;}}@keyframes YBfTloJU_draw_14{17.46497230368198%{stroke-dashoffset: 28}38.970348647768006%{ stroke-dashoffset: 0;}100%{ stroke-dashoffset: 0;}}@keyframes YBfTloJU_draw_15{17.790811339198438%{stroke-dashoffset: 28}39.29618768328446%{ stroke-dashoffset: 0;}100%{ stroke-dashoffset: 0;}}@keyframes YBfTloJU_draw_16{18.116650374714894%{stroke-dashoffset: 287}39.62202671880092%{ stroke-dashoffset: 0;}100%{ stroke-dashoffset: 0;}}@keyframes YBfTloJU_draw_17{18.442489410231346%{stroke-dashoffset: 274}39.94786575431736%{ stroke-dashoffset: 0;}100%{ stroke-dashoffset: 0;}}@keyframes YBfTloJU_draw_18{18.768328445747798%{stroke-dashoffset: 214}40.27370478983382%{ stroke-dashoffset: 0;}100%{ stroke-dashoffset: 0;}}@keyframes YBfTloJU_draw_19{19.094167481264254%{stroke-dashoffset: 265}40.59954382535028%{ stroke-dashoffset: 0;}100%{ stroke-dashoffset: 0;}}@keyframes YBfTloJU_draw_20{19.420006516780713%{stroke-dashoffset: 345}40.92538286086674%{ stroke-dashoffset: 0;}100%{ stroke-dashoffset: 0;}}@keyframes YBfTloJU_draw_21{19.745845552297165%{stroke-dashoffset: 289}41.25122189638319%{ stroke-dashoffset: 0;}100%{ stroke-dashoffset: 0;}}@keyframes YBfTloJU_draw_22{20.071684587813618%{stroke-dashoffset: 274}41.57706093189964%{ stroke-dashoffset: 0;}100%{ stroke-dashoffset: 0;}}@keyframes YBfTloJU_draw_23{20.397523623330073%{stroke-dashoffset: 303}41.902899967416104%{ stroke-dashoffset: 0;}100%{ stroke-dashoffset: 0;}}@keyframes YBfTloJU_draw_24{20.72336265884653%{stroke-dashoffset: 265}42.22873900293255%{ stroke-dashoffset: 0;}100%{ stroke-dashoffset: 0;}}@keyframes YBfTloJU_draw_25{21.049201694362985%{stroke-dashoffset: 299}42.554578038449%{ stroke-dashoffset: 0;}100%{ stroke-dashoffset: 0;}}@keyframes YBfTloJU_draw_26{21.375040729879437%{stroke-dashoffset: 1051}42.88041707396546%{ stroke-dashoffset: 0;}100%{ stroke-dashoffset: 0;}}@keyframes YBfTloJU_draw_27{21.700879765395893%{stroke-dashoffset: 439}43.20625610948191%{ stroke-dashoffset: 0;}100%{ stroke-dashoffset: 0;}}@keyframes YBfTloJU_draw_28{22.02671880091235%{stroke-dashoffset: 315}43.53209514499838%{ stroke-dashoffset: 0;}100%{ stroke-dashoffset: 0;}}@keyframes YBfTloJU_draw_29{22.3525578364288%{stroke-dashoffset: 121}43.857934180514825%{ stroke-dashoffset: 0;}100%{ stroke-dashoffset: 0;}}@keyframes YBfTloJU_draw_30{22.678396871945257%{stroke-dashoffset: 51}44.18377321603128%{ stroke-dashoffset: 0;}100%{ stroke-dashoffset: 0;}}@keyframes YBfTloJU_draw_31{23.004235907461716%{stroke-dashoffset: 51}44.509612251547736%{ stroke-dashoffset: 0;}100%{ stroke-dashoffset: 0;}}@keyframes YBfTloJU_draw_32{23.330074942978168%{stroke-dashoffset: 51}44.83545128706419%{ stroke-dashoffset: 0;}100%{ stroke-dashoffset: 0;}}@keyframes YBfTloJU_draw_33{23.65591397849462%{stroke-dashoffset: 51}45.16129032258064%{ stroke-dashoffset: 0;}100%{ stroke-dashoffset: 0;}}</style></svg>
