<!--?xml version="1.0" encoding="utf-8"?-->
<!-- Generator: Adobe Illustrator 14.0.0, SVG Export Plug-In . SVG Version: 6.00 Build 43363)  -->

<svg version="1.1" id="レイヤー_1" xmlns="http://www.w3.org/2000/svg" xmlns:xlink="http://www.w3.org/1999/xlink" x="0px" y="0px" width="647px" height="400px" viewBox="0 0 647 400" enable-background="new 0 0 647 400" xml:space="preserve" style="">
<path fill-rule="evenodd" clip-rule="evenodd" fill="none" stroke="#000000" d="M128.775,267.54
	c-3.322-0.074-85.694-20.349-121.361-42.13c25.615-2.875,53.468-7.493,53.152-8.183c-9.926-21.838-21.318-49.268-21.318-49.268
	s69.102,31.486,100.062,43.572c9.817,3.821,7.659,10.527,7.181,14.596c-0.479,4.067-4.584,17.431-6.099,23.222
	C138.833,255.334,139.789,267.778,128.775,267.54z" class="FGHSCLCw_0"></path>
<path fill-rule="evenodd" clip-rule="evenodd" fill="none" stroke="#000000" d="M100.053,228.523
	c6.464-5.507,33.194-2.119,39.044-5.291c5.238-2.848,4.998-7.397,4.998-7.397s8.856-0.239-3.708,33.252
	c-10.557,28.123-42.058,10.362-44.645,0.021C93.155,238.763,95.88,232.082,100.053,228.523z" class="FGHSCLCw_1"></path>
<path fill-rule="evenodd" clip-rule="evenodd" fill="none" stroke="#000000" d="M518.221,267.54
	c3.32-0.074,85.697-20.349,121.365-42.13c-25.614-2.875-53.468-7.493-53.158-8.183c9.928-21.838,21.323-49.268,21.323-49.268
	s-69.101,31.486-100.065,43.572c-9.812,3.821-7.657,10.527-7.179,14.596c0.479,4.067,4.584,17.431,6.098,23.222
	C508.169,255.334,507.204,267.778,518.221,267.54z" class="FGHSCLCw_2"></path>
<path fill-rule="evenodd" clip-rule="evenodd" fill="none" stroke="#000000" d="M546.946,228.523
	c-6.467-5.507-33.194-2.119-39.043-5.291c-5.241-2.848-5.002-7.397-5.002-7.397s-8.861-0.239,3.709,33.252
	c10.557,28.123,42.063,10.362,44.645,0.021C553.838,238.763,551.121,232.082,546.946,228.523z" class="FGHSCLCw_3"></path>
<path fill-rule="evenodd" clip-rule="evenodd" fill="none" stroke="#000000" d="M323.497,257.443
	c83.379,0,119.604-2.526,180.356-11.798c26.935-4.106,37.723-6.312,39.313-19.038c15.741,3.86,7.816,27.179,7.338,38.76
	c-0.646,15.513,2.587,16.806,2.211,26.498c-0.523,13.588-15.692,15.061-57.304,21.749c-41.171,6.618-101.321,12.029-171.915,12.029
	c-70.591,0-130.744-5.411-171.913-12.029c-41.612-6.688-56.782-8.161-57.304-21.749c-0.378-9.692,2.86-10.985,2.212-26.498
	c-0.481-11.581-8.404-34.899,7.342-38.76c1.587,12.727,12.375,14.932,39.313,19.038
	C203.901,254.917,240.124,257.443,323.497,257.443z" class="FGHSCLCw_4"></path>
<path fill="none" stroke="#000000" d="M405.299,180.77c0-39.284-35.521-71.128-79.331-71.128s-79.331,31.844-79.331,71.128H405.299z
	" class="FGHSCLCw_5"></path>
<path fill="none" stroke="#000000" d="M420.166,184.544c-26.552,1.932-59.819,3.081-95.936,3.081
	c-34.553,0-66.509-1.057-92.456-2.837l17.131-12.554c21.231,1.461,47.37,2.318,75.643,2.318c29.546,0,56.768-0.937,78.479-2.518
	L420.166,184.544z" class="FGHSCLCw_6"></path>
<path fill="none" stroke="#000000" d="M259.959,174.59c0,0-11.498,16.315-14.152,16.311c-2.655-0.003-22.717-9.829-23.009-11.398
	c-0.3-1.571,1.47-10.02,5.011-12.378c3.541-2.36,9.441-6.088,16.817-1.572C251.997,170.073,261.846,171.981,259.959,174.59z" class="FGHSCLCw_7"></path>
<path fill="none" stroke="#000000" d="M392.595,174.59c0,0,11.503,16.315,14.152,16.311c2.654-0.003,22.725-9.829,23.011-11.398
	c0.295-1.571-1.472-10.02-5.016-12.378c-3.538-2.36-9.436-6.088-16.807-1.572C400.562,170.073,390.708,171.981,392.595,174.59z" class="FGHSCLCw_8"></path>
<path fill="none" stroke="#000000" d="M308.767,187.356h34.402c0,0,0,0,9.492,0s47.467,1.906,52.214,2.742
	c4.742,0.838-4.071-8.459-4.071-8.459c-14.239-8.097-71.19-17.145-71.19-17.145c-4.355-0.72-7.28,0-7.28,0
	s-56.956,9.048-71.195,17.145c0,0-8.822,9.297-4.072,8.459c4.75-0.836,42.72-2.742,52.209-2.742
	C308.767,187.356,308.767,187.356,308.767,187.356" class="FGHSCLCw_9"></path>
<path fill="none" stroke="#000000" d="M267.137,192.141l10.39,2.634c-2.358,4.377-4.643,8.086-6.852,11.129v42.875h-10.613v-30.399
	c-1.557,1.524-3.312,3.045-5.272,4.571c-0.447-1.096-1.289-2.621-2.519-4.571c-1.23-1.95-2.298-3.453-3.199-4.509
	c3.564-2.657,6.974-5.916,10.238-9.78C262.571,200.224,265.182,196.239,267.137,192.141z M309.676,207.369h10.838v39.358h-10.838
	v-4.158h-23.718v4.158h-10.535v-39.358h10.535v27.058h6.175v-40.414h11.066v40.414h6.477V207.369z" class="FGHSCLCw_10"></path>
<path fill="none" stroke="#000000" d="M371.032,202.681l8.885-5.096c10.288,6.64,17.218,12.301,20.776,16.987l-9.781,5.8
	c-0.959-1.406-2.462-3.145-4.518-5.213c-1.959,0.079-20.557,0.681-55.792,1.813l-0.676-8.785c1.004,0,2.86-0.028,5.569-0.086
	c2.713-0.062,4.871-0.108,6.478-0.147c4.464-5.622,7.979-11.147,10.54-16.575l12.946,3.28c-2.758,4.062-6.046,8.373-9.862,12.943
	c3.062-0.117,10.164-0.351,21.31-0.702C374.996,205.456,373.041,204.049,371.032,202.681z M337.681,248.896v-27.179h52.927v27.179
	h-12.122v-2.286h-29.359v2.286H337.681z M378.485,230.095h-29.359v8.141h29.359V230.095z" class="FGHSCLCw_11"></path>
<g>
	<path fill="none" stroke="#000000" d="M436.02,74.356c-0.222,1.902-0.508,3.809-0.873,5.725
		c-11.206,58.603-87.569,98.268-170.562,88.595c-33.265-3.878-62.536-15.1-84.959-30.918c21.812,22.265,54.814,38.312,93.802,42.859
		c77.78,9.065,149.924-31.095,161.133-89.696C435.62,85.349,436.101,79.818,436.02,74.356z" class="FGHSCLCw_12"></path>
</g>
<path fill="none" stroke="#000000" d="M242.278,193.124L167.787,247.372L242.278,247.372Z" class="FGHSCLCw_13"></path>
<path fill="none" stroke="#000000" d="M404.724,193.124L479.213,247.372L404.724,247.372Z" class="FGHSCLCw_14"></path>
<path fill="none" stroke="#000000" d="M150.411,295.214c-3.178-0.618-6.352-1.255-9.524-1.903c6.056,3.124,12.701,6.591,16.77,8.939
	c-3.688,0.584-7.387,1.144-11.098,1.679c-3.51-2.449-10.13-6.415-16.607-9.817c2.192-0.562,4.379-1.133,6.561-1.711
	c-5.872-1.237-11.733-2.532-17.585-3.886c2.192,1.516,4.396,3.021,6.605,4.518c-0.312,0.199-0.802,0.249-1.38,0.12
	c-0.192-0.043-0.452-0.101-0.631-0.193c-5.762,0.971-14.318,1.445-21.518,1.157c-1.196-1.812-3.538-5.002-5.078-6.7
	c6.13,0.604,13.048,0.668,17.837,0.124c-2.73-0.644-5.459-1.304-8.185-1.978c1.851-7.512,3.7-15.024,5.551-22.537
	c14.174,3.494,28.415,6.628,42.71,9.403C153.361,280.021,151.89,287.617,150.411,295.214z M161.287,257.995
	c-0.86,4.542-1.722,9.081-2.588,13.62c-16.846-3.196-33.624-6.895-50.308-11.089c1.125-4.481,2.255-8.963,3.38-13.444
	C128.192,251.208,144.705,254.849,161.287,257.995z M123.9,258.561c0.207-0.888,0.415-1.772,0.623-2.657
	c-1.954-0.458-3.909-0.923-5.86-1.394c-0.212,0.889-0.425,1.771-0.641,2.657C119.983,257.64,121.939,258.103,123.9,258.561z
	 M119.784,269.678c-0.132,0.544-0.258,1.092-0.39,1.636c8.296,1.954,16.61,3.785,24.945,5.496c0.11-0.549,0.224-1.099,0.337-1.648
	C136.36,273.456,128.059,271.626,119.784,269.678z M118.396,275.557c-0.133,0.561-0.264,1.126-0.396,1.688
	c8.349,1.966,16.721,3.812,25.112,5.53c0.117-0.565,0.233-1.129,0.349-1.695C135.087,279.359,126.733,277.521,118.396,275.557z
	 M117.003,281.487c-0.137,0.562-0.269,1.122-0.399,1.688c8.405,1.979,16.838,3.835,25.287,5.569
	c0.115-0.565,0.231-1.131,0.346-1.696C133.805,285.316,125.394,283.464,117.003,281.487z M137.29,261.58
	c0.195-0.891,0.386-1.779,0.578-2.672c-1.979-0.427-3.958-0.867-5.935-1.309c-0.2,0.887-0.399,1.775-0.6,2.666
	C133.318,260.71,135.303,261.146,137.29,261.58z M150.959,264.436c0.179-0.895,0.357-1.785,0.536-2.68
	c-2.066-0.412-4.132-0.836-6.198-1.268c-0.184,0.893-0.37,1.785-0.558,2.678C146.813,263.597,148.885,264.019,150.959,264.436z" class="FGHSCLCw_15"></path>
<path fill="none" stroke="#000000" d="M220.551,271.467c1.737,0.68,3.479,1.355,5.221,2.026c-0.177,0.456-0.539,0.839-0.83,1.178
	c-2.299,10.256-5.883,18.522-11.122,24.918c2.61,3.868,5.914,7.166,10.188,9.748c-2.303,1.178-5.641,3.701-7.319,5.514
	c-3.831-2.565-6.836-5.638-9.302-9.079c-3.52,2.673-7.525,4.792-12.152,6.314c-0.959-1.724-2.604-4.188-4.208-5.965
	c-0.255,1.751-0.51,3.5-0.768,5.25c-3.081-0.45-6.156-0.917-9.229-1.402c0.457-2.903,0.912-5.809,1.369-8.715
	c-6.374,0.013-12.494-0.068-16.873-0.253c-0.221,0.495-0.865,0.756-1.396,0.712c-0.579-2.891-1.149-5.788-1.709-8.681
	c1.562,0.176,3.333,0.28,5.223,0.449c1.552-8.865,3.107-17.728,4.656-26.588c-1.538-0.271-3.073-0.544-4.611-0.821
	c0.419-2.309,0.833-4.617,1.255-6.929c10.953,1.982,21.938,3.746,32.94,5.297c-0.224,1.576-0.444,3.156-0.665,4.733
	c5.906,0.833,11.82,1.604,17.743,2.315C219.494,271.484,220.022,271.474,220.551,271.467z M187.399,269.399
	c-2.167-0.341-4.329-0.688-6.496-1.045c-0.218,1.329-0.436,2.659-0.657,3.986c2.174,0.36,4.351,0.711,6.527,1.052
	C186.98,272.062,187.191,270.73,187.399,269.399z M179.147,279.029c-0.224,1.348-0.444,2.693-0.668,4.041
	c2.203,0.361,4.403,0.717,6.605,1.063c0.214-1.349,0.424-2.697,0.635-4.046C183.529,279.743,181.337,279.388,179.147,279.029z
	 M176.664,294.109c2.266,0.142,4.528,0.274,6.795,0.402c0.191-1.23,0.383-2.456,0.578-3.687c-2.222-0.347-4.439-0.703-6.655-1.07
	C177.143,291.208,176.903,292.658,176.664,294.109z M196.213,270.737c-1.653,11.29-3.31,22.586-4.965,33.878
	c4.449-1.363,8.343-3.688,11.715-6.787c-2.542-6.012-3.93-12.786-4.605-20.203c2.791-0.041,5.583-0.101,8.37-0.169
	c0.384,4.344,1.235,8.639,2.542,12.621c2.194-3.423,3.911-7.339,5.272-11.613c-5.592-0.693-11.174-1.444-16.755-2.245
	c0.247-1.716,0.494-3.431,0.738-5.147C197.758,270.962,196.985,270.849,196.213,270.737z" class="FGHSCLCw_16"></path>
<path fill="none" stroke="#000000" d="M260.279,295.021c3.827,1.541,5.634,4.679,6.701,9.23c1.177,5.104,2.47,11.425,3.509,13.302
	c-4.596-0.267-9.19-0.566-13.782-0.895c-0.66-1.385-1.866-5.656-2.719-11.245c-0.838-5.77-2.712-7.423-7.083-7.793
	c-0.841-0.071-1.68-0.146-2.521-0.219c-0.531,6.049-1.062,12.091-1.597,18.14c-4.41-0.39-8.818-0.81-13.224-1.262
	c1.569-15.281,3.136-30.566,4.705-45.851c3.93-0.142,9.342-0.044,15.08,0.444c7.381,0.673,21.804,2.27,21.087,15.046
	c-0.32,5.494-4.767,9.539-10.142,10.859C260.293,294.86,260.284,294.938,260.279,295.021z M248.453,289.863
	c5.441,0.456,8.806-2.1,9.084-5.895c0.388-5.308-4.239-6.688-7.204-6.939c-2.027-0.169-3.412-0.169-4.153-0.055
	c-0.366,4.202-0.735,8.399-1.106,12.598C246.198,289.669,247.328,289.77,248.453,289.863z" class="FGHSCLCw_17"></path>
<path fill="none" stroke="#000000" d="M320.296,319.036c-4.601-0.009-9.203-0.058-13.803-0.136
	c-1.073-3.649-2.133-7.301-3.179-10.955c-4.444-0.093-8.887-0.223-13.329-0.384c-1.18,3.591-2.371,7.18-3.578,10.762
	c-4.497-0.18-8.992-0.39-13.486-0.636c6-15.283,11.738-30.624,17.211-46.013c5.345,0.199,10.688,0.352,16.035,0.45
	C310.62,287.8,315.33,303.438,320.296,319.036z M301.93,299.867c-0.771-3.14-1.53-6.285-2.279-9.434
	c-0.667-2.799-1.5-6.997-2.147-9.862c-0.047,0-0.095-0.002-0.145-0.002c-0.805,2.822-1.885,7.087-2.629,9.723
	c-0.956,3.098-1.921,6.193-2.896,9.286C295.197,299.695,298.562,299.789,301.93,299.867z" class="FGHSCLCw_18"></path>
<path fill="none" stroke="#000000" d="M370.714,317.764c-4.419,0.235-8.839,0.436-13.261,0.606
	c-3.628-5.53-7.188-11.084-10.69-16.653c-2.807-4.404-6.186-10.44-8.317-15.242c-0.097,0.004-0.196,0.004-0.291,0.004
	c0.463,5.438,0.891,12.566,1.046,20.916c0.071,3.83,0.142,7.659,0.213,11.489c-3.993,0.073-7.988,0.124-11.981,0.144
	c-0.083-15.587-0.165-31.172-0.252-46.76c4.508-0.021,9.016-0.081,13.524-0.178c3.28,5.519,6.623,11.017,10.027,16.497
	c2.697,4.09,6.022,9.959,8.377,14.583c0.051-0.002,0.101-0.006,0.147-0.006c-0.894-5.411-1.624-12.708-1.932-20.445
	c-0.147-3.706-0.295-7.412-0.439-11.121c3.786-0.149,7.568-0.325,11.354-0.526C369.063,286.637,369.889,302.2,370.714,317.764z" class="FGHSCLCw_19"></path>
<path fill="none" stroke="#000000" d="M424.722,313.287c-5.032,0.565-10.064,1.094-15.104,1.576
	c-4.292-6.047-8.508-12.127-12.648-18.233c-1.139,1.55-2.279,3.102-3.431,4.65c0.395,4.965,0.789,9.928,1.187,14.893
	c-4.414,0.35-8.83,0.671-13.246,0.957c-1.013-15.553-2.019-31.109-3.027-46.66c4.187-0.272,8.379-0.572,12.563-0.906
	c0.544,6.831,1.088,13.665,1.633,20.501c0.074-0.006,0.147-0.015,0.221-0.017c0.875-1.95,1.826-3.852,2.769-5.812
	c2.867-5.254,5.677-10.527,8.433-15.813c4.97-0.471,9.938-0.985,14.9-1.544c-4.429,7.256-8.979,14.476-13.66,21.661
	C411.618,296.856,418.092,305.106,424.722,313.287z" class="FGHSCLCw_20"></path>
<path fill="none" stroke="#000000" d="M424.349,266.26c4.197-0.5,8.396-1.031,12.588-1.591c2.064,15.45,4.13,30.898,6.195,46.347
	c-4.421,0.593-8.843,1.149-13.269,1.676C428.025,297.214,426.188,281.736,424.349,266.26z" class="FGHSCLCw_21"></path>
<path fill="none" stroke="#000000" d="M496.656,302.23c-4.361,0.85-8.73,1.668-13.099,2.453c-4.374-4.969-8.688-9.971-12.941-14.998
	c-3.396-3.97-7.594-9.479-10.377-13.936c-0.095,0.017-0.191,0.029-0.289,0.045c1.217,5.32,2.631,12.323,3.945,20.566
	c0.602,3.783,1.203,7.567,1.806,11.348c-3.956,0.632-7.914,1.236-11.879,1.814c-2.247-15.423-4.494-30.847-6.745-46.271
	c4.475-0.65,8.943-1.338,13.406-2.062c4.027,5.006,8.112,9.983,12.258,14.938c3.246,3.673,7.362,9.021,10.351,13.273
	c0.048-0.009,0.098-0.018,0.147-0.026c-1.641-5.236-3.38-12.36-4.76-19.977c-0.66-3.652-1.322-7.303-1.985-10.955
	c3.744-0.675,7.481-1.379,11.217-2.107C490.694,271.635,493.672,286.933,496.656,302.23z" class="FGHSCLCw_22"></path>
<path fill="none" stroke="#000000" d="M548.458,288.684c-3.143,1.874-9.521,4.724-15.696,6.182
	c-9.068,2.147-16.061,1.687-21.412-0.88c-6.04-2.86-9.974-8.674-11.433-15.845c-3.148-15.846,8.05-26.281,23.264-29.93
	c5.704-1.364,10.418-1.619,13.052-1.293c-0.048,3.051-0.104,6.104-0.166,9.155c-2.64-0.272-5.78-0.17-10.407,0.938
	c-8.801,2.109-14.56,7.873-12.293,18.278c2.11,9.69,9.418,12.992,17.238,11.134c1.842-0.435,3.283-0.908,3.947-1.377
	c-0.767-3.177-1.535-6.351-2.302-9.527c-2.231,0.543-4.464,1.074-6.698,1.597c-0.639-2.731-1.274-5.46-1.913-8.188
	c6.203-1.454,12.396-2.972,18.573-4.556C544.294,272.474,546.375,280.58,548.458,288.684z" class="FGHSCLCw_23"></path>
<style>.FGHSCLCw_0{stroke-dasharray:413 415;stroke-dashoffset:414;animation:FGHSCLCw_draw_0 6200ms linear 0ms infinite,FGHSCLCw_fade 6200ms linear 0ms infinite;}.FGHSCLCw_1{stroke-dasharray:165 167;stroke-dashoffset:166;animation:FGHSCLCw_draw_1 6200ms linear 0ms infinite,FGHSCLCw_fade 6200ms linear 0ms infinite;}.FGHSCLCw_2{stroke-dasharray:413 415;stroke-dashoffset:414;animation:FGHSCLCw_draw_2 6200ms linear 0ms infinite,FGHSCLCw_fade 6200ms linear 0ms infinite;}.FGHSCLCw_3{stroke-dasharray:165 167;stroke-dashoffset:166;animation:FGHSCLCw_draw_3 6200ms linear 0ms infinite,FGHSCLCw_fade 6200ms linear 0ms infinite;}.FGHSCLCw_4{stroke-dasharray:1072 1074;stroke-dashoffset:1073;animation:FGHSCLCw_draw_4 6200ms linear 0ms infinite,FGHSCLCw_fade 6200ms linear 0ms infinite;}.FGHSCLCw_5{stroke-dasharray:396 398;stroke-dashoffset:397;animation:FGHSCLCw_draw_5 6200ms linear 0ms infinite,FGHSCLCw_fade 6200ms linear 0ms infinite;}.FGHSCLCw_6{stroke-dasharray:386 388;stroke-dashoffset:387;animation:FGHSCLCw_draw_6 6200ms linear 0ms infinite,FGHSCLCw_fade 6200ms linear 0ms infinite;}.FGHSCLCw_7{stroke-dasharray:99 101;stroke-dashoffset:100;animation:FGHSCLCw_draw_7 6200ms linear 0ms infinite,FGHSCLCw_fade 6200ms linear 0ms infinite;}.FGHSCLCw_8{stroke-dasharray:99 101;stroke-dashoffset:100;animation:FGHSCLCw_draw_8 6200ms linear 0ms infinite,FGHSCLCw_fade 6200ms linear 0ms infinite;}.FGHSCLCw_9{stroke-dasharray:336 338;stroke-dashoffset:337;animation:FGHSCLCw_draw_9 6200ms linear 0ms infinite,FGHSCLCw_fade 6200ms linear 0ms infinite;}.FGHSCLCw_10{stroke-dasharray:467 469;stroke-dashoffset:468;animation:FGHSCLCw_draw_10 6200ms linear 0ms infinite,FGHSCLCw_fade 6200ms linear 0ms infinite;}.FGHSCLCw_11{stroke-dasharray:450 452;stroke-dashoffset:451;animation:FGHSCLCw_draw_11 6200ms linear 0ms infinite,FGHSCLCw_fade 6200ms linear 0ms infinite;}.FGHSCLCw_12{stroke-dasharray:631 633;stroke-dashoffset:632;animation:FGHSCLCw_draw_12 6200ms linear 0ms infinite,FGHSCLCw_fade 6200ms linear 0ms infinite;}.FGHSCLCw_13{stroke-dasharray:221 223;stroke-dashoffset:222;animation:FGHSCLCw_draw_13 6200ms linear 0ms infinite,FGHSCLCw_fade 6200ms linear 0ms infinite;}.FGHSCLCw_14{stroke-dasharray:221 223;stroke-dashoffset:222;animation:FGHSCLCw_draw_14 6200ms linear 0ms infinite,FGHSCLCw_fade 6200ms linear 0ms infinite;}.FGHSCLCw_15{stroke-dasharray:589 591;stroke-dashoffset:590;animation:FGHSCLCw_draw_15 6200ms linear 0ms infinite,FGHSCLCw_fade 6200ms linear 0ms infinite;}.FGHSCLCw_16{stroke-dasharray:437 439;stroke-dashoffset:438;animation:FGHSCLCw_draw_16 6200ms linear 0ms infinite,FGHSCLCw_fade 6200ms linear 0ms infinite;}.FGHSCLCw_17{stroke-dasharray:248 250;stroke-dashoffset:249;animation:FGHSCLCw_draw_17 6200ms linear 0ms infinite,FGHSCLCw_fade 6200ms linear 0ms infinite;}.FGHSCLCw_18{stroke-dasharray:228 230;stroke-dashoffset:229;animation:FGHSCLCw_draw_18 6200ms linear 0ms infinite,FGHSCLCw_fade 6200ms linear 0ms infinite;}.FGHSCLCw_19{stroke-dasharray:282 284;stroke-dashoffset:283;animation:FGHSCLCw_draw_19 6200ms linear 0ms infinite,FGHSCLCw_fade 6200ms linear 0ms infinite;}.FGHSCLCw_20{stroke-dasharray:248 250;stroke-dashoffset:249;animation:FGHSCLCw_draw_20 6200ms linear 0ms infinite,FGHSCLCw_fade 6200ms linear 0ms infinite;}.FGHSCLCw_21{stroke-dasharray:120 122;stroke-dashoffset:121;animation:FGHSCLCw_draw_21 6200ms linear 0ms infinite,FGHSCLCw_fade 6200ms linear 0ms infinite;}.FGHSCLCw_22{stroke-dasharray:282 284;stroke-dashoffset:283;animation:FGHSCLCw_draw_22 6200ms linear 0ms infinite,FGHSCLCw_fade 6200ms linear 0ms infinite;}.FGHSCLCw_23{stroke-dasharray:257 259;stroke-dashoffset:258;animation:FGHSCLCw_draw_23 6200ms linear 0ms infinite,FGHSCLCw_fade 6200ms linear 0ms infinite;}@keyframes FGHSCLCw_draw{100%{stroke-dashoffset:0;}}@keyframes FGHSCLCw_fade{0%{stroke-opacity:1;}93.54838709677419%{stroke-opacity:1;}100%{stroke-opacity:0;}}@keyframes FGHSCLCw_draw_0{12.903225806451612%{stroke-dashoffset: 414}34.40860215053764%{ stroke-dashoffset: 0;}100%{ stroke-dashoffset: 0;}}@keyframes FGHSCLCw_draw_1{13.370733987844785%{stroke-dashoffset: 166}34.8761103319308%{ stroke-dashoffset: 0;}100%{ stroke-dashoffset: 0;}}@keyframes FGHSCLCw_draw_2{13.83824216923796%{stroke-dashoffset: 414}35.34361851332398%{ stroke-dashoffset: 0;}100%{ stroke-dashoffset: 0;}}@keyframes FGHSCLCw_draw_3{14.305750350631136%{stroke-dashoffset: 166}35.81112669471716%{ stroke-dashoffset: 0;}100%{ stroke-dashoffset: 0;}}@keyframes FGHSCLCw_draw_4{14.773258532024311%{stroke-dashoffset: 1073}36.27863487611034%{ stroke-dashoffset: 0;}100%{ stroke-dashoffset: 0;}}@keyframes FGHSCLCw_draw_5{15.240766713417484%{stroke-dashoffset: 397}36.7461430575035%{ stroke-dashoffset: 0;}100%{ stroke-dashoffset: 0;}}@keyframes FGHSCLCw_draw_6{15.708274894810659%{stroke-dashoffset: 387}37.21365123889668%{ stroke-dashoffset: 0;}100%{ stroke-dashoffset: 0;}}@keyframes FGHSCLCw_draw_7{16.175783076203835%{stroke-dashoffset: 100}37.68115942028986%{ stroke-dashoffset: 0;}100%{ stroke-dashoffset: 0;}}@keyframes FGHSCLCw_draw_8{16.64329125759701%{stroke-dashoffset: 100}38.14866760168304%{ stroke-dashoffset: 0;}100%{ stroke-dashoffset: 0;}}@keyframes FGHSCLCw_draw_9{17.11079943899018%{stroke-dashoffset: 337}38.61617578307621%{ stroke-dashoffset: 0;}100%{ stroke-dashoffset: 0;}}@keyframes FGHSCLCw_draw_10{17.578307620383356%{stroke-dashoffset: 468}39.08368396446938%{ stroke-dashoffset: 0;}100%{ stroke-dashoffset: 0;}}@keyframes FGHSCLCw_draw_11{18.045815801776534%{stroke-dashoffset: 451}39.55119214586256%{ stroke-dashoffset: 0;}100%{ stroke-dashoffset: 0;}}@keyframes FGHSCLCw_draw_12{18.513323983169705%{stroke-dashoffset: 632}40.01870032725572%{ stroke-dashoffset: 0;}100%{ stroke-dashoffset: 0;}}@keyframes FGHSCLCw_draw_13{18.98083216456288%{stroke-dashoffset: 222}40.4862085086489%{ stroke-dashoffset: 0;}100%{ stroke-dashoffset: 0;}}@keyframes FGHSCLCw_draw_14{19.44834034595605%{stroke-dashoffset: 222}40.95371669004208%{ stroke-dashoffset: 0;}100%{ stroke-dashoffset: 0;}}@keyframes FGHSCLCw_draw_15{19.915848527349226%{stroke-dashoffset: 590}41.42122487143525%{ stroke-dashoffset: 0;}100%{ stroke-dashoffset: 0;}}@keyframes FGHSCLCw_draw_16{20.383356708742404%{stroke-dashoffset: 438}41.88873305282843%{ stroke-dashoffset: 0;}100%{ stroke-dashoffset: 0;}}@keyframes FGHSCLCw_draw_17{20.850864890135576%{stroke-dashoffset: 249}42.3562412342216%{ stroke-dashoffset: 0;}100%{ stroke-dashoffset: 0;}}@keyframes FGHSCLCw_draw_18{21.31837307152875%{stroke-dashoffset: 229}42.82374941561478%{ stroke-dashoffset: 0;}100%{ stroke-dashoffset: 0;}}@keyframes FGHSCLCw_draw_19{21.785881252921925%{stroke-dashoffset: 283}43.291257597007956%{ stroke-dashoffset: 0;}100%{ stroke-dashoffset: 0;}}@keyframes FGHSCLCw_draw_20{22.253389434315096%{stroke-dashoffset: 249}43.75876577840112%{ stroke-dashoffset: 0;}100%{ stroke-dashoffset: 0;}}@keyframes FGHSCLCw_draw_21{22.720897615708274%{stroke-dashoffset: 121}44.2262739597943%{ stroke-dashoffset: 0;}100%{ stroke-dashoffset: 0;}}@keyframes FGHSCLCw_draw_22{23.188405797101446%{stroke-dashoffset: 283}44.69378214118747%{ stroke-dashoffset: 0;}100%{ stroke-dashoffset: 0;}}@keyframes FGHSCLCw_draw_23{23.65591397849462%{stroke-dashoffset: 258}45.16129032258064%{ stroke-dashoffset: 0;}100%{ stroke-dashoffset: 0;}}</style></svg>
