<!--?xml version="1.0" encoding="utf-8"?-->
<!-- Generator: Adobe Illustrator 14.0.0, SVG Export Plug-In . SVG Version: 6.00 Build 43363)  -->

<svg version="1.1" id="レイヤー_1" xmlns="http://www.w3.org/2000/svg" xmlns:xlink="http://www.w3.org/1999/xlink" x="0px" y="0px" width="647px" height="400px" viewBox="0 0 647 400" enable-background="new 0 0 647 400" xml:space="preserve" style="">
<path fill="none" stroke="#231815" d="M503.224,112.155c1.675-1.509,4.46-8.345,2.078-13.534c-2.384-5.194-0.284-7.2,0.02-10.576
	c0.306-3.373-3.526-12.35-6.27-15.609c-2.742-3.258,0,0-4.365-11.361c-4.363-11.361-12.095-8.653-24.599-5.284
	c-6.53,1.764-12.1,6.764-15.929,11.142c0.329-13.596,0.692-25.212-10.528-41.815c-12.019-17.787-30.152-13.719-33.854-8.284
	c-3.714,5.425,2.811,16.225,6.816,18.467c4.005,2.249,20.244,27.558,19.005,40.582c-1.229,13.019,2.495,19.121,8.195,53.493
	c8.806,53.105-36.453,111.451-82.768,120.609c-10.4,2.059-31.742,1.938-40.634-5.718c-30.865-26.55,31.586-98.256,39.925-125.37
	c2.063-6.73-0.682-14.152-6.452-17.414c-5.765-3.259-12.798-1.363-16.489,4.452c-0.663,1.042-16.369,25.851-29.841,55.68
	c-0.587,1.293-1.153,2.577-1.715,3.849c-6.792,10.352-14.448,21.017-22.691,31.1c-18.769,22.942-54.97,59.904-86.592,49.661
	c-8.131-2.635-10.497-7.346-11.651-11.157c-4.802-15.835,4.107-47.887,24.452-87.934c6.707-13.208,13.754-25.562,19.82-35.656
	c0.887-1.125,1.691-2.264,2.407-3.414l14.11-22.606c3.983-6.387,2.592-15.149-3.14-19.736c-5.728-4.588-13.691-3.317-17.935,2.858
	c-0.47,0.684-7.167,10.458-16.162,25.351c-10.722,11.777-47.948,25.216-71.431,30.99c-6.983,1.713-11.344,9.361-9.729,17.074
	c1.605,7.72,8.571,12.583,15.556,10.872c0.709-0.17,17.607-4.351,36.526-11.439c1.299-0.491,2.584-0.982,3.84-1.472
	c-22.602,46.235-30.102,80.309-22.931,103.994c4.463,14.727,14.535,25.006,29.126,29.737c37.296,12.08,66.326-14.026,94.146-36.655
	c0.358-0.426,0.686-0.78,0.959-1.062c-0.793,0.821,4.655,10.615,5.252,11.675c1.976,3.481,4.272,6.739,6.788,9.766
	c5.033,6.055,12.341,11.508,18.794,15.516c6.515,4.05,13.623,6.589,21.04,7.497c15.242,1.861,37.06-0.354,51.271-6.062
	c37.734-15.147,62.548-45.29,83.798-82.683c6.702-11.783,12.165-24.439,17.311-37.125c1.584-3.886,4.198-15.461,8.095-17.374
	c4.044-1.984,6.725-5.303,8.235-10.682C506.995,119.692,501.538,113.66,503.224,112.155z" class="auDHUodP_0"></path>
<path fill="none" stroke="#231815" d="M360.316,118.897c-8.339,27.113-70.79,98.82-39.925,125.37
	c0.268,0.229,0.58,0.432,0.869,0.647c-21.971-29.002,35.477-95.699,43.448-121.625c2.064-6.73,2.286-10.861-7.573-19.188
	c-0.018-0.015-0.033-0.022-0.051-0.038C360.569,107.852,361.946,113.585,360.316,118.897z" class="auDHUodP_1"></path>
<path fill="none" stroke="#231815" d="M443.631,25.118c11.221,16.603,10.857,28.22,10.528,41.815
	c1.298-1.485,2.813-3.037,4.482-4.512c-0.186-10.137-1.907-20.024-10.619-32.912c-2.029-3.005-4.237-5.371-6.517-7.226
	C442.232,23.161,442.939,24.099,443.631,25.118z" class="auDHUodP_2"></path>
<path fill="none" stroke="#231815" d="M245.672,85.459l-14.11,22.606c-0.715,1.15-1.52,2.29-2.407,3.414
	c-6.066,10.094-13.113,22.448-19.82,35.656c-20.345,40.047-29.253,72.099-24.452,87.934c0.847,2.79,2.352,6.062,6.287,8.651
	c-0.917-1.445-1.486-2.91-1.894-4.261c-4.801-15.836,4.106-47.885,24.453-87.934c6.704-13.205,13.752-25.561,19.819-35.653
	c0.885-1.125,1.691-2.264,2.408-3.414l14.109-22.605c3.983-6.388,2.051-14.547-3.142-19.737c-0.696-0.697-1.355-1.317-1.983-1.881
	C248.559,73.07,249.017,80.098,245.672,85.459z" class="auDHUodP_3"></path>
<path fill="none" stroke="#231815" d="M474.066,54.715c-0.011,0.004-0.02,0.005-0.031,0.008c-0.004,0.001-0.004,0.004-0.006,0.004
	C474.04,54.723,474.056,54.719,474.066,54.715z" class="auDHUodP_4"></path>
<path fill="none" stroke="#231815" d="M507.614,116.545c1.678-1.509,4.461-8.342,2.077-13.535c-2.38-5.194-0.279-7.198,0.022-10.574
	c0.305-3.373-3.527-12.353-6.27-15.609s0.521-0.214-4.368-11.362c-2.842-6.477-4.44-12.316-13.447-12.528
	c3.944,0.373,6.911,2.547,9.058,8.137c4.365,11.361,1.623,8.103,4.365,11.361c2.743,3.259,6.575,12.236,6.27,15.609
	c-0.304,3.376-2.403,5.382-0.02,10.576c2.382,5.189-0.403,12.025-2.078,13.534c-1.686,1.505,3.771,7.538,1.859,14.341
	c-1.511,5.379-4.191,8.698-8.235,10.682c-3.896,1.913-6.511,13.488-8.095,17.374c-5.146,12.687-10.608,25.343-17.311,37.125
	c-21.25,37.393-46.063,67.535-83.798,82.683c-14.212,5.709-36.029,7.924-51.271,6.062c-7.417-0.908-14.525-3.447-21.04-7.497
	c-4.368-2.712-9.11-6.097-13.291-9.869c4.964,5.547,11.68,10.532,17.682,14.261c6.516,4.051,13.626,6.589,21.037,7.497
	c15.247,1.861,37.063-0.354,51.276-6.061c37.732-15.149,62.546-45.291,83.797-82.686c6.701-11.782,12.165-24.438,17.309-37.125
	c1.583-3.886,4.199-15.461,8.096-17.374c4.044-1.983,6.728-5.304,8.235-10.681C511.388,124.085,505.931,118.053,507.614,116.545z" class="auDHUodP_5"></path>
<path fill="none" stroke="#231815" d="M284.499,235.969c-0.273,0.282-0.601,0.637-0.959,1.062
	c-27.82,22.629-56.85,48.735-94.146,36.655c-6.097-1.977-11.394-4.938-15.833-8.772c5.165,6.03,11.969,10.487,20.226,13.165
	c36.827,11.929,65.597-13.376,93.099-35.805C285.437,239.413,284.075,236.409,284.499,235.969z" class="auDHUodP_6"></path>
<path fill="none" stroke="#231815" d="M183.198,139.956c-1.256,0.489-2.541,0.981-3.84,1.472
	c-18.919,7.089-35.817,11.269-36.526,11.439c-5.465,1.34-10.904-1.356-13.788-6.285c0.006,0.017,0.006,0.03,0.009,0.048
	c1.877,7.657,11.187,12.341,18.172,10.627c0.657-0.157,15.26-3.773,32.475-9.955C180.829,144.882,181.981,142.443,183.198,139.956z" class="auDHUodP_7"></path>
<path fill="none" stroke="#231815" d="M174.647,295.638L162.526,322.955L149.268,322.955L158.653,301.796L142.81,301.796L
	141.217,310.735L127.958,310.735L130.64,295.638Z" class="auDHUodP_8"></path>
<path fill="none" stroke="#231815" d="M224.587,295.638L212.466,322.955L199.205,322.955L202.93,314.512L197.067,314.512L
	198.16,308.352L205.661,308.352L208.593,301.796L196.722,301.796L190.711,312.973L177.449,312.973L185.147,295.638Z" class="auDHUodP_9"></path>
<path fill="none" stroke="#231815" d="M242.915,306.814h3.676l-1.091,6.158H228.56l3.081-17.335h13.261L242.915,306.814z
	 M262.088,322.955h-13.312l12.168-27.317h13.265L262.088,322.955z" class="auDHUodP_10"></path>
<path fill="none" stroke="#231815" d="M292.04,304.13c0.828,0.829,1.241,1.871,1.241,3.13c0,1.621-0.643,3.062-1.934,4.32
	c-1.293,1.259-2.75,1.889-4.372,1.889c-1.291,0-2.359-0.416-3.204-1.242s-1.266-1.871-1.266-3.129c0-1.621,0.644-3.063,1.936-4.322
	c1.294-1.258,2.762-1.886,4.42-1.886C290.154,302.89,291.211,303.301,292.04,304.13" class="auDHUodP_11"></path>
<path fill="none" stroke="#231815" d="M344.098,297.921L346.978,297.921L345.884,304.081L341.368,304.081L332.969,322.955L
	319.706,322.955L328.102,304.081L318.664,304.081L317.126,312.973L303.862,312.973L305.403,304.081L301.825,304.081L
	302.917,297.921L306.495,297.921L307.289,293.402L320.555,293.402L319.756,297.921L330.833,297.921L332.821,293.402L
	346.086,293.402Z" class="auDHUodP_12"></path>
<path fill="none" stroke="#231815" d="M395.165,300.703L382.198,304.279L378.923,322.955L365.66,322.955L368.29,308.103L
	350.559,312.973L351.85,305.719L396.457,293.402Z" class="auDHUodP_13"></path>
<path fill="none" stroke="#231815" d="M445.76,295.638L440.943,322.955L398.475,322.955L399.567,316.797L428.725,316.797L
	431.406,301.796L402.197,301.796L403.289,295.638Z" class="auDHUodP_14"></path>
<path fill="none" stroke="#231815" d="M488.903,312.901L491.946,295.636L505.206,295.636L502.191,312.901Z" class="auDHUodP_15"></path>
<path fill="none" stroke="#231815" d="M501.496,316.795L500.421,322.955L487.131,322.955L488.214,316.797Z" class="auDHUodP_16"></path>
<path fill="none" stroke="#231815" d="M452.654,305.075L480.621,305.075L479.527,311.235L451.561,311.235Z" class="auDHUodP_17"></path>
<path fill="none" stroke="#231815" d="M216.974,337.299l-12.12,27.319h-13.26l9.386-21.162h-27.518l1.093-6.157H216.974z
	 M217.572,326.123c0.828,0.828,1.241,1.869,1.241,3.129c0,1.624-0.639,3.072-1.913,4.346c-1.274,1.274-2.742,1.911-4.396,1.911
	c-1.292,0-2.358-0.419-3.203-1.264c-0.846-0.846-1.266-1.896-1.266-3.155c0-1.622,0.645-3.064,1.939-4.323
	c1.291-1.258,2.762-1.885,4.417-1.885C215.682,324.882,216.742,325.295,217.572,326.123 M215.04,332.134
	c0.627-0.53,1.024-1.175,1.189-1.937c0.133-0.764-0.024-1.42-0.473-1.963c-0.448-0.549-1.049-0.819-1.811-0.819
	c-0.766,0-1.466,0.271-2.111,0.819c-0.646,0.543-1.035,1.199-1.167,1.963c-0.136,0.762,0.024,1.406,0.472,1.937
	c0.446,0.529,1.051,0.796,1.812,0.796C213.713,332.93,214.409,332.663,215.04,332.134" class="auDHUodP_18"></path>
<path fill="none" stroke="#231815" d="M268.07,337.299l-4.817,27.319h-42.469l4.814-27.319H268.07z M253.716,343.456h-15.948
	l-2.63,15.004h15.898L253.716,343.456z" class="auDHUodP_19"></path>
<path fill="none" stroke="#231815" d="M288.238,352.947h-16.192l1.09-6.16h16.194L288.238,352.947z M289.926,343.459h-16.193
	l1.043-6.157h16.244L289.926,343.459z M302.443,337.302h13.312l-16.987,27.316h-13.262L302.443,337.302z M306.865,333.177h-6.26
	l1.044-6.011h6.259L306.865,333.177z M311.285,327.166h6.259l-1.094,6.011h-6.208L311.285,327.166z" class="auDHUodP_20"></path>
<path fill="none" stroke="#231815" d="M346.801,347.728L344.664,359.7L356.334,359.7L355.489,364.618L321.519,364.618L
	322.41,359.7L334.083,359.7L336.171,347.728L324.495,347.728L325.392,342.76L359.316,342.76L358.473,347.728Z" class="auDHUodP_21"></path>
<path fill="none" stroke="#231815" d="M410.426,337.299L398.309,364.618L385.044,364.618L394.433,343.456L381.517,343.456L
	376.552,354.635L363.292,354.635L370.986,337.299Z" class="auDHUodP_22"></path>
<path fill="none" stroke="#231815" d="M459.699,348.377L458.61,354.533L429.452,354.533L427.661,364.618L414.401,364.618L
	419.218,337.302L432.479,337.302L430.543,348.377Z" class="auDHUodP_23"></path>
<path fill="none" stroke="#231815" d="M211.425,373.954l0.138,7.716l-0.075,2.149l0.84-2.103l3.175-7.763h2.973l-0.049,7.716
	l-0.044,2.149l0.852-2.067l3.466-7.798h2.861l-6.656,13.478h-2.69l0.045-7.883l0.074-2.605l-1.023,2.605l-3.301,7.883h-2.619
	l-0.96-13.478H211.425z" class="auDHUodP_24"></path>
<path fill="none" stroke="#231815" d="M229.211,373.954h3.182l1.912,13.478h-3.056l-0.283-2.77h-4.964l-1.521,2.77h-2.943
	L229.211,373.954z M227.253,382.339h3.422l-0.561-5.305L227.253,382.339z" class="auDHUodP_25"></path>
<path fill="none" stroke="#231815" d="M246.759,373.954l-0.512,2.385h-4.033l-2.35,11.093h-2.834l2.349-11.093h-4.052l0.515-2.385
	H246.759z" class="auDHUodP_26"></path>
<path fill="none" stroke="#231815" d="M250.352,373.954h3.182l1.913,13.478h-3.055l-0.284-2.77h-4.967l-1.517,2.77h-2.943
	L250.352,373.954z M248.395,382.339h3.421l-0.561-5.305L248.395,382.339z" class="auDHUodP_27"></path>
<path fill="none" stroke="#231815" d="M269.895,375.242c0.22,0.339,0.369,0.72,0.451,1.133c0.083,0.416,0.067,0.887-0.041,1.418
	c-0.139,0.641-0.438,1.27-0.889,1.89c-0.456,0.616-1.083,1.056-1.883,1.312c0.568,0.25,0.934,0.604,1.095,1.063
	c0.16,0.462,0.142,1.165-0.06,2.111l-0.19,0.904c-0.13,0.615-0.195,1.032-0.195,1.252c0,0.349,0.116,0.604,0.348,0.768l-0.063,0.339
	h-3.1c-0.027-0.297-0.038-0.541-0.038-0.723c0.007-0.377,0.048-0.764,0.127-1.162l0.247-1.252c0.172-0.857,0.138-1.432-0.105-1.719
	c-0.239-0.286-0.772-0.43-1.602-0.43h-2.91l-1.117,5.285h-2.75l2.861-13.478h6.611c0.938,0.018,1.64,0.134,2.103,0.345
	C269.259,374.513,269.625,374.827,269.895,375.242z M262.33,376.293l-0.769,3.62h3.194c0.634,0,1.123-0.071,1.471-0.22
	c0.616-0.254,1.005-0.762,1.169-1.517c0.172-0.817,0.019-1.364-0.463-1.646c-0.276-0.157-0.717-0.237-1.329-0.237H262.33z" class="auDHUodP_28"></path>
<path fill="none" stroke="#231815" d="M273.26,387.432h-2.801l2.864-13.478h2.798L273.26,387.432z" class="auDHUodP_29"></path>
<path fill="none" stroke="#231815" d="M281.38,380.033c0.381,0,0.676,0.062,0.889,0.185c0.213,0.122,0.38,0.29,0.5,0.503
	c0.124,0.214,0.202,0.456,0.239,0.732c0.038,0.272,0.057,0.569,0.057,0.886c0,0.451-0.063,0.799-0.193,1.044
	c-0.127,0.244-0.299,0.432-0.521,0.558c-0.22,0.127-0.489,0.203-0.802,0.229c-0.321,0.026-0.661,0.037-1.027,0.037
	c-0.766,0-1.301-0.16-1.598-0.485c-0.299-0.323-0.448-0.862-0.448-1.619c0-0.378,0.029-0.696,0.09-0.96
	c0.062-0.262,0.167-0.477,0.321-0.641c0.152-0.164,0.354-0.283,0.612-0.354c0.258-0.075,0.579-0.113,0.972-0.113H281.38z" class="auDHUodP_30"></path>
<path fill="none" stroke="#231815" d="M288.167,383.271c-0.041,0.616,0.025,1.077,0.209,1.381c0.343,0.556,1.068,0.831,2.177,0.831
	c0.666,0,1.218-0.071,1.666-0.217c0.845-0.281,1.349-0.802,1.51-1.564c0.096-0.446-0.027-0.791-0.367-1.033
	c-0.336-0.238-0.904-0.448-1.703-0.633l-1.359-0.318c-1.337-0.318-2.233-0.663-2.69-1.035c-0.773-0.622-1.023-1.592-0.744-2.915
	c0.258-1.207,0.912-2.211,1.958-3.011c1.049-0.799,2.424-1.197,4.124-1.197c1.423,0,2.554,0.376,3.396,1.13
	c0.84,0.753,1.136,1.846,0.877,3.278h-2.708c0.131-0.812-0.101-1.386-0.683-1.728c-0.393-0.227-0.912-0.34-1.565-0.34
	c-0.725,0-1.337,0.147-1.834,0.439s-0.799,0.7-0.912,1.227c-0.101,0.48,0.038,0.84,0.415,1.079c0.236,0.156,0.781,0.344,1.636,0.557
	l2.204,0.557c0.964,0.245,1.662,0.57,2.095,0.98c0.668,0.633,0.878,1.552,0.62,2.753c-0.261,1.23-0.952,2.253-2.065,3.068
	c-1.117,0.814-2.536,1.22-4.254,1.22c-1.756,0-3.052-0.4-3.885-1.201c-0.837-0.804-1.105-1.905-0.807-3.308H288.167z" class="auDHUodP_31"></path>
<path fill="none" stroke="#231815" d="M304.463,373.954h3.182l1.913,13.478h-3.055l-0.284-2.77h-4.964l-1.52,2.77h-2.942
	L304.463,373.954z M302.506,382.339h3.421l-0.56-5.305L302.506,382.339z" class="auDHUodP_32"></path>
<path fill="none" stroke="#231815" d="M313.846,387.432h-2.797l2.861-13.478h2.798L313.846,387.432z" class="auDHUodP_33"></path>
<path fill="none" stroke="#231815" d="M319.382,373.954h2.767l-1.175,5.55l6.382-5.55h3.639l-6.705,5.55l4.128,7.928h-3.623
	l-2.917-5.889l-1.637,1.38l-0.952,4.509h-2.771L319.382,373.954z" class="auDHUodP_34"></path>
<path fill="none" stroke="#231815" d="M338.712,386.233c-1.238,1.051-2.82,1.573-4.749,1.573c-1.924,0-3.287-0.522-4.086-1.573
	c-1.09-1.286-1.377-3.138-0.859-5.562c0.522-2.468,1.598-4.321,3.228-5.56c1.238-1.047,2.82-1.571,4.748-1.571
	c1.927,0,3.285,0.524,4.087,1.571c1.098,1.238,1.386,3.092,0.858,5.56C341.423,383.096,340.348,384.947,338.712,386.233z
	 M339.12,380.672c0.319-1.508,0.237-2.678-0.24-3.506c-0.479-0.827-1.275-1.239-2.392-1.239c-1.117,0-2.092,0.412-2.933,1.234
	c-0.837,0.822-1.419,1.994-1.74,3.511c-0.325,1.521-0.239,2.69,0.246,3.513c0.489,0.823,1.291,1.235,2.406,1.235
	c1.117,0,2.092-0.412,2.922-1.235C338.223,383.362,338.8,382.193,339.12,380.672z" class="auDHUodP_35"></path>
<path fill="none" stroke="#231815" d="M343.907,384.789h2.723l-0.556,2.643h-2.728L343.907,384.789z M346.136,373.998h2.865
	l-0.73,3.421l-2.077,6.29h-1.363l0.573-6.29L346.136,373.998z" class="auDHUodP_36"></path>
<path fill="none" stroke="#231815" d="M355.64,382.584h-2.863l-1.022,4.848h-2.798l2.862-13.478h5.871
	c1.352,0,2.357,0.345,3.011,1.041c0.656,0.695,0.832,1.771,0.527,3.228c-0.342,1.59-0.984,2.715-1.929,3.375
	C358.354,382.256,357.134,382.584,355.64,382.584z M356.737,376.293h-2.626l-0.84,3.969h2.624c0.664,0,1.216-0.161,1.656-0.484
	c0.436-0.323,0.73-0.834,0.877-1.535c0.152-0.702,0.075-1.203-0.229-1.5C357.886,376.444,357.401,376.293,356.737,376.293z" class="auDHUodP_37"></path>
<path fill="none" stroke="#231815" d="M374.121,375.242c0.22,0.339,0.372,0.72,0.454,1.133c0.084,0.416,0.068,0.887-0.04,1.418
	c-0.142,0.641-0.438,1.27-0.892,1.89c-0.457,0.616-1.081,1.056-1.88,1.312c0.567,0.25,0.93,0.604,1.092,1.063
	c0.163,0.462,0.141,1.165-0.061,2.111l-0.192,0.904c-0.126,0.615-0.19,1.032-0.19,1.252c0,0.349,0.117,0.604,0.349,0.768
	l-0.067,0.339h-3.1c-0.023-0.297-0.035-0.541-0.035-0.723c0.005-0.377,0.049-0.764,0.128-1.162l0.246-1.252
	c0.174-0.857,0.136-1.432-0.104-1.719c-0.243-0.286-0.776-0.43-1.607-0.43h-2.904l-1.117,5.285h-2.755l2.862-13.478h6.613
	c0.94,0.018,1.642,0.134,2.104,0.345C373.488,374.513,373.855,374.827,374.121,375.242z M366.56,376.293l-0.769,3.62h3.192
	c0.634,0,1.125-0.071,1.472-0.22c0.614-0.254,1.006-0.762,1.169-1.517c0.173-0.817,0.016-1.364-0.467-1.646
	c-0.272-0.157-0.716-0.237-1.324-0.237H366.56z" class="auDHUodP_38"></path>
<path fill="none" stroke="#231815" d="M385.535,386.233c-1.237,1.051-2.82,1.573-4.749,1.573c-1.926,0-3.284-0.522-4.086-1.573
	c-1.089-1.286-1.377-3.138-0.859-5.562c0.524-2.468,1.602-4.321,3.229-5.56c1.237-1.047,2.82-1.571,4.747-1.571
	c1.925,0,3.288,0.524,4.088,1.571c1.098,1.238,1.385,3.092,0.858,5.56C388.243,383.096,387.166,384.947,385.535,386.233z
	 M385.947,380.672c0.315-1.508,0.234-2.678-0.243-3.506c-0.479-0.827-1.273-1.239-2.392-1.239c-1.116,0-2.093,0.412-2.933,1.234
	c-0.835,0.822-1.42,1.994-1.74,3.511c-0.325,1.521-0.242,2.69,0.247,3.513c0.485,0.823,1.289,1.235,2.404,1.235
	c1.119,0,2.088-0.412,2.922-1.235C385.046,383.362,385.621,382.193,385.947,380.672z" class="auDHUodP_39"></path>
<path fill="none" stroke="#231815" d="M392.202,382.319l-0.063,0.312c-0.195,1.04-0.239,1.776-0.124,2.198
	c0.112,0.424,0.505,0.638,1.174,0.638c0.666,0,1.155-0.231,1.464-0.697c0.191-0.272,0.351-0.735,0.493-1.389l2.007-9.427h2.812
	l-1.99,9.382c-0.248,1.145-0.64,2.055-1.18,2.724c-0.908,1.135-2.238,1.703-3.991,1.703c-1.747,0-2.822-0.461-3.226-1.38
	c-0.405-0.915-0.438-2.168-0.102-3.752l0.064-0.312H392.202z" class="auDHUodP_40"></path>
<path fill="none" stroke="#231815" d="M412.212,376.339h-7.134l-0.605,2.862h6.551l-0.505,2.342h-6.546l-0.732,3.465h7.463
	l-0.513,2.424h-10.216l2.863-13.478h9.886L412.212,376.339z" class="auDHUodP_41"></path>
<path fill="none" stroke="#231815" d="M416.252,375.358c1.335-1.107,2.852-1.663,4.547-1.663c2.267,0,3.769,0.742,4.496,2.231
	c0.405,0.835,0.536,1.673,0.396,2.516h-2.814c-0.045-0.646-0.176-1.133-0.393-1.465c-0.39-0.584-1.083-0.877-2.087-0.877
	c-1.025,0-1.922,0.413-2.69,1.24c-0.766,0.826-1.311,1.994-1.629,3.507c-0.321,1.514-0.25,2.645,0.213,3.396
	c0.464,0.754,1.177,1.131,2.14,1.131c0.988,0,1.812-0.325,2.47-0.97c0.358-0.349,0.705-0.87,1.042-1.562h2.791
	c-0.558,1.467-1.435,2.663-2.629,3.584c-1.2,0.921-2.582,1.38-4.151,1.38c-1.939,0-3.331-0.622-4.175-1.864
	c-0.846-1.251-1.032-2.964-0.569-5.141C413.706,378.451,414.722,376.635,416.252,375.358z" class="auDHUodP_42"></path>
<path fill="none" stroke="#231815" d="M438.566,373.954l-0.512,2.385h-4.034l-2.349,11.093h-2.835l2.348-11.093h-4.048l0.511-2.385
	H438.566z" class="auDHUodP_43"></path>
<path fill="none" stroke="#231815" d="M126.134,380.672L197.431,380.672" class="auDHUodP_44"></path>
<path fill="none" stroke="#231815" d="M449.57,380.672L520.866,380.672" class="auDHUodP_45"></path>
<style>.auDHUodP_0{stroke-dasharray:1910 1912;stroke-dashoffset:1911;animation:auDHUodP_draw_0 6200ms linear 0ms infinite,auDHUodP_fade 6200ms linear 0ms infinite;}.auDHUodP_1{stroke-dasharray:314 316;stroke-dashoffset:315;animation:auDHUodP_draw_1 6200ms linear 0ms infinite,auDHUodP_fade 6200ms linear 0ms infinite;}.auDHUodP_2{stroke-dasharray:99 101;stroke-dashoffset:100;animation:auDHUodP_draw_2 6200ms linear 0ms infinite,auDHUodP_fade 6200ms linear 0ms infinite;}.auDHUodP_3{stroke-dasharray:388 390;stroke-dashoffset:389;animation:auDHUodP_draw_3 6200ms linear 0ms infinite,auDHUodP_fade 6200ms linear 0ms infinite;}.auDHUodP_4{stroke-dasharray:1 3;stroke-dashoffset:2;animation:auDHUodP_draw_4 6200ms linear 0ms infinite,auDHUodP_fade 6200ms linear 0ms infinite;}.auDHUodP_5{stroke-dasharray:750 752;stroke-dashoffset:751;animation:auDHUodP_draw_5 6200ms linear 0ms infinite,auDHUodP_fade 6200ms linear 0ms infinite;}.auDHUodP_6{stroke-dasharray:262 264;stroke-dashoffset:263;animation:auDHUodP_draw_6 6200ms linear 0ms infinite,auDHUodP_fade 6200ms linear 0ms infinite;}.auDHUodP_7{stroke-dasharray:124 126;stroke-dashoffset:125;animation:auDHUodP_draw_7 6200ms linear 0ms infinite,auDHUodP_fade 6200ms linear 0ms infinite;}.auDHUodP_8{stroke-dasharray:164 166;stroke-dashoffset:165;animation:auDHUodP_draw_8 6200ms linear 0ms infinite,auDHUodP_fade 6200ms linear 0ms infinite;}.auDHUodP_9{stroke-dasharray:176 178;stroke-dashoffset:177;animation:auDHUodP_draw_9 6200ms linear 0ms infinite,auDHUodP_fade 6200ms linear 0ms infinite;}.auDHUodP_10{stroke-dasharray:156 158;stroke-dashoffset:157;animation:auDHUodP_draw_10 6200ms linear 0ms infinite,auDHUodP_fade 6200ms linear 0ms infinite;}.auDHUodP_11{stroke-dasharray:34 36;stroke-dashoffset:35;animation:auDHUodP_draw_11 6200ms linear 0ms infinite,auDHUodP_fade 6200ms linear 0ms infinite;}.auDHUodP_12{stroke-dasharray:180 182;stroke-dashoffset:181;animation:auDHUodP_draw_12 6200ms linear 0ms infinite,auDHUodP_fade 6200ms linear 0ms infinite;}.auDHUodP_13{stroke-dasharray:141 143;stroke-dashoffset:142;animation:auDHUodP_draw_13 6200ms linear 0ms infinite,auDHUodP_fade 6200ms linear 0ms infinite;}.auDHUodP_14{stroke-dasharray:199 201;stroke-dashoffset:200;animation:auDHUodP_draw_14 6200ms linear 0ms infinite,auDHUodP_fade 6200ms linear 0ms infinite;}.auDHUodP_15{stroke-dasharray:62 64;stroke-dashoffset:63;animation:auDHUodP_draw_15 6200ms linear 0ms infinite,auDHUodP_fade 6200ms linear 0ms infinite;}.auDHUodP_16{stroke-dasharray:40 42;stroke-dashoffset:41;animation:auDHUodP_draw_16 6200ms linear 0ms infinite,auDHUodP_fade 6200ms linear 0ms infinite;}.auDHUodP_17{stroke-dasharray:69 71;stroke-dashoffset:70;animation:auDHUodP_draw_17 6200ms linear 0ms infinite,auDHUodP_fade 6200ms linear 0ms infinite;}.auDHUodP_18{stroke-dasharray:194 196;stroke-dashoffset:195;animation:auDHUodP_draw_18 6200ms linear 0ms infinite,auDHUodP_fade 6200ms linear 0ms infinite;}.auDHUodP_19{stroke-dasharray:203 205;stroke-dashoffset:204;animation:auDHUodP_draw_19 6200ms linear 0ms infinite,auDHUodP_fade 6200ms linear 0ms infinite;}.auDHUodP_20{stroke-dasharray:231 233;stroke-dashoffset:232;animation:auDHUodP_draw_20 6200ms linear 0ms infinite,auDHUodP_fade 6200ms linear 0ms infinite;}.auDHUodP_21{stroke-dasharray:159 161;stroke-dashoffset:160;animation:auDHUodP_draw_21 6200ms linear 0ms infinite,auDHUodP_fade 6200ms linear 0ms infinite;}.auDHUodP_22{stroke-dasharray:164 166;stroke-dashoffset:165;animation:auDHUodP_draw_22 6200ms linear 0ms infinite,auDHUodP_fade 6200ms linear 0ms infinite;}.auDHUodP_23{stroke-dasharray:141 143;stroke-dashoffset:142;animation:auDHUodP_draw_23 6200ms linear 0ms infinite,auDHUodP_fade 6200ms linear 0ms infinite;}.auDHUodP_24{stroke-dasharray:106 108;stroke-dashoffset:107;animation:auDHUodP_draw_24 6200ms linear 0ms infinite,auDHUodP_fade 6200ms linear 0ms infinite;}.auDHUodP_25{stroke-dasharray:64 66;stroke-dashoffset:65;animation:auDHUodP_draw_25 6200ms linear 0ms infinite,auDHUodP_fade 6200ms linear 0ms infinite;}.auDHUodP_26{stroke-dasharray:50 52;stroke-dashoffset:51;animation:auDHUodP_draw_26 6200ms linear 0ms infinite,auDHUodP_fade 6200ms linear 0ms infinite;}.auDHUodP_27{stroke-dasharray:64 66;stroke-dashoffset:65;animation:auDHUodP_draw_27 6200ms linear 0ms infinite,auDHUodP_fade 6200ms linear 0ms infinite;}.auDHUodP_28{stroke-dasharray:76 78;stroke-dashoffset:77;animation:auDHUodP_draw_28 6200ms linear 0ms infinite,auDHUodP_fade 6200ms linear 0ms infinite;}.auDHUodP_29{stroke-dasharray:34 36;stroke-dashoffset:35;animation:auDHUodP_draw_29 6200ms linear 0ms infinite,auDHUodP_fade 6200ms linear 0ms infinite;}.auDHUodP_30{stroke-dasharray:15 17;stroke-dashoffset:16;animation:auDHUodP_draw_30 6200ms linear 0ms infinite,auDHUodP_fade 6200ms linear 0ms infinite;}.auDHUodP_31{stroke-dasharray:73 75;stroke-dashoffset:74;animation:auDHUodP_draw_31 6200ms linear 0ms infinite,auDHUodP_fade 6200ms linear 0ms infinite;}.auDHUodP_32{stroke-dasharray:64 66;stroke-dashoffset:65;animation:auDHUodP_draw_32 6200ms linear 0ms infinite,auDHUodP_fade 6200ms linear 0ms infinite;}.auDHUodP_33{stroke-dasharray:34 36;stroke-dashoffset:35;animation:auDHUodP_draw_33 6200ms linear 0ms infinite,auDHUodP_fade 6200ms linear 0ms infinite;}.auDHUodP_34{stroke-dasharray:72 74;stroke-dashoffset:73;animation:auDHUodP_draw_34 6200ms linear 0ms infinite,auDHUodP_fade 6200ms linear 0ms infinite;}.auDHUodP_35{stroke-dasharray:72 74;stroke-dashoffset:73;animation:auDHUodP_draw_35 6200ms linear 0ms infinite,auDHUodP_fade 6200ms linear 0ms infinite;}.auDHUodP_36{stroke-dasharray:36 38;stroke-dashoffset:37;animation:auDHUodP_draw_36 6200ms linear 0ms infinite,auDHUodP_fade 6200ms linear 0ms infinite;}.auDHUodP_37{stroke-dasharray:61 63;stroke-dashoffset:62;animation:auDHUodP_draw_37 6200ms linear 0ms infinite,auDHUodP_fade 6200ms linear 0ms infinite;}.auDHUodP_38{stroke-dasharray:76 78;stroke-dashoffset:77;animation:auDHUodP_draw_38 6200ms linear 0ms infinite,auDHUodP_fade 6200ms linear 0ms infinite;}.auDHUodP_39{stroke-dasharray:72 74;stroke-dashoffset:73;animation:auDHUodP_draw_39 6200ms linear 0ms infinite,auDHUodP_fade 6200ms linear 0ms infinite;}.auDHUodP_40{stroke-dasharray:48 50;stroke-dashoffset:49;animation:auDHUodP_draw_40 6200ms linear 0ms infinite,auDHUodP_fade 6200ms linear 0ms infinite;}.auDHUodP_41{stroke-dasharray:76 78;stroke-dashoffset:77;animation:auDHUodP_draw_41 6200ms linear 0ms infinite,auDHUodP_fade 6200ms linear 0ms infinite;}.auDHUodP_42{stroke-dasharray:66 68;stroke-dashoffset:67;animation:auDHUodP_draw_42 6200ms linear 0ms infinite,auDHUodP_fade 6200ms linear 0ms infinite;}.auDHUodP_43{stroke-dasharray:50 52;stroke-dashoffset:51;animation:auDHUodP_draw_43 6200ms linear 0ms infinite,auDHUodP_fade 6200ms linear 0ms infinite;}.auDHUodP_44{stroke-dasharray:72 74;stroke-dashoffset:73;animation:auDHUodP_draw_44 6200ms linear 0ms infinite,auDHUodP_fade 6200ms linear 0ms infinite;}.auDHUodP_45{stroke-dasharray:72 74;stroke-dashoffset:73;animation:auDHUodP_draw_45 6200ms linear 0ms infinite,auDHUodP_fade 6200ms linear 0ms infinite;}@keyframes auDHUodP_draw{100%{stroke-dashoffset:0;}}@keyframes auDHUodP_fade{0%{stroke-opacity:1;}93.54838709677419%{stroke-opacity:1;}100%{stroke-opacity:0;}}@keyframes auDHUodP_draw_0{12.903225806451612%{stroke-dashoffset: 1911}34.40860215053764%{ stroke-dashoffset: 0;}100%{ stroke-dashoffset: 0;}}@keyframes auDHUodP_draw_1{13.142174432497011%{stroke-dashoffset: 315}34.64755077658304%{ stroke-dashoffset: 0;}100%{ stroke-dashoffset: 0;}}@keyframes auDHUodP_draw_2{13.381123058542412%{stroke-dashoffset: 100}34.88649940262844%{ stroke-dashoffset: 0;}100%{ stroke-dashoffset: 0;}}@keyframes auDHUodP_draw_3{13.620071684587815%{stroke-dashoffset: 389}35.12544802867383%{ stroke-dashoffset: 0;}100%{ stroke-dashoffset: 0;}}@keyframes auDHUodP_draw_4{13.859020310633213%{stroke-dashoffset: 2}35.364396654719236%{ stroke-dashoffset: 0;}100%{ stroke-dashoffset: 0;}}@keyframes auDHUodP_draw_5{14.097968936678612%{stroke-dashoffset: 751}35.603345280764636%{ stroke-dashoffset: 0;}100%{ stroke-dashoffset: 0;}}@keyframes auDHUodP_draw_6{14.336917562724013%{stroke-dashoffset: 263}35.84229390681004%{ stroke-dashoffset: 0;}100%{ stroke-dashoffset: 0;}}@keyframes auDHUodP_draw_7{14.575866188769416%{stroke-dashoffset: 125}36.08124253285544%{ stroke-dashoffset: 0;}100%{ stroke-dashoffset: 0;}}@keyframes auDHUodP_draw_8{14.814814814814813%{stroke-dashoffset: 165}36.32019115890085%{ stroke-dashoffset: 0;}100%{ stroke-dashoffset: 0;}}@keyframes auDHUodP_draw_9{15.053763440860212%{stroke-dashoffset: 177}36.55913978494624%{ stroke-dashoffset: 0;}100%{ stroke-dashoffset: 0;}}@keyframes auDHUodP_draw_10{15.292712066905615%{stroke-dashoffset: 157}36.79808841099164%{ stroke-dashoffset: 0;}100%{ stroke-dashoffset: 0;}}@keyframes auDHUodP_draw_11{15.531660692951016%{stroke-dashoffset: 35}37.03703703703704%{ stroke-dashoffset: 0;}100%{ stroke-dashoffset: 0;}}@keyframes auDHUodP_draw_12{15.770609318996417%{stroke-dashoffset: 181}37.27598566308244%{ stroke-dashoffset: 0;}100%{ stroke-dashoffset: 0;}}@keyframes auDHUodP_draw_13{16.009557945041816%{stroke-dashoffset: 142}37.51493428912784%{ stroke-dashoffset: 0;}100%{ stroke-dashoffset: 0;}}@keyframes auDHUodP_draw_14{16.248506571087216%{stroke-dashoffset: 200}37.75388291517324%{ stroke-dashoffset: 0;}100%{ stroke-dashoffset: 0;}}@keyframes auDHUodP_draw_15{16.48745519713262%{stroke-dashoffset: 63}37.99283154121864%{ stroke-dashoffset: 0;}100%{ stroke-dashoffset: 0;}}@keyframes auDHUodP_draw_16{16.726403823178014%{stroke-dashoffset: 41}38.23178016726404%{ stroke-dashoffset: 0;}100%{ stroke-dashoffset: 0;}}@keyframes auDHUodP_draw_17{16.965352449223413%{stroke-dashoffset: 70}38.47072879330944%{ stroke-dashoffset: 0;}100%{ stroke-dashoffset: 0;}}@keyframes auDHUodP_draw_18{17.204301075268816%{stroke-dashoffset: 195}38.70967741935484%{ stroke-dashoffset: 0;}100%{ stroke-dashoffset: 0;}}@keyframes auDHUodP_draw_19{17.44324970131422%{stroke-dashoffset: 204}38.94862604540024%{ stroke-dashoffset: 0;}100%{ stroke-dashoffset: 0;}}@keyframes auDHUodP_draw_20{17.682198327359618%{stroke-dashoffset: 232}39.18757467144564%{ stroke-dashoffset: 0;}100%{ stroke-dashoffset: 0;}}@keyframes auDHUodP_draw_21{17.921146953405017%{stroke-dashoffset: 160}39.42652329749104%{ stroke-dashoffset: 0;}100%{ stroke-dashoffset: 0;}}@keyframes auDHUodP_draw_22{18.160095579450417%{stroke-dashoffset: 165}39.66547192353644%{ stroke-dashoffset: 0;}100%{ stroke-dashoffset: 0;}}@keyframes auDHUodP_draw_23{18.39904420549582%{stroke-dashoffset: 142}39.904420549581836%{ stroke-dashoffset: 0;}100%{ stroke-dashoffset: 0;}}@keyframes auDHUodP_draw_24{18.63799283154122%{stroke-dashoffset: 107}40.14336917562724%{ stroke-dashoffset: 0;}100%{ stroke-dashoffset: 0;}}@keyframes auDHUodP_draw_25{18.87694145758662%{stroke-dashoffset: 65}40.38231780167265%{ stroke-dashoffset: 0;}100%{ stroke-dashoffset: 0;}}@keyframes auDHUodP_draw_26{19.11589008363202%{stroke-dashoffset: 51}40.62126642771805%{ stroke-dashoffset: 0;}100%{ stroke-dashoffset: 0;}}@keyframes auDHUodP_draw_27{19.35483870967742%{stroke-dashoffset: 65}40.86021505376344%{ stroke-dashoffset: 0;}100%{ stroke-dashoffset: 0;}}@keyframes auDHUodP_draw_28{19.59378733572282%{stroke-dashoffset: 77}41.09916367980884%{ stroke-dashoffset: 0;}100%{ stroke-dashoffset: 0;}}@keyframes auDHUodP_draw_29{19.83273596176822%{stroke-dashoffset: 35}41.33811230585424%{ stroke-dashoffset: 0;}100%{ stroke-dashoffset: 0;}}@keyframes auDHUodP_draw_30{20.071684587813618%{stroke-dashoffset: 16}41.57706093189964%{ stroke-dashoffset: 0;}100%{ stroke-dashoffset: 0;}}@keyframes auDHUodP_draw_31{20.310633213859017%{stroke-dashoffset: 74}41.816009557945044%{ stroke-dashoffset: 0;}100%{ stroke-dashoffset: 0;}}@keyframes auDHUodP_draw_32{20.54958183990442%{stroke-dashoffset: 65}42.05495818399044%{ stroke-dashoffset: 0;}100%{ stroke-dashoffset: 0;}}@keyframes auDHUodP_draw_33{20.78853046594982%{stroke-dashoffset: 35}42.29390681003585%{ stroke-dashoffset: 0;}100%{ stroke-dashoffset: 0;}}@keyframes auDHUodP_draw_34{21.02747909199522%{stroke-dashoffset: 73}42.53285543608125%{ stroke-dashoffset: 0;}100%{ stroke-dashoffset: 0;}}@keyframes auDHUodP_draw_35{21.26642771804062%{stroke-dashoffset: 73}42.77180406212665%{ stroke-dashoffset: 0;}100%{ stroke-dashoffset: 0;}}@keyframes auDHUodP_draw_36{21.50537634408602%{stroke-dashoffset: 37}43.01075268817205%{ stroke-dashoffset: 0;}100%{ stroke-dashoffset: 0;}}@keyframes auDHUodP_draw_37{21.74432497013142%{stroke-dashoffset: 62}43.24970131421745%{ stroke-dashoffset: 0;}100%{ stroke-dashoffset: 0;}}@keyframes auDHUodP_draw_38{21.983273596176822%{stroke-dashoffset: 77}43.488649940262846%{ stroke-dashoffset: 0;}100%{ stroke-dashoffset: 0;}}@keyframes auDHUodP_draw_39{22.222222222222225%{stroke-dashoffset: 73}43.727598566308245%{ stroke-dashoffset: 0;}100%{ stroke-dashoffset: 0;}}@keyframes auDHUodP_draw_40{22.461170848267624%{stroke-dashoffset: 49}43.966547192353644%{ stroke-dashoffset: 0;}100%{ stroke-dashoffset: 0;}}@keyframes auDHUodP_draw_41{22.70011947431302%{stroke-dashoffset: 77}44.20549581839905%{ stroke-dashoffset: 0;}100%{ stroke-dashoffset: 0;}}@keyframes auDHUodP_draw_42{22.939068100358423%{stroke-dashoffset: 67}44.44444444444445%{ stroke-dashoffset: 0;}100%{ stroke-dashoffset: 0;}}@keyframes auDHUodP_draw_43{23.178016726403822%{stroke-dashoffset: 51}44.68339307048985%{ stroke-dashoffset: 0;}100%{ stroke-dashoffset: 0;}}@keyframes auDHUodP_draw_44{23.41696535244922%{stroke-dashoffset: 73}44.92234169653525%{ stroke-dashoffset: 0;}100%{ stroke-dashoffset: 0;}}@keyframes auDHUodP_draw_45{23.65591397849462%{stroke-dashoffset: 73}45.16129032258064%{ stroke-dashoffset: 0;}100%{ stroke-dashoffset: 0;}}</style></svg>
