<!--?xml version="1.0" encoding="utf-8"?-->
<!-- Generator: Adobe Illustrator 14.0.0, SVG Export Plug-In . SVG Version: 6.00 Build 43363)  -->

<svg version="1.1" id="レイヤー_1" xmlns="http://www.w3.org/2000/svg" xmlns:xlink="http://www.w3.org/1999/xlink" x="0px" y="0px" width="647px" height="400px" viewBox="0 0 647 400" enable-background="new 0 0 647 400" xml:space="preserve" style="">
<path fill="none" stroke="#231815" d="M245.325,295.973c4.01,2.475,8.146,4.764,12.4,6.854h131.546
	c4.252-2.09,8.39-4.379,12.402-6.854H245.325z" class="WPZAqRgk_0"></path>
<path fill="none" stroke="#231815" d="M217.501,273.867c2.344,2.367,4.767,4.65,7.263,6.854h197.472
	c2.497-2.203,4.92-4.486,7.263-6.854H217.501z" class="WPZAqRgk_1"></path>
<path fill="none" stroke="#231815" d="M229.729,284.923c2.964,2.396,6.022,4.68,9.161,6.851H408.11
	c3.145-2.171,6.199-4.455,9.161-6.851H229.729z" class="WPZAqRgk_2"></path>
<path fill="none" stroke="#231815" d="M358.751,313.882c7.281-1.769,14.356-4.065,21.179-6.856H267.066
	c6.82,2.791,13.899,5.088,21.181,6.856H358.751z" class="WPZAqRgk_3"></path>
<path fill="none" stroke="#231815" d="M250.353,105.25c-3.233,0.233-5.688,2.682-5.477,5.434c0.569,7.299,0.857,10.946,1.422,18.242
	c4.586-0.358,6.881-0.521,11.464-0.824c-0.481-7.301-0.725-10.953-1.209-18.26C256.37,107.09,253.584,105.018,250.353,105.25z" class="WPZAqRgk_4"></path>
<path fill="none" stroke="#231815" d="M253.361,190.436c-2.958,0.225-5.185,2.668-4.959,5.416c0.59,7.299,0.889,10.948,1.482,18.244
	c4.186-0.343,6.278-0.5,10.467-0.793c-0.512-7.303-0.764-10.95-1.273-18.252C258.887,192.296,256.32,190.217,253.361,190.436z" class="WPZAqRgk_5"></path>
<path fill="none" stroke="#231815" d="M321.596,187.823c-2.965,0.002-5.36,2.271-5.343,5.031
	c0.123,17.465,0.191,26.197,0.314,43.659c0.019,2.757,2.31,4.887,5.099,4.884c2.794-0.002,5.085-2.134,5.102-4.895
	c0.077-17.465,0.114-26.199,0.193-43.664C326.971,190.078,324.564,187.817,321.596,187.823z" class="WPZAqRgk_6"></path>
<path fill="none" stroke="#231815" d="M253.017,185.85c-5.729,0.435-9.979,5.125-9.518,10.415c0.79,9.13,1.188,13.695,1.979,22.819
	c3.994-0.348,5.99-0.513,9.985-0.815c-0.029-0.447-0.051-0.67-0.081-1.117c-3.532,0.265-5.301,0.414-8.827,0.712
	c-0.742-8.677-1.114-13.023-1.857-21.7c-0.402-4.686,3.344-8.806,8.402-9.188c5.06-0.379,9.382,3.126,9.685,7.819
	c0.351,5.308,0.523,7.958,0.874,13.264c0.471-0.029,0.712-0.042,1.18-0.074c-0.337-5.311-0.51-7.96-0.851-13.266
	C263.647,189.413,258.743,185.418,253.017,185.85z" class="WPZAqRgk_7"></path>
<path fill="none" stroke="#231815" d="M321.588,183.219c-5.734,0.005-10.313,4.369-10.245,9.684
	c0.109,8.956,0.171,13.434,0.28,22.388c0.471-0.002,0.704-0.01,1.172-0.015c-0.102-8.955-0.149-13.434-0.249-22.392
	c-0.052-4.704,3.982-8.539,9.05-8.544c5.072-0.003,9.127,3.819,9.088,8.521c-0.051,5.315-0.07,7.976-0.118,13.295
	c0.477,0.002,0.712,0.005,1.186,0.011c0.05-5.316,0.081-7.977,0.134-13.295C331.937,187.556,327.332,183.21,321.588,183.219z" class="WPZAqRgk_8"></path>
<path fill="none" stroke="#231815" d="M392.268,190.436c-2.956-0.219-5.525,1.86-5.717,4.615
	c-0.512,7.302-0.766,10.949-1.273,18.252c4.186,0.293,6.283,0.448,10.463,0.788c0.594-7.294,0.896-10.94,1.487-18.239
	C397.457,193.104,395.223,190.661,392.268,190.436z" class="WPZAqRgk_9"></path>
<path fill="none" stroke="#231815" d="M376.445,130.888c-3.872-0.212-5.807-0.306-9.681-0.479
	c0.514-11.474,0.766-17.213,1.283-28.695c3.988,0.18,5.982,0.28,9.967,0.5c5.52,0.301,9.722,4.369,9.418,9.062
	c-0.305,4.693-0.456,7.037-0.758,11.73c0.518,0.032,0.773,0.05,1.291,0.084c0.31-4.688,0.466-7.037,0.775-11.73
	c0.351-5.305-4.411-10.035-10.658-10.375c-4.521-0.246-6.781-0.355-11.299-0.555c-0.542,12.421-0.812,18.626-1.352,31.039
	c4.378,0.191,6.571,0.301,10.949,0.542C376.411,131.562,376.424,131.337,376.445,130.888z" class="WPZAqRgk_10"></path>
<path fill="none" stroke="#231815" d="M252.362,133.083c-0.031-0.45-0.05-0.669-0.083-1.122c-3.867,0.28-5.801,0.429-9.67,0.746
	c-0.711-8.675-1.064-13.018-1.779-21.695c-0.387-4.688,3.75-8.824,9.275-9.222c5.521-0.402,10.205,3.103,10.494,7.796
	c0.333,5.306,0.5,7.958,0.83,13.263c0.518-0.037,0.776-0.049,1.297-0.079c-0.324-5.305-0.486-7.963-0.811-13.269
	c-0.324-5.305-5.64-9.292-11.892-8.842c-6.253,0.45-10.946,5.164-10.507,10.459c0.765,9.127,1.143,13.69,1.904,22.812
	C245.796,133.569,247.986,133.396,252.362,133.083z" class="WPZAqRgk_11"></path>
<path fill="none" stroke="#231815" d="M416.878,102.423c-6.247-0.586-11.646,3.291-12.08,8.588
	c-0.748,9.127-1.125,13.689-1.873,22.814c4.372,0.361,6.561,0.549,10.933,0.958c0.042-0.445,0.06-0.672,0.098-1.119
	c-3.857-0.358-5.793-0.529-9.659-0.854c0.729-8.675,1.088-13.012,1.81-21.692c0.394-4.688,5.149-8.091,10.669-7.576
	c5.515,0.513,9.563,4.745,9.081,9.423c-0.548,5.29-0.823,7.929-1.365,13.211c0.516,0.058,0.775,0.084,1.294,0.139
	c0.554-5.287,0.829-7.924,1.381-13.214C427.719,107.814,423.123,103.003,416.878,102.423z" class="WPZAqRgk_12"></path>
<path fill="none" stroke="#231815" d="M392.618,185.85c-5.724-0.432-10.631,3.563-10.973,8.869
	c-0.588,9.141-0.884,13.714-1.47,22.856c3.998,0.254,5.995,0.395,9.987,0.693c0.038-0.447,0.056-0.67,0.088-1.117
	c-3.532-0.267-5.302-0.392-8.832-0.625c0.568-8.692,0.859-13.041,1.43-21.734c0.308-4.691,4.624-8.202,9.684-7.817
	c5.055,0.377,8.802,4.502,8.401,9.19c-0.451,5.295-0.68,7.943-1.134,13.243c0.473,0.039,0.708,0.058,1.178,0.1
	c0.462-5.296,0.691-7.945,1.151-13.243C402.589,190.975,398.341,186.285,392.618,185.85z" class="WPZAqRgk_13"></path>
<path fill="none" stroke="#231815" d="M416.454,107.006c-3.229-0.301-6.059,1.711-6.301,4.46
	c-0.636,7.291-0.955,10.938-1.594,18.226c4.578,0.403,6.867,0.612,11.447,1.07c0.724-7.28,1.081-10.927,1.805-18.21
	C422.084,109.805,419.683,107.307,416.454,107.006z" class="WPZAqRgk_14"></path>
<path fill="none" stroke="#231815" d="M377.827,105.677c-2.345-0.125-3.517-0.185-5.861-0.303
	c-0.428,8.701-0.64,13.054-1.065,21.752c2.297,0.109,3.442,0.167,5.733,0.291c3.16,0.175,5.873-1.905,6.043-4.659
	c0.281-4.691,0.424-7.043,0.711-11.741C383.556,108.264,381.058,105.855,377.827,105.677z" class="WPZAqRgk_15"></path>
<path fill="none" stroke="#231815" d="M434.666,268.36c23.636-26.392,38.018-61.246,38.018-99.462
	c0-82.371-66.792-149.158-149.197-149.158c-82.384,0-149.171,66.787-149.171,149.158c0,38.216,14.382,73.07,38.014,99.462h-71.958
	v3.1h366.258v-3.1H434.666z M279.25,182.196c1.501-0.068,2.255-0.107,3.756-0.173c0.843,19.582,1.683,39.161,2.521,58.736
	c6.422-0.274,9.629-0.377,16.051-0.537c0.081,3.229,0.118,4.852,0.196,8.082c-9.605,0.232-14.403,0.412-23.999,0.918
	c-1.164-22.257-2.328-44.52-3.495-66.78c1.501-0.075,2.255-0.112,3.756-0.186c0.66,13.603,0.984,20.405,1.639,34.012
	c0.471-0.023,0.706-0.042,1.172-0.062C280.208,202.604,279.888,195.799,279.25,182.196z M355.925,216.344
	c0.014-0.448,0.026-0.676,0.042-1.123c-3.536-0.131-5.308-0.188-8.845-0.285c0.364-13.365,0.547-20.05,0.908-33.415
	c1.504,0.034,2.255,0.058,3.757,0.104c-0.372,11.976-0.56,17.964-0.932,29.941c4.196,0.131,6.289,0.211,10.484,0.393
	c0.513-11.972,0.763-17.962,1.274-29.936c1.505,0.065,2.263,0.104,3.762,0.173c-0.468,9.969-0.703,14.956-1.169,24.923
	c0.474,0.021,0.712,0.031,1.182,0.058c0.481-9.97,0.724-14.954,1.209-24.921c1.497,0.073,2.249,0.107,3.756,0.186
	c-1.171,22.261-2.332,44.523-3.494,66.785c-3.244-0.173-4.865-0.254-8.104-0.393c0.492-11.484,0.735-17.221,1.229-28.7
	c-4.158-0.183-6.236-0.264-10.391-0.387c-0.355,11.484-0.536,17.226-0.895,28.718c-3.238-0.106-4.86-0.146-8.104-0.217
	c0.487-22.283,0.973-44.566,1.455-66.853c1.501,0.034,2.26,0.049,3.762,0.086c-0.355,13.823-0.534,20.729-0.893,34.545
	C349.919,216.132,351.923,216.199,355.925,216.344z M440.387,102.841c1.638,0.188,2.453,0.285,4.086,0.481
	c-1.633,13.522-2.448,20.274-4.082,33.786c0.508,0.062,0.762,0.091,1.271,0.154c1.653-13.512,2.475-20.258,4.126-33.778
	c1.636,0.199,2.457,0.301,4.088,0.507c-2.792,22.105-5.585,44.211-8.378,66.322c-3.544-0.447-5.319-0.662-8.867-1.078
	C435.215,147.102,437.802,124.973,440.387,102.841z M400.748,110.684c0.565-7.239,7.896-12.523,16.452-11.723
	c8.558,0.798,14.789,7.354,14.003,14.572c-1.995,18.283-3.986,36.574-5.975,54.868c-3.547-0.384-5.32-0.567-8.872-0.923
	c1.138-11.432,1.701-17.15,2.835-28.583c-4.536-0.456-6.808-0.665-11.349-1.062c-1,11.447-1.5,17.171-2.501,28.614
	c-3.555-0.309-5.332-0.46-8.886-0.735C397.892,147.366,399.314,129.025,400.748,110.684z M405.833,196.597
	c-1.671,18.329-3.342,36.659-5.001,54.99c-3.232-0.296-4.85-0.44-8.086-0.702c0.934-11.455,1.396-17.182,2.33-28.632
	c-4.147-0.343-6.219-0.497-10.366-0.788c-0.804,11.464-1.204,17.198-2.002,28.661c-3.234-0.225-4.85-0.329-8.092-0.522
	c1.109-18.372,2.221-36.745,3.322-55.118c0.438-7.244,7.087-12.693,14.936-12.102C400.722,182.978,406.487,189.369,405.833,196.597z
	 M362.832,96.788c6.179,0.246,9.271,0.39,15.438,0.73c8.566,0.468,15.022,6.877,14.518,14.119c-0.332,4.69-0.494,7.037-0.824,11.725
	c-0.304,4.384-2.914,7.984-6.791,10.093c1.622,12.68,2.399,19.026,3.866,31.708c-3.558-0.246-5.347-0.363-8.905-0.583
	c-1.465-11.597-2.235-17.394-3.826-28.991c-0.05-0.002-0.076-0.005-0.124-0.007c-2.271-0.123-3.41-0.181-5.686-0.296
	c-0.56,11.479-0.839,17.221-1.399,28.695c-3.562-0.17-5.341-0.254-8.903-0.395C361.073,141.318,361.952,119.055,362.832,96.788z
	 M323.952,95.998c1.646,0,2.467,0.005,4.11,0.016c-0.071,13.616-0.102,20.425-0.176,34.035c0.516,0.005,0.774,0.005,1.289,0.007
	c0.092-13.611,0.134-20.418,0.22-34.037c1.646,0.014,2.462,0.019,4.108,0.037c-0.194,18.432-0.396,36.862-0.584,55.292
	c-0.031,2.763,2.446,4.935,5.515,4.981c3.063,0.052,5.609-2.036,5.671-4.795c0.414-18.43,0.817-36.852,1.235-55.284
	c1.638,0.034,2.459,0.052,4.097,0.097c-0.259,9.978-0.39,14.963-0.649,24.938c0.519,0.016,0.775,0.021,1.288,0.034
	c0.279-9.97,0.413-14.961,0.69-24.934c1.644,0.042,2.467,0.068,4.105,0.121c-0.587,18.427-1.165,36.849-1.752,55.271
	c-0.227,7.152-6.821,12.865-14.816,12.735c-7.999-0.131-14.422-6.059-14.411-13.214C323.907,132.863,323.927,114.436,323.952,95.998
	z M335.594,192.917c-0.241,17.465-0.363,26.197-0.606,43.66c-0.1,7.154-6.023,12.99-13.311,12.998
	c-7.271,0.011-13.206-5.812-13.32-12.962c-0.294-17.462-0.438-26.194-0.729-43.657c-0.119-7.257,6.102-13.203,13.96-13.211
	C329.462,179.734,335.698,185.659,335.594,192.917z M310.856,121.015c0.515-0.008,0.78-0.008,1.298-0.014
	c-0.105-9.975-0.162-14.963-0.27-24.946c1.64-0.016,2.465-0.023,4.104-0.037c0.146,22.289,0.303,44.562,0.45,66.85
	c-3.563,0.027-5.343,0.048-8.905,0.105c-0.262-15.61-0.508-31.209-0.759-46.806c-2.652,5.844-3.955,8.774-6.524,14.634
	c-1.685,0.04-2.523,0.06-4.201,0.107c5.624-12.787,8.534-19.162,14.542-31.871C310.7,107.827,310.752,112.222,310.856,121.015z
	 M282.794,96.788c5.12,9.622,7.619,14.443,12.514,24.125c4.337-9.941,6.57-14.893,11.144-24.784
	c1.593-0.026,2.389-0.031,3.987-0.052c-6.17,13.122-9.151,19.704-14.909,32.907c-6.485-12.862-9.833-19.27-16.719-32.028
	C280.4,96.882,281.201,96.851,282.794,96.788z M277.364,97.016c0.608,13.606,0.917,20.407,1.53,34.003
	c0.513-0.024,0.769-0.031,1.281-0.055c-0.539-12.411-0.815-18.626-1.355-31.042c6.708,12.354,9.967,18.561,16.296,31.013
	c-1.68,0.05-2.515,0.076-4.199,0.131c-2.891-5.716-4.358-8.567-7.332-14.26c0.614,15.591,1.227,31.183,1.849,46.78
	c-3.562,0.141-5.342,0.225-8.904,0.395c-1.089-22.26-2.179-44.507-3.271-66.771C274.902,97.128,275.724,97.088,277.364,97.016z
	 M262.915,250.126c-0.795-11.465-1.197-17.197-1.998-28.658c-4.149,0.288-6.221,0.442-10.37,0.785
	c0.932,11.45,1.399,17.177,2.334,28.632c-3.236,0.262-4.854,0.406-8.089,0.702c-1.665-18.331-3.328-36.661-5-54.99
	c-0.656-7.228,5.114-13.617,12.963-14.211c7.845-0.591,14.503,4.856,14.938,12.1c1.104,18.373,2.208,36.746,3.316,55.118
	C267.771,249.797,266.154,249.898,262.915,250.126z M249.772,97.196c8.569-0.617,15.782,4.819,16.196,12.068
	c1.048,18.367,2.085,36.737,3.131,55.109c-3.558,0.202-5.337,0.312-8.895,0.547c-0.762-11.463-1.139-17.198-1.899-28.664
	c-4.55,0.303-6.825,0.465-11.369,0.821c0.895,11.456,1.34,17.182,2.234,28.638c-3.558,0.277-5.332,0.424-8.884,0.732
	c-1.602-18.328-3.203-36.655-4.814-54.984C234.841,104.233,241.205,97.816,249.772,97.196z M202.684,158.856
	c-0.37-2.92-0.555-4.39-0.92-7.31c3.61-0.452,5.42-0.672,9.035-1.094c0.34,2.925,0.51,4.39,0.853,7.314
	c0.322,2.739,3.056,4.576,6.106,4.238c3.051-0.34,5.321-2.734,5.027-5.478c-0.638-6.143-0.966-9.213-1.611-15.354
	c-0.104-1.015-1.104-1.63-2.143-1.52c-2.964,0.319-4.444,0.484-7.402,0.824c-6.131,0.704-11.661-3.126-12.341-8.5
	c-0.831-6.572-1.245-9.857-2.076-16.426c-0.911-7.205,5.21-13.862,13.755-14.805c8.549-0.949,15.968,4.207,16.658,11.432
	c0.283,2.936,0.419,4.4,0.701,7.328c-1.605,0.154-2.406,0.238-4.013,0.395c-0.291-2.924-0.437-4.395-0.732-7.327
	c-0.524-5.287-5.991-9.065-12.23-8.374c-6.239,0.69-10.749,5.572-10.104,10.851c0.806,6.574,1.207,9.857,2.008,16.434
	c0.434,3.547,4.022,5.886,7.965,5.431c1.486-0.167,2.227-0.251,3.712-0.416c-0.047-0.447-0.072-0.672-0.119-1.117
	c-1.486,0.162-2.234,0.248-3.721,0.418c-3.255,0.372-6.208-1.638-6.556-4.479c-0.793-6.571-1.188-9.86-1.983-16.434
	c-0.562-4.672,3.409-8.963,8.921-9.575c5.515-0.612,10.328,2.713,10.799,7.393c0.299,2.93,0.444,4.395,0.743,7.325
	c-1.605,0.159-2.411,0.243-4.016,0.408c-0.306-2.925-0.458-4.39-0.769-7.319c-0.286-2.742-3.15-4.709-6.376-4.353
	c-3.22,0.358-5.585,2.903-5.266,5.645c0.769,6.577,1.153,9.868,1.922,16.439c0.105,0.913,1.131,1.622,2.183,1.501
	c2.985-0.345,4.479-0.502,7.463-0.824c6.186-0.662,11.624,3.233,12.149,8.725c0.586,6.147,0.879,9.227,1.465,15.374
	c0.68,7.124-5.153,13.625-13.111,14.506C210.705,171.018,203.581,165.95,202.684,158.856z" class="WPZAqRgk_16"></path>
<path fill="none" stroke="#231815" d="M183.446,355.139c0.779,0.988,0.884,1.713,0.466,2.025c-0.309,0.264-0.83,0.157-1.351,0.055
	c-0.983-0.259-2.13-0.414-4.466-0.521c-1.713-0.103-3.583-0.103-5.766-0.157c-0.053,0.832,0,1.666-0.053,2.391
	c0,2.65-0.206,4.777-0.934,7.221c-0.675,2.441-1.507,4.361-2.961,6.493c-1.507,2.129-3.427,3.896-5.402,5.091
	c-1.871,1.193-3.325,1.92-5.088,2.49c-0.675,0.207-0.885-0.622-0.262-0.882c0.622-0.206,1.402-0.675,2.909-1.454
	c2.545-1.402,4.363-3.015,6.077-6.179c1.608-3.069,2.44-7.169,2.649-10.441c0.105-1.61,0.209-3.22,0.31-4.729
	c-2.907,0-4.984,0.107-7.168,0.311c-0.155,0-0.257,0-0.414,0.056c0,0.57,0,1.036,0,1.402c0,1.3,0.105,3.429,0.105,4.209
	c0.052,1.557,0.569,4.1-1.402,4.1c-1.976-0.05-1.611-2.805-1.508-4.05c0.053-1.091,0.053-3.324,0.105-5.35
	c-0.988,0.103-1.923,0.259-3.014,0.366c-2.182,0.257-4.207,0.358-6.077,0.257c-1.818-0.053-2.807-0.725-3.43-1.301
	c-0.57-0.518-1.091-1.402-0.519-1.97c0.779-0.729,2.339,0.05,3.584,0.414c1.248,0.311,2.339,0.362,5.196,0.311
	c1.608-0.052,2.961-0.157,4.259-0.207c0-0.261,0-0.572,0-0.832c0.052-2.492-0.053-4.259-0.262-5.192
	c-0.209-0.935-0.78-1.612-1.455-1.975c-0.674-0.416-0.934-0.983-0.622-1.405c0.416-0.568,1.297-0.515,2.286-0.103
	c0.935,0.367,1.766,0.937,2.182,1.924c0.36,0.881,0.309,2.077,0.36,4c0.054,0.934,0.105,2.23,0.158,3.531
	c0.157,0,0.413-0.052,0.622-0.052c1.821-0.054,4.676-0.207,7.116-0.312c0.052-0.779,0.104-1.506,0.156-2.233
	c0.104-2.491-0.104-4.31-0.361-5.818c-0.209-1.451-0.781-1.973-1.558-2.493c-0.576-0.414-1.042-0.986-0.678-1.347
	c0.52-0.573,1.454-0.263,2.079,0c1.141,0.465,2.13,1.347,3.011,2.699c0.78,1.141,0.364,3.012,0.259,5.245
	c-0.052,1.039-0.156,2.441-0.209,3.846c1.769,0,3.066-0.105,4.262-0.314c1.353-0.208,2.179-0.415,3.584-0.468
	C181.628,353.789,182.613,354.152,183.446,355.139z" class="WPZAqRgk_17"></path>
<path fill="none" stroke="#231815" d="M232.638,369.166c1.506,2.441,2.391,5.658,0.365,6.281c-2.181,0.626-3.272-1.606-4.311-4.672
	c-0.104-0.364-0.262-0.73-0.416-1.089c-1.713,0.413-6.182,1.505-8.259,2.025c-2.286,0.566-7.843,1.867-9.504,2.179
	c-1.714,0.312-2.702,0.675-4.053,2.132c-0.569,0.568-1.401,0.983-2.024,0.983c-0.674,0-1.973-0.415-3.118-1.35
	c-1.141-0.934-1.504-2.336-1.402-3.116c0.157-0.828,1.042-0.727,2.234-0.828c1.144-0.104,1.817-1.146,3.118-3.431
	c1.351-2.336,2.438-4.416,4.311-7.636c1.868-3.324,3.945-7.116,4.568-8.881c0.675-1.767-0.105-3.272-0.57-4.05
	c-0.465-0.73-0.938-1.455-0.465-1.766c0.831-0.575,1.972-0.312,3.374,0.672c0.937,0.729,1.56,1.56,1.716,3.272
	c0.154,1.091-0.523,2.13-1.457,3.377c-0.83,1.246-3.738,6.028-5.298,8.571c-1.454,2.336-4.881,8.258-5.192,8.828
	c-0.312,0.573-0.104,0.78,0.364,0.78c0.465-0.05,1.713-0.155,3.583-0.518c2.025-0.469,6.854-1.199,9.246-1.612
	c2.129-0.413,5.297-1.039,7.997-1.454c-0.882-1.56-1.818-2.755-2.959-3.846c-0.676-0.623-1.146-1.19-0.833-1.502
	c0.364-0.418,1.039-0.157,2.336,0.622C229.106,365.111,231.34,367.139,232.638,369.166z" class="WPZAqRgk_18"></path>
<path fill="none" stroke="#231815" d="M256.229,379.031c-0.678,0.212-1.146,0.055-1.249-0.207c-0.052-0.207,0.155-0.466,0.882-0.728
	c0.675-0.206,1.664-0.623,3.014-1.297c1.973-0.934,4.312-2.336,6.65-4.103c2.595-1.975,4.829-4.104,7.062-7.22
	c2.234-3.066,3.375-5.868,4.519-9.351c0.469-1.556,0.154-2.285-1.35-2.181c-1.354,0.052-3.325,0.206-5.193,0.468
	c-1.873,0.207-5.091,0.83-7.481,1.091c-2.287,0.312-4.364-0.209-5.608-1.143c-1.144-0.937-1.714-2.234-1.092-2.856
	c0.573-0.574,1.454,0,2.234,0.259c0.829,0.311,1.556,0.569,3.168,0.779c1.661,0.209,3.997,0.052,5.973-0.157
	c1.975-0.206,5.92-0.469,7.374-0.622c1.405-0.207,2.077-0.521,2.598-0.935c0.469-0.363,1.195-0.52,1.661-0.209
	c0.471,0.311,1.351,1.041,2.287,1.818c0.934,0.779,1.401,1.713,1.298,2.132c-0.105,0.36-0.571,0.567-1.246,0.673
	c-0.728,0.104-0.988,1.04-1.664,2.598c-1.35,3.17-2.958,6.129-5.087,8.776c-2.08,2.548-5.403,5.507-8.882,7.947
	C262.617,377.006,259.498,378.149,256.229,379.031z M278.769,346.621c-0.413,0.521-1.661,0.419-3.271,0.053
	c-1.663-0.363-3.43-0.207-4.884-0.053c-1.454,0.106-3.738,0.521-5.973,0.779c-2.13,0.262-3.584,0.105-4.674-0.622
	c-1.092-0.728-1.662-2.074-1.092-2.493c0.466-0.469,1.195,0,1.973,0.262c1.298,0.361,3.846,0.515,6.132,0.204
	c2.281-0.257,4.465-0.673,5.918-0.935c1.664-0.311,2.754-0.363,4.209,0.367C278.355,344.806,279.184,345.998,278.769,346.621z" class="WPZAqRgk_19"></path>
<path fill="none" stroke="#231815" d="M303.812,366.257c1.038-0.468,1.817-0.834,3.325-1.714c2.805-1.559,4.829-2.961,7.896-5.349
	c3.01-2.444,5.868-4.885,8.204-7.221c2.337-2.336,3.793-4.053,4.727-5.195c0.937-1.141,0.881-1.818,0.572-2.389
	c-0.365-0.573-0.416-1.352,0-1.559c1.089-0.676,3.063,0.518,3.738,1.353c0.623,0.776,0.83,1.814,0.469,2.49
	c-0.416,0.778-1.144,1.353-2.025,2.129c-0.937,0.78-2.652,2.182-4.363,3.793c-0.78,0.725-1.611,1.508-2.443,2.287
	c0.573,0.103,1.248,0.206,1.873,0.518c1.141,0.519,1.921,1.141,2.077,1.973c0.204,0.834-0.313,1.248-0.521,2.08
	c-0.207,0.829-0.207,3.01-0.259,4.779c-0.105,1.658-0.105,4.049-0.052,6.231c0,2.182,0.156,4.779,0.156,6.647
	c0.05,1.87-0.521,3.065-1.873,3.011c-1.245-0.103-1.815-2.074-1.661-3.011c0.154-0.935,0.416-3.015,0.468-5.089
	c0.054-2.024,0.157-4.624,0.259-6.911c0.054-2.231,0.105-3.687,0.054-5.141c0-1.451-0.155-2.493-0.626-3.322
	c-0.204-0.364-0.623-0.625-1.035-0.729c-0.521,0.418-0.989,0.831-1.455,1.245c-1.769,1.559-4.935,3.691-7.377,5.247
	c-2.491,1.56-3.894,2.234-5.348,2.962c-1.402,0.727-2.755,1.3-4.468,1.818C303.396,367.398,303.029,366.517,303.812,366.257z" class="WPZAqRgk_20"></path>
<path fill="none" stroke="#231815" d="M357.628,347.04c-0.678-0.78-0.883-1.769-0.468-2.234c0.727-0.779,1.769-0.055,2.286,0.311
	c0.728,0.466,1.816,1.092,2.804,1.246c0.988,0.156,1.974,0,3.375-0.154c3.015-0.259,5.039-0.523,7.43-0.728
	c1.401-0.106,4.572-0.419,6.806-0.623c2.23-0.153,4.411-0.418,5.401-0.572c1.039-0.102,2.024,0.262,2.542,0.623
	c0.521,0.363,1.042,0.776,1.042,1.245c0,0.418-0.052,0.729-1.144,1.562c-1.092,0.829-3.376,2.49-5.715,3.843
	c-2.077,1.245-4.727,2.025-7.271,2.595c0,1.664-0.053,3.637-0.261,5.56c-0.415,2.961-1.093,5.609-2.387,8.363
	c-1.354,2.749-2.287,4.154-3.794,5.661c-1.503,1.452-3.687,2.854-6.44,4.518c-0.881,0.466-1.245-0.311-0.725-0.623
	c0.518-0.313,1.298-0.985,2.386-1.765c1.82-1.353,3.378-2.808,5.039-5.196c1.663-2.389,2.337-4.937,2.803-7.895
	c0.52-3.012,0.416-5.454,0.158-7.947c-0.262-2.441-0.989-4.05-2.235-5.399c-0.466-0.521-0.726-0.986-0.726-1.402
	c-0.466,0.049-0.983,0.104-1.352,0.206c-1.971,0.26-3.842,0.466-5.867,0.417C359.237,348.596,358.406,347.921,357.628,347.04z
	 M371.188,347.715c0.983,0.36,1.553,0.829,2.332,1.454c0.884,0.725,0.988,1.815,1.094,2.805c0,0.312,0.05,0.725,0.05,1.141
	c1.038-0.416,2.079-1.039,3.272-1.818c1.56-0.934,2.392-1.764,3.169-2.646c0.678-0.729,1.089-1.354,0.882-1.609
	c-0.156-0.312-0.572-0.469-1.506-0.419c-0.884,0.106-3.894,0.521-6.077,0.729C373.419,347.452,372.275,347.558,371.188,347.715z" class="WPZAqRgk_21"></path>
<path fill="none" stroke="#231815" d="M438.607,350.104c0.626,0.727,0.21,1.402-0.31,1.972c-0.52,0.521-0.987,1.092-1.146,1.611
	c-0.204,0.623-0.674,3.118-1.245,5.868c-0.416,2.129-1.14,6.286-1.453,7.896c0.365,0.052,0.726,0.156,0.987,0.313
	c1.142,0.675,1.351,1.611,1.037,2.127c-0.31,0.466-1.299,0.573-3.479,0.573c-2.079-0.053-6.129-0.263-8.985-0.209
	c-2.391,0.055-4.83,0.156-6.441,0.209c0,0.728,0.055,1.297,0,1.559c0,1.141-0.726,2.389-1.61,2.389
	c-0.934,0-0.882-1.091-1.038-3.066c-0.155-2.077-0.363-4.672-0.521-7.636c-0.152-3.011-0.518-7.27-0.674-9.088
	c-0.156-1.767-0.88-2.703-1.763-3.221c-0.886-0.469-1.352-0.986-1.2-1.763c0.106-0.524,0.576-0.729,1.666-0.678
	c1.349,0,2.387,0.365,3.272,1.144c0.726,0.622,1.299,1.349,1.349,1.972c1.401-0.207,3.639-0.468,5.508-0.675
	c2.908-0.312,6.958-0.829,8.208-1.038c1.245-0.157,2.127-0.259,2.904-0.986c0.78-0.78,1.25-1.301,2.391-0.934
	C437.152,348.753,438.038,349.429,438.607,350.104z M431.079,367.398c0.518-0.054,1.088-0.103,1.661-0.103
	c0.416-4.833,0.78-7.843,0.934-10.132c0.104-1.245,0.208-2.75,0.208-3.375c0-0.57-0.361-1.245-0.985-1.193
	c-0.678,0.053-4.416,0.259-6.543,0.469c-2.233,0.206-4.416,0.465-6.027,0.57c-0.934,0.102-2.391,0.312-3.426,0.469
	c0,0.362,0,0.779,0.05,1.244c0.156,1.974,0.361,6.336,0.468,8.934c0.052,1.246,0.104,2.91,0.104,4.312
	c1.35-0.105,4.051-0.312,5.867-0.469C425.884,367.866,429.52,367.555,431.079,367.398z" class="WPZAqRgk_22"></path>
<path fill="none" stroke="#231815" d="M454.978,370.514c0-0.361,0.676-0.516,1.298-0.623c1.559-0.312,2.543-0.673,4.312-1.56
	c2.753-1.347,4.83-2.751,7.011-4.776c2.805-2.543,4.364-4.725,5.871-7.271c0.36-0.677,0.728-1.506,0.208-1.922
	c-0.622-0.521-1.197-0.779-1.873-1.092c-0.569-0.261-0.934-0.622-0.878-0.985c0.046-0.312,0.414-0.521,1.35-0.521
	c0.932,0,1.711,0.052,3.164,0.675c1.508,0.625,3.276,2.649,1.819,5.192c-1.455,2.496-4.676,5.509-8.312,8.102
	c-2.647,1.821-3.841,2.444-6.493,3.534c-2.077,0.885-3.685,1.353-5.815,1.665C455.602,371.034,454.978,370.879,454.978,370.514z
	 M495.752,361.789c1.245,1.975,1.401,4-0.052,4.675c-1.455,0.675-3.015-0.312-3.637-1.976c-0.675-1.815-1.403-3.115-2.494-5.088
	c-1.142-1.973-2.079-3.116-3.79-4.572c-0.78-0.623-1.302-1.092-0.936-1.452c0.359-0.366,1.037-0.157,1.923,0.259
	c1.661,0.779,3.114,1.816,4.934,3.325C493.518,358.52,494.505,359.764,495.752,361.789z" class="WPZAqRgk_23"></path>
<style>.WPZAqRgk_0{stroke-dasharray:317 319;stroke-dashoffset:318;animation:WPZAqRgk_draw_0 6200ms linear 0ms infinite,WPZAqRgk_fade 6200ms linear 0ms infinite;}.WPZAqRgk_1{stroke-dasharray:430 432;stroke-dashoffset:431;animation:WPZAqRgk_draw_1 6200ms linear 0ms infinite,WPZAqRgk_fade 6200ms linear 0ms infinite;}.WPZAqRgk_2{stroke-dasharray:380 382;stroke-dashoffset:381;animation:WPZAqRgk_draw_2 6200ms linear 0ms infinite,WPZAqRgk_fade 6200ms linear 0ms infinite;}.WPZAqRgk_3{stroke-dasharray:228 230;stroke-dashoffset:229;animation:WPZAqRgk_draw_3 6200ms linear 0ms infinite,WPZAqRgk_fade 6200ms linear 0ms infinite;}.WPZAqRgk_4{stroke-dasharray:66 68;stroke-dashoffset:67;animation:WPZAqRgk_draw_4 6200ms linear 0ms infinite,WPZAqRgk_fade 6200ms linear 0ms infinite;}.WPZAqRgk_5{stroke-dasharray:64 66;stroke-dashoffset:65;animation:WPZAqRgk_draw_5 6200ms linear 0ms infinite,WPZAqRgk_fade 6200ms linear 0ms infinite;}.WPZAqRgk_6{stroke-dasharray:120 122;stroke-dashoffset:121;animation:WPZAqRgk_draw_6 6200ms linear 0ms infinite,WPZAqRgk_fade 6200ms linear 0ms infinite;}.WPZAqRgk_7{stroke-dasharray:152 154;stroke-dashoffset:153;animation:WPZAqRgk_draw_7 6200ms linear 0ms infinite,WPZAqRgk_fade 6200ms linear 0ms infinite;}.WPZAqRgk_8{stroke-dasharray:133 135;stroke-dashoffset:134;animation:WPZAqRgk_draw_8 6200ms linear 0ms infinite,WPZAqRgk_fade 6200ms linear 0ms infinite;}.WPZAqRgk_9{stroke-dasharray:64 66;stroke-dashoffset:65;animation:WPZAqRgk_draw_9 6200ms linear 0ms infinite,WPZAqRgk_fade 6200ms linear 0ms infinite;}.WPZAqRgk_10{stroke-dasharray:159 161;stroke-dashoffset:160;animation:WPZAqRgk_draw_10 6200ms linear 0ms infinite,WPZAqRgk_fade 6200ms linear 0ms infinite;}.WPZAqRgk_11{stroke-dasharray:157 159;stroke-dashoffset:158;animation:WPZAqRgk_draw_11 6200ms linear 0ms infinite,WPZAqRgk_fade 6200ms linear 0ms infinite;}.WPZAqRgk_12{stroke-dasharray:157 159;stroke-dashoffset:158;animation:WPZAqRgk_draw_12 6200ms linear 0ms infinite,WPZAqRgk_fade 6200ms linear 0ms infinite;}.WPZAqRgk_13{stroke-dasharray:152 154;stroke-dashoffset:153;animation:WPZAqRgk_draw_13 6200ms linear 0ms infinite,WPZAqRgk_fade 6200ms linear 0ms infinite;}.WPZAqRgk_14{stroke-dasharray:66 68;stroke-dashoffset:67;animation:WPZAqRgk_draw_14 6200ms linear 0ms infinite,WPZAqRgk_fade 6200ms linear 0ms infinite;}.WPZAqRgk_15{stroke-dasharray:63 65;stroke-dashoffset:64;animation:WPZAqRgk_draw_15 6200ms linear 0ms infinite,WPZAqRgk_fade 6200ms linear 0ms infinite;}.WPZAqRgk_16{stroke-dasharray:4945 4947;stroke-dashoffset:4946;animation:WPZAqRgk_draw_16 6200ms linear 0ms infinite,WPZAqRgk_fade 6200ms linear 0ms infinite;}.WPZAqRgk_17{stroke-dasharray:201 203;stroke-dashoffset:202;animation:WPZAqRgk_draw_17 6200ms linear 0ms infinite,WPZAqRgk_fade 6200ms linear 0ms infinite;}.WPZAqRgk_18{stroke-dasharray:153 155;stroke-dashoffset:154;animation:WPZAqRgk_draw_18 6200ms linear 0ms infinite,WPZAqRgk_fade 6200ms linear 0ms infinite;}.WPZAqRgk_19{stroke-dasharray:171 173;stroke-dashoffset:172;animation:WPZAqRgk_draw_19 6200ms linear 0ms infinite,WPZAqRgk_fade 6200ms linear 0ms infinite;}.WPZAqRgk_20{stroke-dasharray:133 135;stroke-dashoffset:134;animation:WPZAqRgk_draw_20 6200ms linear 0ms infinite,WPZAqRgk_fade 6200ms linear 0ms infinite;}.WPZAqRgk_21{stroke-dasharray:157 159;stroke-dashoffset:158;animation:WPZAqRgk_draw_21 6200ms linear 0ms infinite,WPZAqRgk_fade 6200ms linear 0ms infinite;}.WPZAqRgk_22{stroke-dasharray:165 167;stroke-dashoffset:166;animation:WPZAqRgk_draw_22 6200ms linear 0ms infinite,WPZAqRgk_fade 6200ms linear 0ms infinite;}.WPZAqRgk_23{stroke-dasharray:106 108;stroke-dashoffset:107;animation:WPZAqRgk_draw_23 6200ms linear 0ms infinite,WPZAqRgk_fade 6200ms linear 0ms infinite;}@keyframes WPZAqRgk_draw{100%{stroke-dashoffset:0;}}@keyframes WPZAqRgk_fade{0%{stroke-opacity:1;}93.54838709677419%{stroke-opacity:1;}100%{stroke-opacity:0;}}@keyframes WPZAqRgk_draw_0{12.903225806451612%{stroke-dashoffset: 318}34.40860215053764%{ stroke-dashoffset: 0;}100%{ stroke-dashoffset: 0;}}@keyframes WPZAqRgk_draw_1{13.370733987844785%{stroke-dashoffset: 431}34.8761103319308%{ stroke-dashoffset: 0;}100%{ stroke-dashoffset: 0;}}@keyframes WPZAqRgk_draw_2{13.83824216923796%{stroke-dashoffset: 381}35.34361851332398%{ stroke-dashoffset: 0;}100%{ stroke-dashoffset: 0;}}@keyframes WPZAqRgk_draw_3{14.305750350631136%{stroke-dashoffset: 229}35.81112669471716%{ stroke-dashoffset: 0;}100%{ stroke-dashoffset: 0;}}@keyframes WPZAqRgk_draw_4{14.773258532024311%{stroke-dashoffset: 67}36.27863487611034%{ stroke-dashoffset: 0;}100%{ stroke-dashoffset: 0;}}@keyframes WPZAqRgk_draw_5{15.240766713417484%{stroke-dashoffset: 65}36.7461430575035%{ stroke-dashoffset: 0;}100%{ stroke-dashoffset: 0;}}@keyframes WPZAqRgk_draw_6{15.708274894810659%{stroke-dashoffset: 121}37.21365123889668%{ stroke-dashoffset: 0;}100%{ stroke-dashoffset: 0;}}@keyframes WPZAqRgk_draw_7{16.175783076203835%{stroke-dashoffset: 153}37.68115942028986%{ stroke-dashoffset: 0;}100%{ stroke-dashoffset: 0;}}@keyframes WPZAqRgk_draw_8{16.64329125759701%{stroke-dashoffset: 134}38.14866760168304%{ stroke-dashoffset: 0;}100%{ stroke-dashoffset: 0;}}@keyframes WPZAqRgk_draw_9{17.11079943899018%{stroke-dashoffset: 65}38.61617578307621%{ stroke-dashoffset: 0;}100%{ stroke-dashoffset: 0;}}@keyframes WPZAqRgk_draw_10{17.578307620383356%{stroke-dashoffset: 160}39.08368396446938%{ stroke-dashoffset: 0;}100%{ stroke-dashoffset: 0;}}@keyframes WPZAqRgk_draw_11{18.045815801776534%{stroke-dashoffset: 158}39.55119214586256%{ stroke-dashoffset: 0;}100%{ stroke-dashoffset: 0;}}@keyframes WPZAqRgk_draw_12{18.513323983169705%{stroke-dashoffset: 158}40.01870032725572%{ stroke-dashoffset: 0;}100%{ stroke-dashoffset: 0;}}@keyframes WPZAqRgk_draw_13{18.98083216456288%{stroke-dashoffset: 153}40.4862085086489%{ stroke-dashoffset: 0;}100%{ stroke-dashoffset: 0;}}@keyframes WPZAqRgk_draw_14{19.44834034595605%{stroke-dashoffset: 67}40.95371669004208%{ stroke-dashoffset: 0;}100%{ stroke-dashoffset: 0;}}@keyframes WPZAqRgk_draw_15{19.915848527349226%{stroke-dashoffset: 64}41.42122487143525%{ stroke-dashoffset: 0;}100%{ stroke-dashoffset: 0;}}@keyframes WPZAqRgk_draw_16{20.383356708742404%{stroke-dashoffset: 4946}41.88873305282843%{ stroke-dashoffset: 0;}100%{ stroke-dashoffset: 0;}}@keyframes WPZAqRgk_draw_17{20.850864890135576%{stroke-dashoffset: 202}42.3562412342216%{ stroke-dashoffset: 0;}100%{ stroke-dashoffset: 0;}}@keyframes WPZAqRgk_draw_18{21.31837307152875%{stroke-dashoffset: 154}42.82374941561478%{ stroke-dashoffset: 0;}100%{ stroke-dashoffset: 0;}}@keyframes WPZAqRgk_draw_19{21.785881252921925%{stroke-dashoffset: 172}43.291257597007956%{ stroke-dashoffset: 0;}100%{ stroke-dashoffset: 0;}}@keyframes WPZAqRgk_draw_20{22.253389434315096%{stroke-dashoffset: 134}43.75876577840112%{ stroke-dashoffset: 0;}100%{ stroke-dashoffset: 0;}}@keyframes WPZAqRgk_draw_21{22.720897615708274%{stroke-dashoffset: 158}44.2262739597943%{ stroke-dashoffset: 0;}100%{ stroke-dashoffset: 0;}}@keyframes WPZAqRgk_draw_22{23.188405797101446%{stroke-dashoffset: 166}44.69378214118747%{ stroke-dashoffset: 0;}100%{ stroke-dashoffset: 0;}}@keyframes WPZAqRgk_draw_23{23.65591397849462%{stroke-dashoffset: 107}45.16129032258064%{ stroke-dashoffset: 0;}100%{ stroke-dashoffset: 0;}}</style></svg>
